<svg width="1576" viewBox="0 0 76 95" fill="none" xmlns="http://www.w3.org/2000/svg">
	<path d="M74.1873 67.6092C70.9043 78.4409 56.8095 89.353 50.1726 93.4108C59.7785 85.5603 56.7082 72.9091 53.9724 67.6092C55.9179 67.6092 58.4308 70.756 59.4441 72.3294C70.5395 68.8513 59.5961 36.8035 59.4441 37.7972C59.2921 38.7909 50.4766 52.9516 52.4525 47.2377C54.4283 41.5237 39.2292 20.9038 34.5174 20.9038C30.748 20.9038 23.9287 32.1661 20.9902 37.7972L25.0939 44.8776C15.0017 43.5857 8.83083 30.1786 7.00693 23.6366C14.0492 15.3969 29.4105 -0.858919 34.5174 0.0354392C40.9011 1.15339 61.42 25.8725 61.42 25.624C61.42 25.3756 67.3476 20.9038 67.3476 20.9038C67.3476 20.9038 72.262 33.4082 74.1873 38.791C75.5552 43.8838 77.4703 56.7775 74.1873 67.6092Z" fill="url(#paint0_linear_1_3)"/>
	<path d="M26.0626 93.5872C33.7117 96.225 45.3382 94.5744 50.1726 93.4108C41.9973 94.3748 35.5851 88.5613 33.4236 85.5427C32.7152 86.3169 33.675 88.4628 34.2435 89.439C28.131 92.5879 13.0214 76.5632 13.6688 76.8646C14.3162 77.166 25.9634 78.8142 21.8395 77.5199C17.7155 76.2255 10.9645 62.6686 12.6802 60.7936C14.0528 59.2935 23.2461 60.6808 27.6713 61.5619L30.3955 65.7732C33.3007 61.2866 27.5597 53.9489 24.326 50.8409C16.8523 50.643 1.5733 50.8367 0.246561 53.1947C-1.41187 56.1421 5.8444 73.3087 5.69638 73.2182C5.54836 73.1278 0.725538 73.8583 0.725538 73.8583C0.725538 73.8583 6.38634 80.3673 8.89238 83.0935C11.4287 85.4924 18.4135 90.9495 26.0626 93.5872Z" fill="url(#paint1_linear_1_3)"/>
	<defs>
		<linearGradient id="paint0_linear_1_3" x1="14.4057" y1="53.8303" x2="50.4373" y2="101.29" gradientUnits="userSpaceOnUse">
			<stop stop-color="#F2A231"/>
			<stop offset="1" stop-color="#F95320"/>
		</linearGradient>
		<linearGradient id="paint1_linear_1_3" x1="14.4057" y1="53.8303" x2="50.4373" y2="101.29" gradientUnits="userSpaceOnUse">
			<stop stop-color="#F2A231"/>
			<stop offset="1" stop-color="#F95320"/>
		</linearGradient>
	</defs>
</svg>
