<?xml version="1.0" encoding="utf-8"?>
<!-- Uploaded to: SVG Repo, www.svgrepo.com, Generator: SVG Repo Mixer Tools -->
<svg width="800px" height="800px" viewBox="0 0 1024 1024" class="icon"  version="1.1" xmlns="http://www.w3.org/2000/svg"  stroke="#000000" stroke-width="3"><path d="M716 190.9v-67.8h-44v67.8H352v-67.8h-44v67.8H92v710h840v-710H716z m-580 44h172v69.2h44v-69.2h320v69.2h44v-69.2h172v151.3H136V234.9z m752 622H136V402.2h752v454.7z" fill="#000" /><path d="M319 565.7m-33 0a33 33 0 1 0 66 0 33 33 0 1 0-66 0Z" fill="#E73B37" /><path d="M510 565.7m-33 0a33 33 0 1 0 66 0 33 33 0 1 0-66 0Z" fill="#E73B37" /><path d="M701.1 565.7m-33 0a33 33 0 1 0 66 0 33 33 0 1 0-66 0Z" fill="#E73B37" /><path d="M319 693.4m-33 0a33 33 0 1 0 66 0 33 33 0 1 0-66 0Z" fill="#E73B37" /><path d="M510 693.4m-33 0a33 33 0 1 0 66 0 33 33 0 1 0-66 0Z" fill="#E73B37" /><path d="M701.1 693.4m-33 0a33 33 0 1 0 66 0 33 33 0 1 0-66 0Z" fill="#E73B37" /></svg>
