<!DOCTYPE svg PUBLIC "-//W3C//DTD SVG 1.1//EN" "http://www.w3.org/Graphics/SVG/1.1/DTD/svg11.dtd">
<!-- Uploaded to: SVG Repo, www.svgrepo.com, Transformed by: SVG Repo Mixer Tools -->
<svg height="800px" width="800px" version="1.1" id="Layer_1" xmlns="http://www.w3.org/2000/svg" xmlns:xlink="http://www.w3.org/1999/xlink" viewBox="0 0 512 512" xml:space="preserve" fill="#000000">
<g id="SVGRepo_bgCarrier" stroke-width="0"/>
<g id="SVGRepo_tracerCarrier" stroke-linecap="round" stroke-linejoin="round"/>
<g id="SVGRepo_iconCarrier"> <circle style="fill:#E6F3FF;" cx="256" cy="256" r="256"/> <path style="fill:#CFDBE6;" d="M275.092,511.291c126.162-9.302,226.897-110.037,236.199-236.199L379.197,142.998l-3.751,32.99 l-83.18-83.18l-116.14,101.707L96.539,205.81l110.645,110.645l-74.38,52.546L275.092,511.291z"/> <path style="fill:#324A5E;" d="M382.928,256c0-10.128-1.221-19.966-3.462-29.408l35.995-20.782l-36.264-62.812l-36.021,20.795 c-14.252-13.478-31.613-23.69-50.912-29.434V92.808h-72.53v41.551c-19.297,5.744-36.659,15.956-50.91,29.434l-36.019-20.795 L96.539,205.81l35.995,20.782c-2.241,9.442-3.462,19.28-3.462,29.408c0,10.128,1.221,19.966,3.462,29.408L96.539,306.19 l36.266,62.814l36.019-20.795c14.252,13.479,31.613,23.69,50.91,29.434v41.551h72.53v-41.551 c19.297-5.744,36.659-15.956,50.912-29.434l36.021,20.795l36.264-62.814l-35.997-20.782 C381.707,275.966,382.928,266.128,382.928,256z M256,310.398c-30.043,0-54.398-24.355-54.398-54.398s24.355-54.398,54.398-54.398 s54.398,24.355,54.398,54.398S286.043,310.398,256,310.398z"/> <path style="fill:#20303F;" d="M382.928,256c0-10.128-1.221-19.966-3.462-29.408l35.995-20.782l-36.264-62.812l-36.021,20.795 c-14.252-13.478-31.613-23.69-50.91-29.434V92.806h-36.84v108.809c0.191-0.002,0.381-0.014,0.574-0.014 c30.043,0,54.398,24.354,54.398,54.398S286.042,310.398,256,310.398c-0.193,0-0.383-0.012-0.574-0.014v108.809h36.84v-41.551 c19.297-5.744,36.659-15.955,50.91-29.434l36.021,20.795l36.264-62.814l-35.995-20.782C381.707,275.966,382.928,266.128,382.928,256 z"/> <path style="fill:#FC6F58;" d="M256,181.682c-41.044,0-74.318,33.273-74.318,74.318c0,41.044,33.273,74.318,74.318,74.318 c41.044,0,74.318-33.273,74.318-74.318S297.044,181.682,256,181.682z M256,320.54c-35.643,0-64.54-28.894-64.54-64.54 s28.896-64.54,64.54-64.54s64.54,28.894,64.54,64.54S291.643,320.54,256,320.54z"/> <path style="fill:#F1543F;" d="M256,181.682c-0.193,0-0.381,0.014-0.574,0.014v9.778c0.191-0.002,0.381-0.014,0.574-0.014 c35.643,0,64.54,28.894,64.54,64.54s-28.894,64.54-64.54,64.54c-0.193,0-0.383-0.012-0.574-0.014v9.778 c0.193,0,0.381,0.014,0.574,0.014c41.044,0,74.318-33.273,74.318-74.318S297.044,181.682,256,181.682z"/> </g>
</svg>