<?xml version="1.0" encoding="iso-8859-1"?>
<!-- Uploaded to: SVG Repo, www.svgrepo.com, Generator: SVG Repo Mixer Tools -->
<svg version="1.1" id="Layer_1" xmlns="http://www.w3.org/2000/svg" xmlns:xlink="http://www.w3.org/1999/xlink" 
	 viewBox="0 0 504 504" xml:space="preserve">
<circle style="fill:#90DFAA;" cx="252" cy="252" r="252"/>
<rect x="94.5" y="104.3" style="fill:#FF7058;" width="315" height="295.3"/>
<rect x="122.1" y="170.6" style="fill:#FFFFFF;" width="259.9" height="201.5"/>
<rect x="122.1" y="127.9" style="fill:#F1543F;" width="32.5" height="19.2"/>
<rect x="175.7" y="127.9" style="fill:#FFD05B;" width="32.5" height="19.2"/>
<rect x="229.4" y="127.9" style="fill:#E6E9EE;" width="32.5" height="19.2"/>
<g>
	<path style="fill:#324A5E;" d="M174.9,279l28.4-42.1H216v41.7h8.3l-1.6,9.5l-6.6,0.3v16.8H203v-16.5c-0.8,0-1.8,0-3,0s-2.5,0-4,0
		s-3,0-4.6-0.1c-1.6,0-3.2,0-4.8,0c-3.7,0-7.6-0.1-11.7-0.1V279z M183,278.7h20v-30.9L183,278.7z"/>
	<path style="fill:#324A5E;" d="M251.9,306.2c-4.1,0-7.6-0.8-10.5-2.3s-5.3-3.7-7.1-6.6s-3.2-6.6-4-10.9s-1.3-9.3-1.3-15
		c0-5.4,0.4-10.2,1.2-14.5s2.1-8,3.9-11s4.1-5.3,7.1-6.9c2.9-1.6,6.5-2.4,10.6-2.4s7.7,0.8,10.6,2.3c2.9,1.6,5.3,3.8,7.1,6.8
		c1.8,3,3.1,6.6,4,10.9c0.8,4.3,1.2,9.2,1.2,14.7c0,5.4-0.4,10.3-1.2,14.6c-0.8,4.3-2.1,8-4,11c-1.8,3-4.2,5.3-7.1,6.9
		C259.5,305.3,256,306.2,251.9,306.2z M242.5,271.3c0,9.7,0.7,16.8,2,21.3c1.4,4.5,3.8,6.8,7.3,6.8c1.3,0,2.5-0.2,3.7-0.5
		s2.2-0.8,3.2-1.3c0.8-0.5,1.4-2.9,1.9-7.2c0.5-4.2,0.7-10.6,0.7-19.1c0-9.6-0.7-16.6-2.1-21.3c-1.4-4.6-3.8-6.9-7.2-6.9
		c-1.3,0-2.4,0.1-3.4,0.4c-1,0.2-1.9,0.6-2.8,1c-1,0.5-1.8,3.1-2.4,7.6C242.8,256.7,242.5,263.1,242.5,271.3z"/>
	<path style="fill:#324A5E;" d="M279.8,279l28.4-42.1h12.6v41.7h8.3l-1.6,9.5l-6.6,0.3v16.8H308v-16.5c-0.8,0-1.8,0-3,0s-2.5,0-4,0
		s-3,0-4.6-0.1c-1.6,0-3.2,0-4.8,0c-3.7,0-7.6-0.1-11.7-0.1V279H279.8z M287.9,278.7h20v-30.9L287.9,278.7z"/>
</g>
<rect x="147.7" y="198.9" style="fill:#54C0EB;" width="164.6" height="11.8"/>
<rect x="334.3" y="198.9" style="fill:#F1543F;" width="22" height="11.8"/>
<rect x="147.7" y="332" style="fill:#FFD05B;" width="164.6" height="11.8"/>
<rect x="334.3" y="332" style="fill:#324A5E;" width="22" height="11.8"/>
</svg>