<?xml version="1.0" encoding="iso-8859-1"?>
<!-- Uploaded to: SVG Repo, www.svgrepo.com, Generator: SVG Repo Mixer Tools -->
<svg height="800px" width="800px" version="1.1" id="Layer_1" xmlns="http://www.w3.org/2000/svg" xmlns:xlink="http://www.w3.org/1999/xlink" 
	 viewBox="0 0 504 504" xml:space="preserve">
<circle style="fill:#90DFAA;" cx="252" cy="252" r="252"/>
<path style="fill:#324A5E;" d="M336.1,306.4l-39.6-39.6c29.1-43,24.7-101.9-13.4-139.9c-43.1-43.1-113-43.1-156.2,0
	c-43.1,43.1-43.1,113,0,156.2c38.1,38.1,97,42.5,139.9,13.4l39.6,39.6L336.1,306.4z"/>
<circle style="fill:#FFFFFF;" cx="204.9" cy="204.9" r="84"/>
<path style="fill:#2B3B4E;" d="M334.4,290.1l-44.3,44.3l82.5,82.5c3.1,3.1,8.1,3.1,11.2,0l33-33c3.1-3.1,3.1-8.1,0-11.2L334.4,290.1
	z"/>
<g>
	<path style="fill:#F1543F;" d="M145.4,207.5l6-19.5h7.9l6,19.5l6.8-19.5h8.2l-11.9,34h-5.6l-7.4-23.6L148,222h-5.6l-11.9-34h8.2
		L145.4,207.5z"/>
	<path style="fill:#F1543F;" d="M194.9,207.5l6-19.5h7.9l6,19.5l6.8-19.5h8.2l-11.9,34h-5.6l-7.4-23.6l-7.4,23.6h-5.6L180,188h8.2
		L194.9,207.5z"/>
	<path style="fill:#F1543F;" d="M244.5,207.5l6-19.5h7.9l6,19.5l6.8-19.5h8.2l-11.9,34h-5.6l-7.4-23.6l-7.4,23.6h-5.6l-11.9-34h8.2
		L244.5,207.5z"/>
</g>
</svg>