<!DOCTYPE svg PUBLIC "-//W3C//DTD SVG 1.1//EN" "http://www.w3.org/Graphics/SVG/1.1/DTD/svg11.dtd">
<!-- Uploaded to: SVG Repo, www.svgrepo.com, Transformed by: SVG Repo Mixer Tools -->
<svg fill="currentColor" width="800px" height="800px" viewBox="-5.04 -5.04 34.08 34.08" id="qr-code" data-name="Line Color" xmlns="http://www.w3.org/2000/svg" class="icon line-color">

<g id="SVGRepo_bgCarrier" stroke-width="0">

<rect x="-5.04" y="-5.04" width="34.08" height="34.08" rx="17.04" fill="transparent" strokewidth="0"/>

</g>

<g id="SVGRepo_tracerCarrier" stroke-linecap="round" stroke-linejoin="round"/>

<g id="SVGRepo_iconCarrier">

<rect id="secondary" x="14" y="14" width="3" height="3" style="fill: none; stroke: currentColor; stroke-linecap: round; stroke-linejoin: round; stroke-width: 2;"/>

<path id="secondary-2" data-name="secondary" d="M21,14v5a2,2,0,0,1-2,2H14" style="fill: none; stroke: currentColor; stroke-linecap: round; stroke-linejoin: round; stroke-width: 2;"/>

<path id="primary" d="M9,10H4A1,1,0,0,1,3,9V4A1,1,0,0,1,4,3H9a1,1,0,0,1,1,1V9A1,1,0,0,1,9,10ZM21,9V4a1,1,0,0,0-1-1H15a1,1,0,0,0-1,1V9a1,1,0,0,0,1,1h5A1,1,0,0,0,21,9ZM10,20V15a1,1,0,0,0-1-1H4a1,1,0,0,0-1,1v5a1,1,0,0,0,1,1H9A1,1,0,0,0,10,20Z" style="fill: none; stroke: currentColor; stroke-linecap: round; stroke-linejoin: round; stroke-width: 2;"/>

</g>

</svg>
