<?xml version="1.0" encoding="iso-8859-1"?>
<!-- Uploaded to: SVG Repo, www.svgrepo.com, Generator: SVG Repo Mixer Tools -->
<svg height="800px" width="800px" version="1.1" id="Layer_1" xmlns="http://www.w3.org/2000/svg" xmlns:xlink="http://www.w3.org/1999/xlink"
	 viewBox="0 0 512.001 512.001" xml:space="preserve" >
<path style="fill:transparent;" d="M512.001,256.006c0,141.395-114.606,255.998-255.996,255.994
	C114.606,512.004,0.001,397.402,0.001,256.006C-0.007,114.61,114.606,0,256.005,0C397.395,0,512.001,114.614,512.001,256.006z"/>
<path style="fill:transparent;" d="M498.97,336.633L255.64,93.301l-0.002-0.001l-1.667-1.667c-0.634-0.636-1.393-1.142-2.235-1.494
	c-0.837-0.35-1.743-0.539-2.669-0.539H96.534c-3.829,0-6.933,3.104-6.933,6.933v291.2c0,2.347,1.243,4.32,3.027,5.574
	c0.463,0.658,112.783,112.978,113.441,113.441c0.117,0.167,0.297,0.272,0.426,0.426c16.022,3.14,32.567,4.828,49.511,4.827
	C369.214,512.003,465.185,438.501,498.97,336.633z"/>
<g>
	<path fill="currentColor" stroke="currentColor" stroke-width="6" d="M311.467,228.267h13.867v-62.4c0-0.926-0.189-1.831-0.539-2.67c-0.352-0.842-0.859-1.6-1.494-2.235
		l-69.329-69.329c-0.635-0.635-1.393-1.142-2.235-1.494c-0.838-0.35-1.744-0.539-2.67-0.539H96.534
		c-3.829,0-6.933,3.104-6.933,6.933v291.2c0,3.829,3.104,6.933,6.933,6.933h145.6V380.8H103.467V103.467h138.667v62.4
		c0,3.829,3.104,6.933,6.933,6.933h62.4V228.267z M256.001,113.27l45.663,45.663h-45.663V113.27z"/>
	<path fill="currentColor" stroke="currentColor" stroke-width="6" d="M420.37,410.564l-44.018-44.018c8.06-10.179,12.913-23.011,12.913-36.975
		c0-32.923-26.779-59.706-59.692-59.706c-32.924,0.001-59.706,26.783-59.706,59.707s26.782,59.706,59.706,59.706
		c13.965,0,26.797-4.858,36.977-12.924l44.016,44.016c1.355,1.355,3.129,2.031,4.902,2.031s3.548-0.677,4.902-2.031
		C423.078,417.661,423.078,413.273,420.37,410.564z M283.734,329.572c0-25.276,20.563-45.839,45.839-45.839
		c25.268,0,45.825,20.563,45.825,45.839c0,25.276-20.556,45.839-45.825,45.839C304.297,375.41,283.734,354.847,283.734,329.572z"/>
</g>
</svg>
