<!DOCTYPE svg PUBLIC "-//W3C//DTD SVG 1.1//EN" "http://www.w3.org/Graphics/SVG/1.1/DTD/svg11.dtd">
<!-- Uploaded to: SVG Repo, www.svgrepo.com, Transformed by: SVG Repo Mixer Tools -->
<svg version="1.1" id="Layer_1" xmlns="http://www.w3.org/2000/svg" xmlns:xlink="http://www.w3.org/1999/xlink" viewBox="-97.28 -97.28 706.54 706.54" xml:space="preserve" width="800px" height="800px" fill="currentColor" stroke="#fff">

<g id="SVGRepo_bgCarrier" stroke-width="0">

<rect x="-97.28" y="-97.28" width="706.54" height="706.54" rx="353.27" fill="transparent" strokewidth="0"/>

</g>

<g id="SVGRepo_tracerCarrier" stroke-linecap="round" stroke-linejoin="round"/>

<g id="SVGRepo_iconCarrier"> <g> <path fill="currentColor" d="M140.568,505.832c-6.168,2.84-18.24,5.92-32.688,5.92c-35.992,0-59.44-22.968-59.44-58.728 c0-34.576,23.68-61.576,64.176-61.576c10.656,0,21.544,2.376,28.176,5.456l-5.208,21.784c-4.736-2.128-11.6-4.496-22.024-4.496 c-22.264,0-35.52,16.344-35.288,37.424c0,23.68,15.4,37.176,35.288,37.176c10.176,0,17.288-2.136,22.968-4.496L140.568,505.832z"/>
    <path fill="currentColor" d="M269.616,450.648c0,42.392-29.832,61.336-59.2,61.336c-32.68,0-57.784-22.496-57.784-59.44 c0-37.888,24.864-61.104,59.68-61.104C246.648,391.448,269.616,415.6,269.616,450.648z M182.712,451.832 c0,22.256,10.888,39.08,28.648,39.08c16.576,0,28.184-16.344,28.184-39.552c0-17.992-8.056-38.6-27.944-38.6 C191,412.76,182.712,432.656,182.712,451.832z"/> <path
    fill="currentColor" d="M293.52,428.392c0-13.256-0.24-24.392-0.952-34.336h25.104l1.184,17.048h0.712 c5.68-9,16.104-19.656,35.52-19.656c15.16,0,27,8.528,31.968,21.312h0.48c4.024-6.392,8.76-11.128,14.2-14.448 c6.4-4.496,13.744-6.864,23.208-6.864c19.176,0,38.6,13.032,38.6,49.968v67.968h-28.416V445.68 c0-19.176-6.632-30.544-20.608-30.544c-9.944,0-17.28,7.104-20.368,15.392c-0.712,2.84-1.416,6.392-1.416,9.712v69.152h-28.424 v-66.784c0-16.104-6.392-27.472-19.888-27.472c-10.896,0-18.232,8.52-20.84,16.576c-1.176,2.832-1.656,6.16-1.656,9.472v68.2 h-28.416v-80.992H293.52z"/> </g>
    <path d="M257.52,322.6c-88.936,0-161.296-72.36-161.296-161.296C96.224,72.36,168.576,0,257.52,0s161.304,72.36,161.304,161.304 C418.824,250.24,346.464,322.6,257.52,322.6z M257.52,16c-80.12,0-145.296,65.176-145.296,145.304 c0,80.12,65.176,145.296,145.296,145.296c80.128,0,145.304-65.176,145.304-145.296C402.824,81.176,337.64,16,257.52,16z"/>
    <rect x="249.512" y="3.384" width="16" height="307.76"/> <rect x="103.984" y="153.272" width="310.144" height="16"/> <path d="M257.336,124.488c-80.928,0-113.2-67.272-114.536-70.144l14.496-6.768c0.008,0,0.008,0.008,0.008,0.016l0,0 c1.28,2.704,29.648,60.888,100.04,60.888c70.816,0,98.96-59.592,99.232-60.192l14.544,6.672 C369.816,57.8,338.304,124.488,257.336,124.488z"/> <path d="M157.296,275.016l-14.496-6.752c1.336-2.864,33.608-70.144,114.536-70.144c80.968,0,112.48,66.68,113.784,69.512 l-14.544,6.672c-1.136-2.448-28.752-60.184-99.232-60.184C186.496,214.128,157.584,274.416,157.296,275.016z"/>
    <path d="M248.8,321.608c-3.056-2.792-74.76-69.464-74.76-160.304c0-90.992,73.352-155.2,76.48-157.888l10.448,12.12 c-0.712,0.616-70.92,62.24-70.92,145.776c0,83.872,68.856,147.864,69.552,148.504L248.8,321.608z"/> <path d="M266.24,321.608l-10.808-11.8c0.696-0.64,69.56-64.832,69.56-148.504c0-83.728-70.2-145.16-70.912-145.768l10.44-12.128 C267.648,6.096,341,70.304,341,161.296C341,252.152,269.296,318.824,266.24,321.608z"/> </g>

</svg>
