<?xml version="1.0" encoding="iso-8859-1"?>
<!-- Uploaded to: SVG Repo, www.svgrepo.com, Generator: SVG Repo Mixer Tools -->
<svg version="1.1" id="Layer_1" xmlns="http://www.w3.org/2000/svg" xmlns:xlink="http://www.w3.org/1999/xlink" 
	 viewBox="0 0 512 512" xml:space="preserve">
<path style="fill:#00A085;" d="M499.449,176.668C466.054,74.12,369.691,0,256,0C114.615,0,0,114.616,0,256
	c0,113.691,74.12,210.055,176.667,243.45L499.449,176.668z"/>
<path style="fill:#007964;" d="M512,256c0-27.694-4.415-54.353-12.551-79.332L395.13,72.348L116.87,439.652l59.797,59.798
	C201.647,507.585,228.306,512,256,512C397.385,512,512,397.384,512,256z"/>
<polygon style="fill:#6FAEE8;" points="395.13,372.87 306.087,350.609 328.348,439.652 395.13,439.652 "/>
<polygon style="fill:#F2F2F2;" points="395.13,72.348 395.13,372.87 353.202,395.13 328.348,439.652 256,439.652 189.217,254.887 
	256,72.348 "/>
<g>
	<polygon style="fill:#FFFFFF;" points="256,72.348 256,395.129 244.87,406.261 256,417.391 256,439.652 116.87,439.652 
		116.87,72.348 	"/>
	<polygon style="fill:#FFFFFF;" points="328.348,439.652 328.348,372.87 395.13,372.87 	"/>
</g>
<polygon style="fill:#458FDE;" points="256,94.609 244.87,105.739 256,116.87 372.87,116.87 372.87,94.609 "/>
<rect x="139.13" y="395.13" style="fill:#BCDEF7;" width="116.87" height="22.261"/>
<path style="fill:#458FDE;" d="M372.87,139.13v211.478H256l-11.13-11.13l11.13-11.13h36.174V205.913H256l-11.13-11.13l11.13-11.13
	h94.609v-22.261H256l-11.13-11.13L256,139.13H372.87z M350.609,328.348V205.913h-36.174v122.435H350.609z"/>
<g>
	<polygon style="fill:#6FAEE8;" points="256,328.348 256,350.609 139.13,350.609 139.13,139.13 256,139.13 256,161.391 
		161.391,161.391 161.391,183.652 256,183.652 256,205.913 161.391,205.913 161.391,328.348 	"/>
	<rect x="139.13" y="94.609" style="fill:#6FAEE8;" width="116.87" height="22.261"/>
</g>
</svg>