<?xml version="1.0" encoding="iso-8859-1"?>
<!-- Uploaded to: SVG Repo, www.svgrepo.com, Generator: SVG Repo Mixer Tools -->
<svg height="800px" width="800px" version="1.1" id="Layer_1" xmlns="http://www.w3.org/2000/svg" xmlns:xlink="http://www.w3.org/1999/xlink" 
	 viewBox="0 0 505 505" xml:space="preserve">
<circle style="fill:#90DFAA;" cx="252.5" cy="252.5" r="252.5"/>
<path style="fill:#FFFFFF;" d="M420.3,240.9c0,28.1-22.8,50.8-50.8,50.8h-234c-28.1,0-50.8-22.8-50.8-50.8c0-19.4,10.9-36.3,27-44.9
	c-5.6-11.4-8.8-24.1-8.8-37.7c0-46.8,37.9-84.7,84.7-84.7c23.6,0,44.9,9.7,60.3,25.2c9.8-6.7,21.7-10.6,34.4-10.6
	c26.6,0,49.2,17,57.6,40.8c3.8-0.8,7.7-1.2,11.7-1.2c30.7,0,55.6,24.9,55.6,55.6c0,7-1.3,13.6-3.7,19.8
	C413.8,212.5,420.3,225.9,420.3,240.9z"/>
<g>
	<polygon style="fill:#FF7058;" points="165.9,322.9 252.5,431.3 339.1,322.9 306.2,322.9 301.5,264.2 203.5,264.2 198.8,322.9 	"/>
	<polygon style="fill:#FF7058;" points="295.4,187.8 209.6,187.8 205.4,240.9 299.6,240.9 	"/>
</g>
</svg>