<?xml version="1.0" encoding="iso-8859-1"?>
<!-- Uploaded to: SVG Repo, www.svgrepo.com, Generator: SVG Repo Mixer Tools -->
<svg version="1.1" id="Layer_1" xmlns="http://www.w3.org/2000/svg" xmlns:xlink="http://www.w3.org/1999/xlink" 
	 viewBox="0 0 512.005 512.005" xml:space="preserve">
<circle style="fill:#E84F4F;" cx="256.003" cy="256.003" r="256.003"/>
<path style="fill:#D14747;" d="M511.599,241.357c0.251,4.864,0.401,9.729,0.401,14.642C512,397.413,397.364,511.999,256,511.999
	c-4.965,0-9.879-0.15-14.743-0.451l-119.801-119.8l270.693-269.84L511.599,241.357z"/>
<path style="fill:#056B78;" d="M128.878,117.494h254.295c6.286,0,11.383,5.097,11.383,11.383v254.295
	c0,6.286-5.097,11.383-11.383,11.383H128.878c-6.286,0-11.383-5.097-11.383-11.383V128.878
	C117.494,122.59,122.59,117.494,128.878,117.494z"/>
<rect x="124.569" y="158.413" style="fill:#EFEFF0;" width="262.867" height="229.073"/>
<g>
	<path style="fill:#EBECEC;" d="M213.325,130.683H368.58c1.302,0,2.357,1.055,2.357,2.357v6.469c0,1.302-1.055,2.357-2.357,2.357
		H213.325c-1.302,0-2.357-1.055-2.357-2.357v-6.469C210.968,131.738,212.023,130.683,213.325,130.683z"/>
	<path style="fill:#EBECEC;" d="M143.872,128.125c4.513,0,8.124,3.661,8.124,8.124c0,4.513-3.661,8.174-8.124,8.174
		c-4.513,0-8.124-3.661-8.124-8.174S139.408,128.125,143.872,128.125z M186.396,128.125c4.513,0,8.174,3.661,8.174,8.124
		c0,4.513-3.661,8.174-8.174,8.174s-8.124-3.661-8.124-8.174S181.933,128.125,186.396,128.125z M165.134,128.125
		c4.513,0,8.174,3.661,8.174,8.124c0,4.513-3.661,8.174-8.174,8.174c-4.513,0-8.124-3.661-8.124-8.174
		C157.01,131.736,160.671,128.125,165.134,128.125z"/>
</g>
<path style="fill:#E84F4F;" d="M305.896,290.852c8.124,12.437,8.976,27.782-2.056,41.472c-11.032,13.69-34.451,17.552-49.595,5.316
	c-15.195-12.236-17.552-34.451-5.316-49.595c9.829-12.236,26.177-16.147,40.068-10.832l65.542-63.988l0,0l-48.593,77.627H305.896z
	 M283.28,301.583c4.713,3.811,5.466,10.782,1.655,15.495c-3.811,4.764-10.782,5.466-15.495,1.655
	c-4.764-3.811-5.466-10.782-1.655-15.495C271.596,298.525,278.566,297.772,283.28,301.583z"/>
<path style="fill:#C94545;" d="M305.896,290.852c8.174,12.437,8.976,27.782-2.056,41.472c-11.032,13.69-34.451,17.552-49.595,5.316
	l15.195-18.905c4.713,3.811,11.684,3.059,15.495-1.655c3.811-4.714,3.059-11.684-1.655-15.495l71.209-88.359l0,0L305.896,290.852z"
	/>
<path style="fill:#00CC96;" d="M271.294,208.311c21.713,0,42.073,6.067,59.374,16.549c-11.383,9.829-27.229,23.569-38.614,33.799
	c-12.787-5.767-26.979-8.976-41.873-8.976c-41.02,0-76.373,24.171-92.621,59.023c7.021-56.615,55.261-100.445,113.783-100.445
	L271.294,208.311z"/>
</svg>