<?xml version="1.0" encoding="utf-8"?>
<!-- Uploaded to: SVG Repo, www.svgrepo.com, Generator: SVG Repo Mixer Tools -->
<svg width="800px" height="800px" viewBox="0 0 1024 1024"
     class="icon"  version="1.1" xmlns="http://www.w3.org/2000/svg">
    <path d="M731.15 585.97c-100.99 0-182.86 81.87-182.86 182.86s81.87 182.86 182.86 182.86 182.86-81.87 182.86-182.86-81.87-182.86-182.86-182.86z m0 292.57c-60.5 0-109.71-49.22-109.71-109.71s49.22-109.71 109.71-109.71c60.5 0 109.71 49.22 109.71 109.71s-49.21 109.71-109.71 109.71z" fill="currentColor" />
    <path d="M758.58 692.98h-54.86v87.27l69.4 68.79 38.6-38.97-53.14-52.68zM219.51 474.96h219.43v73.14H219.51z" fill="currentColor" />
    <path d="M182.61 365.86h585.62v179.48h73.14V145.21c0-39.96-32.5-72.48-72.46-72.48h-27.36c-29.18 0-55.04 16.73-65.88 42.59-5.71 13.64-27.82 13.66-33.57-0.02-10.86-25.86-36.71-42.57-65.88-42.57h-18.16c-29.18 0-55.04 16.73-65.88 42.59-5.71 13.64-27.82 13.66-33.57-0.02-10.86-25.86-36.71-42.57-65.88-42.57H375.3c-29.18 0-55.04 16.73-65.88 42.59-5.71 13.64-27.82 13.66-33.57-0.02-10.86-25.86-36.71-42.57-65.88-42.57H182.4c-39.96 0-72.48 32.52-72.48 72.48v805.14h401.21v-73.14H183.04l-0.43-511.35z m25.81-222.29c14.25 34.09 47.32 56.11 84.23 56.11 36.89 0 69.96-22.02 82.66-53.8l15.86-2.3c14.25 34.09 47.32 56.11 84.23 56.11 36.89 0 69.96-22.02 82.66-53.8l16.59-2.3c14.25 34.09 47.32 56.11 84.23 56.11 36.89 0 69.96-22.02 82.66-53.8l26.68-0.66v147.5H182.54l-0.13-146.84 26.01-2.33z" fill="currentColor" /></svg>
