<?xml version="1.0" encoding="iso-8859-1"?>
<!-- Uploaded to: SVG Repo, www.svgrepo.com, Generator: SVG Repo Mixer Tools -->
<svg height="800px" width="800px" version="1.1" id="Layer_1" xmlns="http://www.w3.org/2000/svg" xmlns:xlink="http://www.w3.org/1999/xlink" 
	 viewBox="0 0 128.5 128.5" xml:space="preserve">
<g>
	<g>
		<circle style="fill:#B1C95D;" cx="64.25" cy="64.25" r="64.25"/>
	</g>
	<polygon style="fill:#DDA272;" points="105,99 30,99 30,38 51,38 51,43 105,43 	"/>
	<polygon style="fill:#FFFFFF;" points="94,92 39,92 39,20 75.979,20 85.776,29.931 94,38.436 	"/>
	<polygon style="fill:#D8D8D8;" points="76,38 93.642,38 76,19.713 	"/>
	<path style="fill:#D8D8D8;" d="M68,28H45c-1.105,0-2-0.896-2-2s0.895-2,2-2h23c1.104,0,2,0.896,2,2S69.104,28,68,28z"/>
	<path style="fill:#D8D8D8;" d="M55,37H44c-0.553,0-1-0.448-1-1s0.447-1,1-1h11c0.553,0,1,0.448,1,1S55.553,37,55,37z"/>
	<path style="fill:#D8D8D8;" d="M68,37h-8c-0.553,0-1-0.448-1-1s0.447-1,1-1h8c0.553,0,1,0.448,1,1S68.553,37,68,37z"/>
	<path style="fill:#D8D8D8;" d="M76,50H64c-0.553,0-1-0.448-1-1s0.447-1,1-1h12c0.553,0,1,0.448,1,1S76.553,50,76,50z"/>
	<path style="fill:#D8D8D8;" d="M88,50h-7c-0.553,0-1-0.448-1-1s0.447-1,1-1h7c0.553,0,1,0.448,1,1S88.553,50,88,50z"/>
	<path style="fill:#D8D8D8;" d="M73,43H57c-0.553,0-1-0.448-1-1s0.447-1,1-1h16c0.553,0,1,0.448,1,1S73.553,43,73,43z"/>
	<path style="fill:#D8D8D8;" d="M59,50H44c-0.553,0-1-0.448-1-1s0.447-1,1-1h15c0.553,0,1,0.448,1,1S59.553,50,59,50z"/>
	<path style="fill:#D8D8D8;" d="M53,43h-9c-0.553,0-1-0.448-1-1s0.447-1,1-1h9c0.553,0,1,0.448,1,1S53.553,43,53,43z"/>
	<path style="fill:#D8D8D8;" d="M88,43H78c-0.553,0-1-0.448-1-1s0.447-1,1-1h10c0.553,0,1,0.448,1,1S88.553,43,88,43z"/>
	<path style="fill:#D8D8D8;" d="M73,56H57c-0.553,0-1-0.448-1-1s0.447-1,1-1h16c0.553,0,1,0.448,1,1S73.553,56,73,56z"/>
	<path style="fill:#D8D8D8;" d="M53,56h-9c-0.553,0-1-0.448-1-1s0.447-1,1-1h9c0.553,0,1,0.448,1,1S53.553,56,53,56z"/>
	<path style="fill:#D8D8D8;" d="M88,56H78c-0.553,0-1-0.448-1-1s0.447-1,1-1h10c0.553,0,1,0.448,1,1S88.553,56,88,56z"/>
	<polygon style="fill:#EFB67F;" points="105,99 29.757,99 18.872,57.713 17,52 44.149,52 46.021,58 94.116,58 	"/>
	<polygon style="fill:#FFFFFF;" points="58.357,92 36.735,92 33.809,80 55.431,80 	"/>
	<polygon style="fill:#FFFFFF;" points="43.378,57 21.757,57 20.703,54 42.324,54 	"/>
	<path style="fill:#DDA272;" d="M90,82H67c-0.553,0-1-0.448-1-1s0.447-1,1-1h23c0.553,0,1,0.448,1,1S90.553,82,90,82z"/>
	<path style="fill:#DDA272;" d="M91,86H68c-0.553,0-1-0.448-1-1s0.447-1,1-1h23c0.553,0,1,0.448,1,1S91.553,86,91,86z"/>
	<path style="fill:#DDA272;" d="M92,91H70c-0.553,0-1-0.448-1-1s0.447-1,1-1h22c0.553,0,1,0.448,1,1S92.553,91,92,91z"/>
</g>
</svg>