<?xml version="1.0" encoding="iso-8859-1"?>
<!-- Uploaded to: SVG Repo, www.svgrepo.com, Generator: SVG Repo Mixer Tools -->
<!DOCTYPE svg PUBLIC "-//W3C//DTD SVG 1.1//EN" "http://www.w3.org/Graphics/SVG/1.1/DTD/svg11.dtd">
<svg fill="currentColor" height="800px" width="800px" version="1.1" id="Capa_1" xmlns="http://www.w3.org/2000/svg" xmlns:xlink="http://www.w3.org/1999/xlink"
	 viewBox="0 0 500.204 500.204" xml:space="preserve">
<g>
	<path d="M396.319,0H103.884C87.254,0,73.723,13.53,73.723,30.161v439.882c0,16.631,13.53,30.161,30.161,30.161H342.86
		c2.785,0,5.455-1.107,7.425-3.075l73.12-73.121c1.969-1.969,3.075-4.64,3.075-7.424V30.161C426.48,13.53,412.95,0,396.319,0z
		 M353.361,464.353v-28.109c0-5.051,4.109-9.161,9.161-9.161h28.109L353.361,464.353z M103.884,21h292.435
		c5.052,0,9.161,4.109,9.161,9.161v32.452H94.723V30.161C94.723,25.109,98.833,21,103.884,21z M94.723,470.043V83.613H405.48v322.47
		h-42.958c-16.631,0-30.161,13.53-30.161,30.161v42.96H103.884C98.833,479.204,94.723,475.094,94.723,470.043z"/>
	<path d="M137.952,161.361h137.5c5.799,0,10.5-4.701,10.5-10.5s-4.701-10.5-10.5-10.5h-137.5c-5.799,0-10.5,4.701-10.5,10.5
		S132.153,161.361,137.952,161.361z"/>
	<path d="M317.452,161.361h35.5c5.799,0,10.5-4.701,10.5-10.5s-4.701-10.5-10.5-10.5h-35.5c-5.799,0-10.5,4.701-10.5,10.5
		S311.653,161.361,317.452,161.361z"/>
	<path d="M137.952,244.736h137.5c5.799,0,10.5-4.701,10.5-10.5s-4.701-10.5-10.5-10.5h-137.5c-5.799,0-10.5,4.701-10.5,10.5
		S132.153,244.736,137.952,244.736z"/>
	<path d="M317.452,244.736h35.5c5.799,0,10.5-4.701,10.5-10.5s-4.701-10.5-10.5-10.5h-35.5c-5.799,0-10.5,4.701-10.5,10.5
		S311.653,244.736,317.452,244.736z"/>
	<path d="M285.952,317.611c0-5.799-4.701-10.5-10.5-10.5h-137.5c-5.799,0-10.5,4.701-10.5,10.5s4.701,10.5,10.5,10.5h137.5
		C281.251,328.111,285.952,323.41,285.952,317.611z"/>
	<path d="M317.452,328.111h35.5c5.799,0,10.5-4.701,10.5-10.5s-4.701-10.5-10.5-10.5h-35.5c-5.799,0-10.5,4.701-10.5,10.5
		S311.653,328.111,317.452,328.111z"/>
	<path d="M352.952,388.111c5.799,0,10.5-4.701,10.5-10.5s-4.701-10.5-10.5-10.5h-100c-5.799,0-10.5,4.701-10.5,10.5
		s4.701,10.5,10.5,10.5H352.952z"/>
</g>
</svg>
