<?xml version="1.0" encoding="iso-8859-1"?>
<!-- Uploaded to: SVG Repo, www.svgrepo.com, Generator: SVG Repo Mixer Tools -->
<svg height="800px" width="800px" version="1.1" id="Layer_1" xmlns="http://www.w3.org/2000/svg" xmlns:xlink="http://www.w3.org/1999/xlink" 
	 viewBox="0 0 512 512" xml:space="preserve">
<path style="fill:#FFCD54;" d="M0,256.006C0,397.402,114.606,512.004,255.996,512C397.394,512.004,512,397.402,512,256.006
	C512.009,114.61,397.394,0,255.996,0C114.606,0,0,114.614,0,256.006z"/>
<path style="fill:#F4BA41;" d="M504.619,317.05c-0.436-0.441-0.87-0.88-1.313-1.313c-0.542-0.547-151.235-151.248-151.786-151.786
	c-23.955-24.179-55.341-38.915-89.751-41.777c-18.566-1.531-36.875,0.503-54.243,5.73c-0.205-0.187-33.491-33.521-34.843-34.041
	c-3.66-1.402-7.733,0.418-9.135,4.063l-27.258,70.938c-0.794,2.064-0.573,4.377,0.588,6.255
	c0.581,0.942,193.735,193.769,194.005,194.01c-12.155,12.35-26.583,22.125-42.683,28.87c-0.117-0.095-0.272-0.146-0.396-0.234
	c-0.452-0.63-180.512-180.704-181.164-181.164c-0.822-1.147-1.889-2.132-3.326-2.629c-3.694-1.287-7.712,0.676-8.996,4.367
	c-19.611,56.617-2.011,117.646,39.73,155.979c0.558,0.529,23.577,23.61,23.966,23.971l-37.502,6.277
	c-3.853,0.642-6.449,4.287-5.807,8.14c0.325,1.937,1.449,3.491,2.933,4.541c0.46,0.638,89.131,89.317,89.765,89.765
	c0.111,0.155,0.274,0.252,0.395,0.395c15.615,2.975,31.713,4.593,48.195,4.592C376.349,512.003,477.237,428.956,504.619,317.05z"/>
<g>
	<path style="fill:#F4F6F9;" d="M423.713,286.173l-45.883-47.682c-1.29-2.31-3.693-3.66-6.349-3.553
		c-0.289-0.012-0.569-0.142-0.855-0.117c-0.219,0.02-0.398,0.159-0.611,0.198c-0.009,0.002-0.016-0.001-0.016-0.001
		c-0.023,0.006-0.033,0.018-0.048,0.021c-1.851,0.363-3.533,1.332-4.586,2.918l-37.483,56.556c-2.154,3.259-1.264,7.643,1.988,9.804
		c1.201,0.794,2.561,1.173,3.901,1.173c2.292,0,4.543-1.111,5.903-3.163l28.256-42.641c3.824,29.111-2.122,58.542-17.5,84.342
		c-18.241,30.579-47.349,52.121-81.974,60.646c-3.791,0.932-6.11,4.764-5.171,8.555c0.794,3.225,3.68,5.378,6.855,5.378
		c0.559,0,1.133-0.062,1.698-0.207c38.319-9.431,70.541-33.278,90.735-67.13c15.982-26.81,22.715-57.168,19.995-87.462
		l30.951,32.166c2.706,2.817,7.173,2.893,9.997,0.193C426.337,293.465,426.42,288.983,423.713,286.173z"/>
	<path style="fill:#F4F6F9;" d="M349.535,182.734c1.402,1.692,3.424,2.569,5.461,2.569c1.581,0,3.175-0.531,4.495-1.619
		c3.01-2.485,3.438-6.942,0.953-9.952c-24.786-30.016-59.825-48.326-98.675-51.557c-38.009-3.133-74.997,8.446-104.864,32.474
		l19.845-51.646c1.402-3.646-0.421-7.737-4.066-9.138c-3.66-1.402-7.732,0.418-9.134,4.063l-27.258,70.938
		c-0.794,2.064-0.573,4.378,0.587,6.255c1.159,1.877,3.135,3.107,5.337,3.321l70.7,6.829c0.228,0.025,0.455,0.034,0.684,0.034
		c3.597,0,6.676-2.734,7.028-6.389c0.38-3.887-2.471-7.343-6.358-7.715l-49.482-4.782c27.2-22.271,61.041-33.004,95.815-30.15
		C295.619,139.175,327.199,155.68,349.535,182.734z"/>
	<path style="fill:#F4F6F9;" d="M170.384,330.967c-1.547-3.583-5.716-5.241-9.293-3.686c-3.583,1.547-5.233,5.71-3.686,9.293
		l21.878,50.646c-62.163-27.442-94.179-99.071-71.596-164.256c1.277-3.686-0.676-7.715-4.37-8.993
		c-3.694-1.287-7.712,0.676-8.996,4.367c-24.126,69.653,8.064,145.989,72.244,178.521l-46.049,7.708
		c-3.853,0.642-6.449,4.288-5.807,8.14c0.58,3.459,3.577,5.903,6.966,5.903c0.386,0,0.78-0.028,1.173-0.097l70.7-11.834
		c2.147-0.359,4.004-1.684,5.04-3.59c1.042-1.913,1.146-4.191,0.283-6.187L170.384,330.967z"/>
</g>
</svg>