<?xml version="1.0" encoding="iso-8859-1"?>
<!-- Uploaded to: SVG Repo, www.svgrepo.com, Generator: SVG Repo Mixer Tools -->
<svg height="800px" width="800px" version="1.1" id="Layer_1" xmlns="http://www.w3.org/2000/svg" xmlns:xlink="http://www.w3.org/1999/xlink"
	 viewBox="0 0 511.995 511.995" xml:space="preserve">
<circle style="fill:transparent;" cx="255.997" cy="255.997" r="255.997"/>
<path style="fill:transparent;" d="M510.778,280.878c-11.55,119.948-105.954,215.573-225.124,229.345l-108.62-108.62l-6.442-27.655
	l-21.657-19.547l5.331-10.439l-15.438-13.438l5.331-4.998l-24.878-20.769L355.29,125.279l155.599,155.599L510.778,280.878
	L510.778,280.878z"/>
<path style="fill:transparent;" stroke="currentColor" stroke-width="20" d="M346.627,420.817l-5.998-83.075c0,0,61.529-59.196,54.643-135.052
	c-6.886-75.856-83.407-123.613-160.929-102.955c-77.633,20.658-90.517,82.853-90.85,93.07c-0.333,10.217,9.219,36.317,2.332,54.087
	c-6.886,17.77-31.652,45.647-29.321,54.087c2.332,8.33,23.545,9.774,23.545,9.774s0.222,8.108-2.555,9.774
	c-2.777,1.666-1.222,8.441,3.443,12.105c4.665,3.776,12.439,6.22,12.439,6.22s-8.885,1.999-7.775,8.33
	c1.111,6.331,4.332,9.441,10.884,9.774c6.664,0.333,8.33-2.888,9.441,0.555c1.111,3.443,1.888,3.776,1.888,3.776
	s-6.553,17.104-0.889,29.765c5.776,12.661,14.66,12.661,24.989,10.107c10.328-2.555,30.432-8.33,30.432-8.33l5.553,28.099h118.726
	L346.627,420.817L346.627,420.817z"/>
<path style="fill:transparent;" d="M346.627,420.817l-5.998-83.075c0,0,61.529-59.196,54.643-135.052
	c-5.775-63.195-59.64-106.843-122.39-107.731v325.858L346.627,420.817L346.627,420.817z"/>
<path fill="currentColor" d="M345.072,197.469l-0.222,7.331l-20.991-0.666l0.222-7.331L345.072,197.469z M257.554,266.107h30.875
	v7.775h-30.875V266.107z M270.994,287.653v0.777h-2.555v-0.777h-1c-1,0-1.777-0.555-2.221-1.444h-0.111
	c-1.333,0-2.443-1.111-2.443-2.555l0,0c0-0.889,0.444-1.666,1.111-2.11h-3.776c-1.333,0-2.443-1.111-2.443-2.555l0,0
	c0-1.333,1.111-2.555,2.443-2.555h25.989c1.333,0,2.444,1.111,2.444,2.555l0,0c0,1.444-1.111,2.555-2.444,2.555h-3.776
	c0.666,0.444,1.111,1.222,1.111,2.11l0,0c0,1.333-1.111,2.555-2.444,2.555h-0.111c-0.444,0.889-1.222,1.444-2.221,1.444h-1v0.777
	h-2.555v-0.777H270.994z M271.882,157.154c23.323,0,42.315,19.325,42.315,43.204c0,16.104-8.663,30.21-21.546,37.65v19.769
	c0,2.332-1.888,4.332-4.221,4.332h-30.986c-2.332,0-4.221-1.888-4.221-4.332v-18.658c-13.994-6.997-23.657-21.768-23.657-38.872
	c0-23.879,18.992-43.204,42.315-43.204L271.882,157.154L271.882,157.154z M324.192,249.781l-5.442,4.887l-14.105-15.66l5.442-4.887
	L324.192,249.781z M221.792,146.048l-5.109,5.331l15.104,14.66l5.109-5.331L221.792,146.048z M198.58,197.358l0.222,7.331
	l20.991-0.666l-0.222-7.331L198.58,197.358z M219.349,249.67l5.442,4.887l14.105-15.66l-5.442-4.887L219.349,249.67z
	 M268.661,126.945h7.331v20.991h-7.331V126.945z M321.638,145.937l5.109,5.331l-15.104,14.66l-5.109-5.331L321.638,145.937z"/>
<path fill="currentColor" d="M345.072,197.469l-0.222,7.331l-20.991-0.666l0.222-7.331L345.072,197.469z M272.549,127.056v20.991
	h3.665v-20.991H272.549z M272.549,157.154l0.111,104.955h15.771c2.332,0,4.221-1.888,4.221-4.332v-19.88
	c12.883-7.442,21.546-21.546,21.546-37.65c0-23.657-18.547-42.87-41.649-43.204L272.549,157.154L272.549,157.154z M272.66,265.996
	v7.775h15.66v-7.775H272.66z M272.66,276.435v11.106h2.11v0.777h2.555v-0.777h1c1,0,1.777-0.555,2.221-1.444h0.111
	c1.333,0,2.443-1.111,2.443-2.555l0,0c0-0.889-0.444-1.666-1.111-2.11h3.776c1.333,0,2.443-1.111,2.443-2.555l0,0
	c0-1.333-1.111-2.555-2.443-2.555H272.55L272.66,276.435z M324.081,249.67l-5.442,4.887l-14.105-15.549l5.442-4.887L324.081,249.67z
	 M321.749,145.937l5.109,5.331l-15.104,14.66l-5.109-5.331L321.749,145.937z"/>
</svg>
