<!DOCTYPE svg PUBLIC "-//W3C//DTD SVG 1.1//EN" "http://www.w3.org/Graphics/SVG/1.1/DTD/svg11.dtd">
<!-- Uploaded to: SVG Repo, www.svgrepo.com, Transformed by: SVG Repo Mixer Tools -->
<svg version="1.1" id="Layer_1" xmlns="http://www.w3.org/2000/svg" xmlns:xlink="http://www.w3.org/1999/xlink" viewBox="0 0 512 512" xml:space="preserve" width="800px" height="800px" fill="#000000">
<g id="SVGRepo_bgCarrier" stroke-width="0"/>
<g id="SVGRepo_tracerCarrier" stroke-linecap="round" stroke-linejoin="round"/>
<g id="SVGRepo_iconCarrier"> <circle style="fill:#75dbad;" cx="256" cy="256" r="256"/> <path style="fill:#2cd395;" d="M512,256c0-2.441-0.041-4.872-0.11-7.296l-80.813-81.727l-22.6,25.433L308.295,92.229 l-99.987,187.906l-61.487,111.48l120.137,120.137C403.258,506.008,512,393.712,512,256z"/> <path style="fill:#324A5E;" d="M293.64,398.222H161.473c-10.631,0-19.251-8.618-19.251-19.251V104.584 c0-10.631,8.618-19.251,19.251-19.251H293.64c10.631,0,19.251,8.618,19.251,19.251v274.389 C312.891,389.604,304.273,398.222,293.64,398.222z"/> <path style="fill:#2B3B4E;" d="M293.64,85.333h-66.37v312.889h66.37c10.631,0,19.251-8.62,19.251-19.251V104.584 C312.891,93.951,304.273,85.333,293.64,85.333z"/> <rect x="149.118" y="113.778" style="fill:#E6F3FF;" width="156.875" height="256"/> <rect x="227.28" y="113.778" style="fill:#CFDBE6;" width="78.724" height="256"/> <path style="fill:#FFD15D;" d="M415.62,296.857H276.128c-11.75,0-21.276-9.526-21.276-21.276V181.6 c0-11.75,9.526-21.276,21.276-21.276H415.62c11.75,0,21.276,9.526,21.276,21.276v93.98 C436.896,287.33,427.37,296.857,415.62,296.857z"/> <path style="fill:#F9B54C;" d="M415.62,160.323h-69.399v136.533h69.399c11.75,0,21.276-9.526,21.276-21.276V181.6 C436.896,169.85,427.37,160.323,415.62,160.323z"/> <rect x="254.845" y="191.354" style="fill:#324A5E;" width="182.044" height="28.962"/> <rect x="346.229" y="191.354" style="fill:#2B3B4E;" width="90.676" height="28.962"/> </g>
</svg>