<?xml version="1.0" encoding="iso-8859-1"?>
<!-- Uploaded to: SVG Repo, www.svgrepo.com, Generator: SVG Repo Mixer Tools -->
<svg height="800px" width="800px" version="1.1" id="Layer_1" xmlns="http://www.w3.org/2000/svg" xmlns:xlink="http://www.w3.org/1999/xlink" 
	 viewBox="0 0 512 512" xml:space="preserve">
<circle style="fill:#3A99D7;" cx="256" cy="255.997" r="255.997"/>
<path style="fill:#2682BF;" d="M189.698,503.226L74.081,386.832l75.745-72.079l278.879-142.049l83.186,83.186V256
	c0,141.383-114.616,256-255.999,256c-22.879,0-45.092-2.999-66.305-8.663L189.698,503.226z"/>
<path style="fill:#F7F7F8;" d="M326.194,125.057c-61.862,0-112.063,35.651-112.063,79.521c0,43.981,50.201,79.521,112.063,79.521
	c25.434,0,48.868-5.998,67.638-16.104l44.092,27.766l-19.325-46.202c12.328-12.772,19.658-28.321,19.658-44.981
	C438.257,160.597,388.056,125.057,326.194,125.057z"/>
<g>
	<path style="fill:#E6E6E6;" d="M273.218,173.813h107.731c3.435,0,6.22,2.76,6.22,6.164l0,0c0,3.404-2.785,6.164-6.22,6.164H273.218
		c-3.435,0-6.22-2.76-6.22-6.164l0,0C266.998,176.573,269.783,173.813,273.218,173.813z"/>
	<path style="fill:#E6E6E6;" d="M273.218,198.802h107.731c3.435,0,6.22,2.76,6.22,6.164l0,0c0,3.404-2.785,6.164-6.22,6.164H273.218
		c-3.435,0-6.22-2.76-6.22-6.164l0,0C266.998,201.562,269.783,198.802,273.218,198.802z"/>
	<path style="fill:#E6E6E6;" d="M273.218,223.681h107.731c3.435,0,6.22,2.76,6.22,6.164l0,0c0,3.404-2.785,6.164-6.22,6.164H273.218
		c-3.435,0-6.22-2.76-6.22-6.164l0,0C266.998,226.44,269.783,223.681,273.218,223.681z"/>
</g>
<g>
	<path style="fill:#E84F4F;" d="M271.44,171.482h107.731c3.435,0,6.22,2.76,6.22,6.164l0,0c0,3.404-2.785,6.164-6.22,6.164H271.44
		c-3.435,0-6.22-2.76-6.22-6.164l0,0C265.221,174.241,268.005,171.482,271.44,171.482z"/>
	<path style="fill:#E84F4F;" d="M271.44,196.359h107.731c3.435,0,6.22,2.76,6.22,6.164l0,0c0,3.404-2.785,6.164-6.22,6.164H271.44
		c-3.435,0-6.22-2.76-6.22-6.164l0,0C265.221,199.118,268.005,196.359,271.44,196.359z"/>
	<path style="fill:#E84F4F;" d="M271.44,221.348h107.731c3.435,0,6.22,2.76,6.22,6.164l0,0c0,3.404-2.785,6.164-6.22,6.164H271.44
		c-3.435,0-6.22-2.76-6.22-6.164l0,0C265.221,224.108,268.005,221.348,271.44,221.348z"/>
</g>
<path style="fill:#FFD630;" d="M185.811,216.128c61.862,0,112.063,35.651,112.063,79.521c0,43.981-50.201,79.521-112.063,79.521
	c-25.434,0-48.868-5.998-67.638-16.104l-44.092,27.766l19.325-46.202c-12.328-12.772-19.658-28.32-19.658-44.981
	C73.748,251.669,123.949,216.128,185.811,216.128z"/>
<g>
	<path style="fill:#FAC852;" d="M131.057,264.885h107.731c3.435,0,6.22,2.76,6.22,6.164l0,0c0,3.404-2.785,6.164-6.22,6.164H131.057
		c-3.435,0-6.22-2.76-6.22-6.164l0,0C124.837,267.645,127.622,264.885,131.057,264.885z"/>
	<path style="fill:#FAC852;" d="M131.057,289.763h107.731c3.435,0,6.22,2.76,6.22,6.164l0,0c0,3.404-2.785,6.164-6.22,6.164H131.057
		c-3.435,0-6.22-2.76-6.22-6.164l0,0C124.837,292.523,127.622,289.763,131.057,289.763z"/>
	<path style="fill:#FAC852;" d="M131.057,314.753h107.731c3.435,0,6.22,2.76,6.22,6.164l0,0c0,3.404-2.785,6.164-6.22,6.164H131.057
		c-3.435,0-6.22-2.76-6.22-6.164l0,0C124.837,317.512,127.622,314.753,131.057,314.753z"/>
</g>
<g>
	<path style="fill:#FFFFFF;" d="M132.833,262.553h107.731c3.435,0,6.22,2.76,6.22,6.164l0,0c0,3.404-2.785,6.164-6.22,6.164H132.833
		c-3.435,0-6.22-2.76-6.22-6.164l0,0C126.614,265.312,129.399,262.553,132.833,262.553z"/>
	<path style="fill:#FFFFFF;" d="M132.833,287.431h107.731c3.435,0,6.22,2.76,6.22,6.164l0,0c0,3.404-2.785,6.164-6.22,6.164H132.833
		c-3.435,0-6.22-2.76-6.22-6.164l0,0C126.614,290.191,129.399,287.431,132.833,287.431z"/>
	<path style="fill:#FFFFFF;" d="M132.833,312.42h107.731c3.435,0,6.22,2.76,6.22,6.164l0,0c0,3.404-2.785,6.164-6.22,6.164H132.833
		c-3.435,0-6.22-2.76-6.22-6.164l0,0C126.614,315.18,129.399,312.42,132.833,312.42z"/>
</g>
</svg>