<?xml version="1.0" encoding="iso-8859-1"?>
<!-- Uploaded to: SVG Repo, www.svgrepo.com, Generator: SVG Repo Mixer Tools -->
<svg fill="currentColor" height="800px" width="800px" version="1.1" id="Layer_1" xmlns="http://www.w3.org/2000/svg" xmlns:xlink="http://www.w3.org/1999/xlink"
	 viewBox="0 0 512 512" xml:space="preserve">
<g>
	<g>
		<path d="M438.886,109.679l-14.191,21.282C461.688,151.33,486.4,188.237,486.4,230.4s-24.713,79.07-61.705,99.447l14.191,21.282
			C483.14,325.854,512,280.627,512,230.4S483.14,134.946,438.886,109.679z"/>
	</g>
</g>
<g>
	<g>
		<path d="M409.6,149.803V64c0-9.839-5.641-18.816-14.515-23.074C391.561,39.228,387.772,38.4,384,38.4
			c-5.709,0-11.366,1.903-15.991,5.606L247.023,140.8H89.6C40.192,140.8,0,180.992,0,230.4S40.192,320,89.6,320h14.575
			l59.179,138.086c2.773,6.477,8.107,11.529,14.729,13.952c2.85,1.041,5.828,1.562,8.806,1.562c3.934,0,7.859-0.904,11.452-2.705
			l51.2-25.6c12.126-6.059,17.425-20.523,12.083-32.981L222.046,320h24.977l120.986,96.794c4.625,3.703,10.291,5.606,15.991,5.606
			c3.772,0,7.561-0.828,11.085-2.526c8.875-4.258,14.515-13.235,14.515-23.074v-85.803c30.515-14.609,51.2-45.594,51.2-80.597
			C460.8,195.396,440.115,164.412,409.6,149.803z M102.4,294.4H89.6c-35.345,0-64-28.655-64-64c0-35.345,28.655-64,64-64h12.8V294.4
			z M238.08,422.4l-51.2,25.6l-54.852-128h62.174L238.08,422.4z M332.8,355.84L256,294.4H128v-128h128l76.8-61.44V355.84z
			 M384,396.8l-25.6-20.48V84.48L384,64V396.8z M409.6,281.327V179.473c15.471,11.682,25.6,30.046,25.6,50.927
			C435.2,251.273,425.071,269.645,409.6,281.327z"/>
	</g>
</g>
</svg>
