<?xml version="1.0" ?>

<!-- Uploaded to: SVG Repo, www.svgrepo.com, Generator: SVG Repo Mixer Tools -->
<svg fill="currentColor" width="800px" height="800px" viewBox="0 0 64 64" xmlns="http://www.w3.org/2000/svg">

<g data-name="39 live chat" id="_39_live_chat">

<path d="M53.72,11.02H28.65c-3.74,0-6.78,2.5-6.78,5.57v2.39H9.73c-3.44,0-6.23,2.3-6.23,5.13V39.93c0,2.83,2.79,5.13,6.23,5.13h2.42l8.21,7.65a.977.977,0,0,0,.68.27.953.953,0,0,0,.4-.08,1.011,1.011,0,0,0,.6-.92V45.06H32.35c3.44,0,6.23-2.3,6.23-5.13V39.7h1.6v7.76a1,1,0,0,0,.61.92.881.881,0,0,0,.39.08,1.039,1.039,0,0,0,.69-.26L51,39.7h2.72c3.74,0,6.78-2.5,6.78-5.58V16.59C60.5,13.52,57.46,11.02,53.72,11.02ZM36.58,39.93c0,1.7-1.94,3.13-4.23,3.13H21.04a1,1,0,0,0-1,1v5.62l-6.82-6.35a1,1,0,0,0-.68-.27H9.73c-2.33,0-4.23-1.4-4.23-3.13V24.11c0-1.72,1.9-3.13,4.23-3.13H21.87V34.12c0,3.08,3.04,5.58,6.78,5.58h7.93ZM58.5,34.12c0,1.97-2.15,3.58-4.78,3.58H50.6a1.014,1.014,0,0,0-.68.26l-7.74,7.21V38.7a.99.99,0,0,0-1-1H28.65c-2.63,0-4.78-1.61-4.78-3.58V16.59c0-1.97,2.15-3.57,4.78-3.57H53.72c2.63,0,4.78,1.6,4.78,3.57Z"/>

<path d="M31.11,21.44a3.745,3.745,0,1,0,3.75,3.75A3.751,3.751,0,0,0,31.11,21.44Zm0,5.49a1.745,1.745,0,1,1,1.75-1.74A1.75,1.75,0,0,1,31.11,26.93Z"/>

<path d="M41.18,21.44a3.745,3.745,0,1,0,3.75,3.75A3.749,3.749,0,0,0,41.18,21.44Zm0,5.49a1.745,1.745,0,1,1,1.75-1.74A1.741,1.741,0,0,1,41.18,26.93Z"/>

<path d="M51.26,21.44a3.745,3.745,0,1,0,3.75,3.75A3.751,3.751,0,0,0,51.26,21.44Zm0,5.49a1.745,1.745,0,1,1,1.75-1.74A1.743,1.743,0,0,1,51.26,26.93Z"/>

</g>

</svg>
