<?xml version="1.0" encoding="iso-8859-1"?>
<!-- Uploaded to: SVG Repo, www.svgrepo.com, Generator: SVG Repo Mixer Tools -->
<svg fill="currentColor" height="800px" width="800px" version="1.1" id="Layer_1" xmlns="http://www.w3.org/2000/svg" xmlns:xlink="http://www.w3.org/1999/xlink"
	 viewBox="0 0 512 512" xml:space="preserve"
     stroke="currentColor" stroke-width="6">
<g>
	<g>
		<path d="M166.208,36.318h-17.103c-4.429,0-8.017,3.588-8.017,8.017s3.59,8.017,8.017,8.017h17.103
			c4.429,0,8.017-3.589,8.017-8.017S170.637,36.318,166.208,36.318z"/>
	</g>
</g>
<g>
	<g>
		<path d="M183.311,438.242h-51.31c-4.428,0-8.017,3.589-8.017,8.017v34.206c0,4.429,3.588,8.017,8.017,8.017h51.31
			c4.429,0,8.017-3.589,8.017-8.017V446.26C191.329,441.831,187.74,438.242,183.311,438.242z M175.294,472.449h-35.275v-18.172
			h35.275V472.449z"/>
	</g>
</g>
<g>
	<g>
		<path d="M443.066,194.522H313.189V42.197c0-22.104-17.982-40.086-40.086-40.086H44.348c-22.104,0-40.086,17.982-40.086,40.086
			v429.718C4.262,494.018,22.244,512,44.348,512h228.755c22.104,0,40.086-17.982,40.086-40.086v-43.292h60.396
			c4.429,0,8.017-3.588,8.017-8.017s-3.588-8.017-8.017-8.017H141.622c-4.421,0-8.017-3.596-8.017-8.017v-97.809h317.478v97.809
			c0,4.421-3.596,8.017-8.017,8.017h-28.862c-4.429,0-8.017,3.589-8.017,8.017s3.589,8.017,8.017,8.017h28.862
			c13.261,0,24.051-10.79,24.051-24.051V218.573C467.117,205.311,456.329,194.522,443.066,194.522z M140.553,428.622
			c0.121,0,0.238-0.013,0.358-0.018c0.237,0.006,0.472,0.018,0.711,0.018h155.532v43.292c0,13.261-10.79,24.051-24.051,24.051
			H44.348c-13.261,0-24.051-10.79-24.051-24.051v-43.292H140.553z M117.571,218.573v185.997c0,2.81,0.49,5.508,1.379,8.017H20.297
			V79.076h51.844c4.429,0,8.017-3.589,8.017-8.017s-3.588-8.017-8.017-8.017H20.297V42.197c0-13.262,10.79-24.051,24.051-24.051
			h228.755c13.261,0,24.051,10.79,24.051,24.051v20.844H112.761c-4.429,0-8.017,3.589-8.017,8.017s3.588,8.017,8.017,8.017h184.394
			v115.447H141.622C128.361,194.522,117.571,205.312,117.571,218.573z M451.083,290.727H133.605v-26.724h317.478V290.727z
			 M451.083,247.97H133.605v-29.396c0-4.421,3.596-8.017,8.017-8.017h301.444c4.421,0,8.017,3.596,8.017,8.017V247.97z"/>
	</g>
</g>
<g>
	<g>
		<path d="M403.515,378.381H300.896c-4.429,0-8.017,3.588-8.017,8.017c0,4.429,3.588,8.017,8.017,8.017h102.619
			c4.429,0,8.017-3.59,8.017-8.017C411.532,381.97,407.944,378.381,403.515,378.381z"/>
	</g>
</g>
<g>
	<g>
		<path d="M360.757,115.42c-17.389,0-31.534,14.145-31.534,31.534c0,17.389,14.146,31.534,31.534,31.534
			c17.389,0,31.534-14.145,31.534-31.534C392.291,129.565,378.146,115.42,360.757,115.42z M360.757,162.454
			c-8.546,0-15.5-6.953-15.5-15.5c0-8.546,6.954-15.5,15.5-15.5c8.546,0,15.5,6.953,15.5,15.5S369.303,162.454,360.757,162.454z"/>
	</g>
</g>
<g>
	<g>
		<path d="M465.426,43.773C438.171,16.133,401.802,0.587,363.016,0.001C362.975,0,362.933,0,362.893,0
			c-4.372,0-7.949,3.51-8.014,7.896c-0.067,4.428,3.468,8.071,7.895,8.137c71.093,1.074,128.929,59.803,128.929,130.921
			c0,4.429,3.588,8.017,8.017,8.017c4.429,0,8.017-3.588,8.017-8.017C507.738,108.088,492.712,71.445,465.426,43.773z"/>
	</g>
</g>
<g>
	<g>
		<path d="M426.146,83.116c-16.738-17.131-39.128-26.897-63.048-27.502c-4.432-0.077-8.105,3.386-8.218,7.813
			c-0.111,4.427,3.386,8.105,7.813,8.218c41.173,1.039,73.425,34.118,73.425,75.309c0,4.429,3.588,8.017,8.017,8.017
			c4.429,0,8.017-3.588,8.017-8.017C452.152,122.952,442.915,100.28,426.146,83.116z"/>
	</g>
</g>
</svg>
