<?xml version="1.0" ?>

<!-- Uploaded to: SVG Repo, www.svgrepo.com, Generator: SVG Repo Mixer Tools -->
<svg width="800px" height="800px" viewBox="0 0 72 72" xmlns="http://www.w3.org/2000/svg">

<g fill="none" fill-rule="evenodd">

<path d="M36,72 L36,72 C55.882251,72 72,55.882251 72,36 L72,36 C72,16.117749 55.882251,-3.65231026e-15 36,0 L36,0 C16.117749,3.65231026e-15 -2.4348735e-15,16.117749 0,36 L0,36 C2.4348735e-15,55.882251 16.117749,72 36,72 Z" fill="transparent"/>

<path d="M42.0860128,53.5922927 L22.9745951,53.6011499 L22.9729497,49.5538824 L42.0835447,49.5440929 L42.0860128,53.5922927 L42.0860128,53.5922927 Z M55,30.6708298 L51.7306912,12 L47.7087256,12.6920259 L50.9775643,31.3628557 L55,30.6708298 L55,30.6708298 Z M42.5455518,44.3547147 L23.5156994,42.616026 L23.1410164,46.6470941 L42.1712214,48.3841513 L42.5455518,44.3547147 L42.5455518,44.3547147 Z M43.8009984,39.0731519 L25.3459811,34.1539179 L24.285633,38.0621508 L42.7419431,42.9819676 L43.8009984,39.0731519 L43.8009984,39.0731519 Z M46.2103463,34.4436411 L29.7494464,24.8164635 L27.6748215,28.3015328 L44.1365441,37.9292931 L46.2103463,34.4436411 L46.2103463,34.4436411 Z M50.2466504,31.6088756 L46.8745036,33.8883189 L36.106599,18.2318456 L39.4792159,15.9517031 L50.2466504,31.6088756 Z M45.3315807,40.2784283 L48.5799693,40.2784283 L48.5799693,60 L17,60 L17,40.2784283 L20.2648427,40.2784283 L20.2648427,56.8243495 L45.3315807,56.8243495 L45.3315807,40.2784283 Z" fill="currentColor"/>

</g>

</svg>
