<?xml version="1.0" encoding="iso-8859-1"?>
<!-- Uploaded to: SVG Repo, www.svgrepo.com, Generator: SVG Repo Mixer Tools -->
<svg height="800px" width="800px" version="1.1" id="Layer_1" xmlns="http://www.w3.org/2000/svg" xmlns:xlink="http://www.w3.org/1999/xlink" 
	 viewBox="0 0 512.005 512.005" xml:space="preserve">
<circle style="fill:#71B84F;" cx="256.003" cy="256.003" r="256.003"/>
<path style="fill:#63A147;" d="M510.646,282.929c-12.437,118.949-106.312,213.625-224.858,227.366L171.703,396.21l168.593-283.63
	l170.298,170.298L510.646,282.929z"/>
<path style="fill:#E84F4F;" d="M340.347,396.21c0,8.976-37.761,16.248-84.297,16.248s-84.297-7.271-84.297-16.248V112.58h168.594
	V396.21z"/>
<path style="fill:#C94545;" d="M340.347,396.21c0,8.976-37.761,16.248-84.297,16.248V112.63h84.297V396.21z"/>
<path style="fill:#F7F7F8;" d="M255.999,99.592c46.536,0,84.297,5.817,84.297,13.038c0,7.221-37.761,13.038-84.297,13.038
	s-84.297-5.817-84.297-13.038C171.703,105.409,209.463,99.592,255.999,99.592z"/>
<path style="fill:#993232;" d="M171.703,359.955v-8.224c21.915,7.472,51.601,12.036,84.297,12.036s62.382-4.563,84.297-12.036v8.224
	c-22.466,7.221-52.002,11.634-84.297,11.634S194.118,367.176,171.703,359.955z M171.703,153.901v-8.224
	c21.915,7.472,51.601,12.036,84.297,12.036s62.382-4.563,84.297-12.036v8.224c-22.466,7.271-52.002,11.634-84.297,11.634
	S194.118,161.122,171.703,153.901z M171.703,195.121v-8.224c21.915,7.472,51.601,12.036,84.297,12.036s62.382-4.563,84.297-12.036
	v8.224c-22.466,7.221-52.002,11.634-84.297,11.634S194.118,202.342,171.703,195.121z M171.703,236.342v-8.224
	c21.915,7.472,51.601,12.036,84.297,12.036s62.382-4.563,84.297-12.036v8.224c-22.466,7.271-52.002,11.634-84.297,11.634
	S194.118,243.564,171.703,236.342z M171.703,277.563v-8.224c21.915,7.472,51.601,12.036,84.297,12.036s62.382-4.563,84.297-12.036
	v8.224c-22.466,7.271-52.002,11.634-84.297,11.634S194.118,284.784,171.703,277.563z M171.703,318.784v-8.224
	c21.915,7.472,51.601,12.036,84.297,12.036s62.382-4.563,84.297-12.036v8.224c-22.466,7.271-52.002,11.634-84.297,11.634
	S194.118,326.005,171.703,318.784z"/>
<path style="fill:#782323;" d="M255.999,363.765c32.695,0,62.382-4.563,84.297-12.036v8.224
	c-22.466,7.221-52.002,11.634-84.297,11.634L255.999,363.765L255.999,363.765z M255.999,330.418v-7.823
	c32.695,0,62.382-4.563,84.297-12.036v8.224C317.831,326.055,288.294,330.418,255.999,330.418z M255.999,289.197v-7.823
	c32.695,0,62.382-4.563,84.297-12.036v8.224C317.831,284.834,288.294,289.197,255.999,289.197z M255.999,247.977v-7.823
	c32.695,0,62.382-4.563,84.297-12.036v8.224C317.831,243.614,288.294,247.977,255.999,247.977z M255.999,206.755v-7.823
	c32.695,0,62.382-4.563,84.297-12.036v8.224C317.831,202.342,288.294,206.755,255.999,206.755z M255.999,165.535v-7.823
	c32.695,0,62.382-4.563,84.297-12.036v8.224C317.831,161.172,288.294,165.535,255.999,165.535z"/>
<path style="fill:#F7F7F8;" d="M300.079,232.431c37.008,0,67.047,30.038,67.047,67.097s-30.038,67.097-67.047,67.097
	s-67.047-30.038-67.047-67.097S263.071,232.431,300.079,232.431z"/>
<path style="fill:#FFD630;" d="M314.371,234.687L314.371,234.687l-1.605-0.351l0,0l0,0l0,0l0,0l0,0l0,0l0,0
	c-0.551-0.1-1.103-0.2-1.655-0.301c-36.156-6.017-70.356,18.354-76.423,54.51c-6.067,36.156,18.354,70.356,54.51,76.423
	c0.501,0.1,1.053,0.15,1.554,0.251l0.301,0.05c0.451,0.05,0.853,0.1,1.304,0.15l0.351,0.05c0.501,0.05,1.003,0.1,1.504,0.15h0.251
	c0.401,0.05,0.853,0.05,1.254,0.1l0.501,0.05l1.204,0.05h0.301c0.501,0,1.003,0.05,1.504,0.05h0.301h1.204h0.451
	c0.451,0,0.953,0,1.404-0.05h0.05l0,0c0.501,0,0.953-0.05,1.454-0.05h0.401c0.401,0,0.803-0.05,1.154-0.1l0.351-0.05
	c0.501-0.05,0.953-0.1,1.454-0.15l0.301-0.05c0.401-0.05,0.753-0.1,1.154-0.15l0.501-0.05l1.003-0.15l0.451-0.05
	c0.451-0.05,0.853-0.15,1.304-0.251l0.651-0.15l0.753-0.15l0.703-0.15l0.853-0.2l0.753-0.2c0.351-0.1,0.703-0.15,1.053-0.251
	l0.601-0.15l0.753-0.2l0.651-0.2c0.351-0.1,0.702-0.2,1.053-0.301l0.753-0.251l0.702-0.251l0.703-0.251l0.702-0.251l0.651-0.251l0,0
	c0.351-0.15,0.753-0.301,1.103-0.401l0.803-0.301l0.501-0.2l0.702-0.301l0.551-0.251c0.501-0.2,1.003-0.451,1.504-0.702l0.251-0.15
	l0.803-0.401l0.351-0.2l0.803-0.401l0.351-0.2c0.501-0.251,1.003-0.551,1.504-0.803l0.301-0.2l0.853-0.501l0.251-0.15l0.853-0.501
	c0.351-0.2,0.651-0.401,1.003-0.601l0.753-0.501l0.301-0.2l0.803-0.551l0.15-0.1c0.551-0.401,1.103-0.803,1.655-1.204l0.15-0.1
	l0.753-0.551l0.251-0.2c1.204-0.903,2.307-1.855,3.46-2.858l0.05-0.05c2.005-1.755,3.912-3.661,5.667-5.667l0.05-0.05
	c1.003-1.154,2.005-2.357,2.908-3.561l0.05-0.05c0.703-0.903,1.354-1.855,2.005-2.808c5.266-7.723,8.976-16.649,10.632-26.478
	c0.803-4.864,1.053-9.678,0.853-14.392l0,0c0-0.451-0.05-0.853-0.1-1.304v-0.2v-0.2v-0.2l-0.1-0.853v-0.2v-0.2v-0.2v-0.05
	l-0.1-0.953l-0.05-0.451l-0.05-0.2l-0.05-0.2l-0.1-0.651l-0.05-0.2l-0.05-0.2l-0.05-0.401l-0.05-0.2l-0.1-0.551l-0.15-0.903
	l-0.05-0.2l-0.1-0.401l-0.2-1.003l-0.05-0.2l-0.05-0.251c-0.1-0.401-0.2-0.853-0.301-1.254l-0.05-0.251
	c-3.41-14.141-11.383-26.778-22.566-35.956l0,0l0,0l0,0c-0.351-0.251-0.651-0.551-1.003-0.803l-0.2-0.15
	c-0.351-0.251-0.702-0.551-1.053-0.803l-0.301-0.251c-0.351-0.251-0.702-0.501-1.053-0.753l-0.251-0.15
	c-0.351-0.251-0.702-0.501-1.053-0.702l-0.301-0.2c-0.351-0.251-0.702-0.451-1.053-0.702l-0.251-0.15
	c-0.401-0.251-0.803-0.501-1.204-0.753l-0.05-0.05h-0.05l-0.15-0.1c-0.401-0.251-0.803-0.451-1.204-0.702l-0.05-0.05l-0.1-0.05
	c-0.401-0.251-0.803-0.451-1.254-0.651l-0.2-0.1c-0.401-0.2-0.803-0.451-1.254-0.651l-0.2-0.1c-0.401-0.2-0.853-0.401-1.254-0.601
	l-0.15-0.05c-0.451-0.2-0.903-0.401-1.354-0.651l-0.1-0.05c-0.451-0.2-0.953-0.401-1.404-0.601l-0.05-0.05
	c-0.451-0.2-0.953-0.401-1.404-0.551l-0.15-0.05c-0.451-0.2-0.953-0.351-1.454-0.551l-0.05-0.05c-0.501-0.2-1.003-0.351-1.504-0.501
	h-0.05c-0.501-0.15-1.053-0.351-1.554-0.501l0,0c-0.501-0.15-1.053-0.301-1.554-0.451h-0.05c-0.501-0.15-1.053-0.301-1.605-0.401
	h-0.05c-0.551-0.15-1.053-0.251-1.605-0.351h-0.05h-0.05L314.371,234.687z M418.727,453.729
	c-12.988,10.732-27.079,20.159-42.073,28.182l-36.006-62.483c-2.107-3.661-0.903-8.375,2.758-10.48l3.209-1.855l-11.634-19.958
	c-15.495,6.168-32.796,8.324-50.398,5.366c-51.351-8.575-86.002-57.168-77.427-108.467c8.575-51.351,57.168-86.002,108.467-77.427
	c51.351,8.575,86.002,57.168,77.427,108.467c-4.012,23.87-16.599,44.079-34.1,58.07l11.634,19.958l3.259-1.905
	c3.661-2.107,8.375-0.903,10.48,2.758L418.727,453.729z M256.552,287.693v0.1c-0.401,2.558-2.758,4.313-5.216,3.912
	c-2.107-0.351-3.611-2.207-3.711-4.313h-0.15c0.1-0.853,0.251-1.755,0.351-2.658c4.814-28.785,32.044-48.191,60.828-43.377
	c0.803,0.15,1.605,0.301,2.357,0.451c0.15,0,0.351,0.05,0.501,0.05c2.608,0.451,4.363,2.808,3.912,5.316
	c-0.401,2.508-2.858,4.212-5.416,3.761l-0.15-0.05l-0.05,0.1c-0.903-0.2-1.805-0.401-2.708-0.551
	c-23.72-3.962-46.185,12.036-50.147,35.755c-0.1,0.501-0.15,0.953-0.2,1.454h-0.2v0.051H256.552z"/>
<path style="fill:#E84F4F;" d="M374.497,390.845l-27.882,16.198l-3.209,1.855c-3.661,2.107-4.864,6.82-2.758,10.48l36.006,62.483
	c14.994-8.024,29.085-17.451,42.073-28.182l-34.401-59.725C382.371,390.544,378.057,389.24,374.497,390.845z"/>
<path style="fill:#C94545;" d="M370.585,393.051l3.259-1.905c3.661-2.107,8.375-0.903,10.48,2.758l34.401,59.725
	c-6.369,5.266-12.988,10.23-19.908,14.844l-39.165-69.102l10.932-6.369v0.05H370.585z"/>
</svg>