<?xml version="1.0" encoding="iso-8859-1"?>
<!-- Uploaded to: SVG Repo, www.svgrepo.com, Generator: SVG Repo Mixer Tools -->
<svg height="800px" width="800px" version="1.1" id="Layer_1" xmlns="http://www.w3.org/2000/svg" xmlns:xlink="http://www.w3.org/1999/xlink" 
	 viewBox="0 0 511.998 511.998" xml:space="preserve">
<circle style="fill:#FF5B62;" cx="255.999" cy="255.999" r="255.999"/>
<ellipse style="fill:#F4F6F7;" cx="255.999" cy="267.946" rx="113.099" ry="29.739"/>
<path style="fill:#D7DEE0;" d="M369.1,267.717v37.586c0,16.296-50.639,29.507-113.1,29.507c-62.463,0-113.1-13.209-113.1-29.507
	v-37.586c0,16.298,50.637,29.507,113.1,29.507S369.1,284.015,369.1,267.717z"/>
<ellipse style="fill:#F4F6F7;" cx="255.999" cy="206.127" rx="113.099" ry="29.739"/>
<path style="fill:#D7DEE0;" d="M369.1,205.893v37.586c0,16.298-50.639,29.507-113.1,29.507c-62.463,0-113.1-13.209-113.1-29.507
	v-37.586c0,16.298,50.637,29.507,113.1,29.507S369.1,222.191,369.1,205.893z"/>
<ellipse style="fill:#F4F6F7;" cx="255.999" cy="144.298" rx="113.099" ry="29.739"/>
<path style="fill:#D7DEE0;" d="M369.1,144.069v37.586c0,16.296-50.639,29.507-113.1,29.507c-62.463,0-113.1-13.209-113.1-29.507
	v-37.586c0,16.296,50.637,29.507,113.1,29.507S369.1,160.367,369.1,144.069z"/>
<ellipse style="fill:#F4F6F7;" cx="255.999" cy="82.479" rx="113.099" ry="29.739"/>
<path style="fill:#D7DEE0;" d="M369.1,82.245v37.586c0,16.296-50.639,29.507-113.1,29.507c-62.463,0-113.1-13.209-113.1-29.507
	V82.245c0,16.296,50.637,29.507,113.1,29.507S369.1,98.543,369.1,82.245z"/>
<g>
	<path style="fill:#C2CACC;" d="M365.336,127.352v9.483c-12.81,12.629-56.903,21.936-109.336,21.936s-96.526-9.307-109.338-21.936
		v-9.483c12.81,12.627,56.905,21.936,109.338,21.936S352.526,139.979,365.336,127.352z"/>
	<path style="fill:#C2CACC;" d="M365.336,189.227v9.483c-12.81,12.627-56.903,21.936-109.336,21.936s-96.526-9.309-109.338-21.936
		v-9.483c12.81,12.627,56.905,21.936,109.338,21.936S352.526,201.854,365.336,189.227z"/>
	<path style="fill:#C2CACC;" d="M365.336,251.051v9.483C352.526,273.161,308.433,282.47,256,282.47s-96.526-9.309-109.338-21.936
		v-9.483c12.81,12.627,56.905,21.936,109.338,21.936S352.526,263.677,365.336,251.051z"/>
</g>
<circle style="fill:#FF5B62;" cx="324.904" cy="125.744" r="6.277"/>
<circle style="fill:#21D0C3;" cx="307.209" cy="127.78" r="6.277"/>
<circle style="fill:#FF5B62;" cx="324.904" cy="186.934" r="6.277"/>
<circle style="fill:#21D0C3;" cx="307.209" cy="188.97" r="6.277"/>
<circle style="fill:#FF5B62;" cx="324.904" cy="248.124" r="6.277"/>
<circle style="fill:#21D0C3;" cx="307.209" cy="250.16" r="6.277"/>
<circle style="fill:#FF5B62;" cx="324.904" cy="309.315" r="6.277"/>
<circle style="fill:#21D0C3;" cx="307.209" cy="311.351" r="6.277"/>
<g>
	<path style="fill:#C2CACC;" d="M172.502,129.073c-1.18-0.542-1.696-1.942-1.151-3.122c0.542-1.18,1.942-1.696,3.122-1.151
		c1.457,0.675,7.556,3.244,17.206,5.281c5.534,1.169,12.21,2.157,19.804,2.507c1.296,0.055,2.301,1.153,2.247,2.449
		c-0.055,1.296-1.153,2.301-2.449,2.247c-7.898-0.366-14.828-1.389-20.558-2.6c-10.151-2.141-16.659-4.888-18.221-5.609
		L172.502,129.073L172.502,129.073z"/>
	<path style="fill:#C2CACC;" d="M172.502,119.564c-1.18-0.542-1.696-1.942-1.151-3.122c0.542-1.18,1.942-1.696,3.122-1.151
		c1.457,0.675,7.556,3.244,17.206,5.281c5.534,1.169,12.21,2.157,19.804,2.507c1.296,0.055,2.301,1.153,2.247,2.449
		c-0.055,1.296-1.153,2.301-2.449,2.247c-7.898-0.366-14.828-1.389-20.558-2.6c-10.151-2.141-16.659-4.888-18.221-5.609
		L172.502,119.564L172.502,119.564z"/>
	<path style="fill:#C2CACC;" d="M172.502,191.616c-1.18-0.542-1.696-1.942-1.151-3.122c0.542-1.18,1.942-1.696,3.122-1.151
		c1.457,0.675,7.556,3.244,17.206,5.281c5.534,1.169,12.21,2.157,19.804,2.507c1.296,0.055,2.301,1.153,2.247,2.449
		c-0.055,1.296-1.153,2.301-2.449,2.247c-7.898-0.366-14.828-1.389-20.558-2.6c-10.151-2.141-16.659-4.888-18.221-5.609
		L172.502,191.616L172.502,191.616z"/>
	<path style="fill:#C2CACC;" d="M172.502,182.105c-1.18-0.542-1.696-1.942-1.151-3.122c0.542-1.18,1.942-1.696,3.122-1.151
		c1.457,0.675,7.556,3.244,17.206,5.281c5.534,1.169,12.21,2.157,19.804,2.507c1.296,0.055,2.301,1.153,2.247,2.449
		c-0.055,1.296-1.153,2.301-2.449,2.247c-7.898-0.366-14.828-1.389-20.558-2.6c-10.151-2.141-16.659-4.888-18.221-5.609
		L172.502,182.105L172.502,182.105z"/>
	<path style="fill:#C2CACC;" d="M172.502,253.059c-1.18-0.542-1.696-1.942-1.151-3.122c0.542-1.18,1.942-1.696,3.122-1.151
		c1.457,0.675,7.556,3.244,17.206,5.281c5.534,1.169,12.21,2.157,19.804,2.507c1.296,0.055,2.301,1.153,2.247,2.449
		s-1.153,2.301-2.449,2.247c-7.898-0.366-14.828-1.389-20.558-2.6c-10.151-2.141-16.659-4.888-18.221-5.609L172.502,253.059
		L172.502,253.059z"/>
	<path style="fill:#C2CACC;" d="M172.502,243.547c-1.18-0.542-1.696-1.942-1.151-3.122c0.542-1.18,1.942-1.696,3.122-1.151
		c1.457,0.675,7.556,3.244,17.206,5.281c5.534,1.169,12.21,2.157,19.804,2.507c1.296,0.055,2.301,1.153,2.247,2.449
		s-1.153,2.301-2.449,2.247c-7.898-0.366-14.828-1.389-20.558-2.6c-10.151-2.141-16.659-4.888-18.221-5.609L172.502,243.547
		L172.502,243.547z"/>
	<path style="fill:#C2CACC;" d="M172.502,314.753c-1.18-0.542-1.696-1.942-1.151-3.122c0.542-1.18,1.942-1.696,3.122-1.151
		c1.457,0.675,7.556,3.244,17.206,5.281c5.534,1.169,12.21,2.157,19.804,2.507c1.296,0.055,2.301,1.153,2.247,2.449
		s-1.153,2.301-2.449,2.247c-7.898-0.366-14.828-1.389-20.558-2.6c-10.151-2.141-16.659-4.888-18.221-5.609L172.502,314.753
		L172.502,314.753z"/>
	<path style="fill:#C2CACC;" d="M172.502,305.241c-1.18-0.542-1.696-1.942-1.151-3.122c0.542-1.18,1.942-1.696,3.122-1.151
		c1.457,0.675,7.556,3.244,17.206,5.281c5.534,1.169,12.21,2.157,19.804,2.507c1.296,0.055,2.301,1.153,2.247,2.449
		s-1.153,2.301-2.449,2.247c-7.898-0.366-14.828-1.389-20.558-2.6c-10.151-2.141-16.659-4.888-18.221-5.609L172.502,305.241
		L172.502,305.241z"/>
</g>
<path style="fill:#FFFFFF;" d="M57.107,417.161h397.784c-5.007,6.171-10.295,12.1-15.842,17.777H72.949
	C67.402,429.263,62.114,423.333,57.107,417.161z"/>
<path style="fill:#C8CACC;" d="M70.283,432.189h371.428c-0.877,0.926-1.773,1.834-2.664,2.748h-366.1
	C72.057,434.024,71.162,433.113,70.283,432.189z"/>
<path style="fill:#FFFFFF;" d="M242.552,334.81h23.22v82.351h-23.22V334.81z"/>
<g>
	<path style="fill:#C8CACC;" d="M242.552,334.81h23.22v24.004L242.552,334.81z"/>
	<path style="fill:#C8CACC;" d="M263.254,334.81h2.516v82.351h-2.516V334.81z"/>
</g>
<path style="fill:#21D0C3;" d="M235.112,411.177h38.101c2.256,0,4.101,1.845,4.101,4.101v21.539c0,2.256-1.845,4.103-4.101,4.103
	h-38.101c-2.256,0-4.101-1.847-4.101-4.103v-21.539C231.01,413.023,232.856,411.177,235.112,411.177z"/>
<path style="fill:#15BDB2;" d="M277.125,438.043c-0.523,1.663-2.084,2.877-3.911,2.877h-38.101c-1.83,0-3.388-1.215-3.911-2.877
	h45.927H277.125z"/>
</svg>