<?xml version="1.0" encoding="iso-8859-1"?>
<!-- Uploaded to: SVG Repo, www.svgrepo.com, Generator: SVG Repo Mixer Tools -->
<svg fill="currentColor" height="800px" width="800px" version="1.1" id="Layer_1" xmlns="http://www.w3.org/2000/svg" xmlns:xlink="http://www.w3.org/1999/xlink"
	 viewBox="0 0 512 512" xml:space="preserve">
<g>
	<g>
		<path d="M437.333,213.333c5.888,0,10.667-4.779,10.667-10.667v-128c0-29.397-23.915-53.333-53.333-53.333H53.333
			C23.915,21.333,0,45.269,0,74.667v362.667c0,29.397,23.915,53.333,53.333,53.333h341.333c29.419,0,53.333-23.936,53.333-53.333
			v-64c0-5.888-4.779-10.667-10.667-10.667c-5.888,0-10.667,4.779-10.667,10.667v64c0,17.643-14.357,32-32,32H53.333
			c-17.643,0-32-14.357-32-32V128h405.333v74.667C426.667,208.555,431.445,213.333,437.333,213.333z M21.333,106.667v-32
			c0-17.643,14.357-32,32-32h341.333c17.643,0,32,14.357,32,32v32H21.333z"/>
	</g>
</g>
<g>
	<g>
		<circle cx="53.333" cy="74.667" r="10.667"/>
	</g>
</g>
<g>
	<g>
		<circle cx="96" cy="74.667" r="10.667"/>
	</g>
</g>
<g>
	<g>
		<circle cx="138.667" cy="74.667" r="10.667"/>
	</g>
</g>
<g>
	<g>
		<path d="M480,234.667h-21.333c-5.888,0-10.667,4.779-10.667,10.667v85.333c0,5.888,4.779,10.667,10.667,10.667
			s10.667-4.779,10.667-10.667v-32H480c17.643,0,32-14.357,32-32C512,249.024,497.643,234.667,480,234.667z M480,277.333h-10.667
			V256H480c5.867,0,10.667,4.779,10.667,10.667S485.867,277.333,480,277.333z"/>
	</g>
</g>
<g>
	<g>
		<path d="M288,234.667h-21.333c-5.888,0-10.667,4.779-10.667,10.667v85.333c0,5.888,4.779,10.667,10.667,10.667
			s10.667-4.779,10.667-10.667v-32H288c17.643,0,32-14.357,32-32C320,249.024,305.643,234.667,288,234.667z M288,277.333h-10.667
			V256H288c5.867,0,10.667,4.779,10.667,10.667S293.867,277.333,288,277.333z"/>
	</g>
</g>
<g>
	<g>
		<path d="M416,234.667c-5.888,0-10.667,4.779-10.667,10.667v32h-42.667v-32c0-5.888-4.779-10.667-10.667-10.667
			c-5.888,0-10.667,4.779-10.667,10.667v85.333c0,5.888,4.779,10.667,10.667,10.667c5.888,0,10.667-4.779,10.667-10.667v-32h42.667
			v32c0,5.888,4.779,10.667,10.667,10.667c5.888,0,10.667-4.779,10.667-10.667v-85.333C426.667,239.445,421.888,234.667,416,234.667
			z"/>
	</g>
</g>
</svg>
