<?xml version="1.0" encoding="iso-8859-1"?>
<!-- Uploaded to: SVG Repo, www.svgrepo.com, Generator: SVG Repo Mixer Tools -->
<svg fill="currentColor" version="1.1" id="Layer_1" xmlns="http://www.w3.org/2000/svg" xmlns:xlink="http://www.w3.org/1999/xlink"
	 viewBox="0 0 512 512" xml:space="preserve">
<g>
	<g>
		<polygon points="39.184,109.714 39.184,125.388 433.633,125.388 433.633,47.02 0,47.02 0,386.612 316.082,386.612
			316.082,370.939 15.673,370.939 15.673,62.694 417.959,62.694 417.959,109.714 		"/>
	</g>
</g>
<g>
	<g>
		<rect x="41.012" y="78.367" width="15.673" height="15.673"/>
	</g>
</g>
<g>
	<g>
		<rect x="72.359" y="78.367" width="15.673" height="15.673"/>
	</g>
</g>
<g>
	<g>
		<rect x="103.706" y="78.367" width="15.673" height="15.673"/>
	</g>
</g>
<g>
	<g>
		<rect x="166.4" y="78.367" width="226.22" height="15.673"/>
	</g>
</g>
<g>
	<g>
		<path d="M36.571,154.645v187.037h109.714V154.645H36.571z M130.612,326.008H52.245v-155.69h78.367V326.008z"/>
	</g>
</g>
<g>
	<g>
		<path d="M161.959,154.645v85.682h235.102v-85.682H161.959z M381.388,224.653H177.633v-54.335h203.755V224.653z"/>
	</g>
</g>
<g>
	<g>
		<rect x="224.653" y="189.649" width="15.673" height="15.673"/>
	</g>
</g>
<g>
	<g>
		<rect x="256" y="189.649" width="15.673" height="15.673"/>
	</g>
</g>
<g>
	<g>
		<rect x="287.347" y="189.649" width="15.673" height="15.673"/>
	</g>
</g>
<g>
	<g>
		<rect x="318.694" y="189.649" width="15.673" height="15.673"/>
	</g>
</g>
<g>
	<g>
		<path d="M161.959,256v85.682h88.816V256H161.959z M235.102,326.008h-57.469v-54.335h57.469V326.008z"/>
	</g>
</g>
<g>
	<g>
		<rect x="302.237" y="256" width="86.988" height="15.673"/>
	</g>
</g>
<g>
	<g>
		<rect x="270.89" y="279.333" width="118.335" height="15.673"/>
	</g>
</g>
<g>
	<g>
		<path d="M433.633,292.943V148.898h-15.673v144.045c-11.693,1.06-22.719,4.458-32.604,9.732H270.89v15.673h93.502
			c-2.378,2.417-4.608,4.978-6.691,7.659H270.89v15.673h77.104c-5.381,11.242-8.402,23.821-8.402,37.094
			c0,47.533,38.672,86.204,86.204,86.204S512,426.309,512,378.775C512,333.886,477.505,296.918,433.633,292.943z M425.796,449.306
			c-38.891,0-70.531-31.639-70.531-70.531s31.639-70.531,70.531-70.531s70.531,31.64,70.531,70.531S464.687,449.306,425.796,449.306
			z"/>
	</g>
</g>
<g>
	<g>
		<polygon points="433.633,370.939 433.633,331.755 417.959,331.755 417.959,370.939 378.776,370.939 378.776,386.612
			417.959,386.612 417.959,425.796 433.633,425.796 433.633,386.612 472.816,386.612 472.816,370.939 		"/>
	</g>
</g>
</svg>
