<!DOCTYPE svg PUBLIC "-//W3C//DTD SVG 1.1//EN" "http://www.w3.org/Graphics/SVG/1.1/DTD/svg11.dtd">
<!-- Uploaded to: SVG Repo, www.svgrepo.com, Transformed by: SVG Repo Mixer Tools -->
<svg version="1.1" id="Layer_1" xmlns="http://www.w3.org/2000/svg" xmlns:xlink="http://www.w3.org/1999/xlink" viewBox="-107.52 -107.52 727.04 727.04" xml:space="preserve" width="800px" height="800px" fill="#000000">
<g id="SVGRepo_bgCarrier" stroke-width="0">
<rect x="-107.52" y="-107.52" width="727.04" height="727.04" rx="363.52" fill="#9acdfc" strokewidth="0"/>
</g>
<g id="SVGRepo_tracerCarrier" stroke-linecap="round" stroke-linejoin="round"/>
<g id="SVGRepo_iconCarrier"> <path style="fill:#E9EDF1;" d="M451.952,447.652H60.048C27.024,447.652,0,420.628,0,387.604V83.06 c0-33.032,27.024-60.048,60.048-60.048h391.896c33.032,0,60.048,27.024,60.048,60.048v304.544 C512,420.628,484.976,447.652,451.952,447.652z"/> <path d="M512,117.516V83.06c0-33.032-27.024-60.048-60.048-60.048H60.048C27.024,23.004,0,50.028,0,83.06v34.456 C0,117.516,512,117.516,512,117.516z"/> <circle style="fill:#E9EDF1;" cx="58.4" cy="70.26" r="13.424"/> <circle style="fill:#FF9900;" cx="96.64" cy="70.26" r="13.424"/> <circle style="fill:#ff8000;" cx="134.904" cy="70.26" r="13.424"/> <g> <rect x="429.392" y="66.5" style="fill:#FFFFFF;" width="30.4" height="6.824"/> <polygon style="fill:#FFFFFF;" points="450.88,90.42 445.728,85.94 459.384,70.26 445.728,54.588 450.88,50.108 468.448,70.26 "/> <path style="fill:#FFFFFF;" d="M379.264,91.628H208.336c-11.752,0-21.368-9.616-21.368-21.368l0,0 c0-11.752,9.616-21.368,21.368-21.368h170.928c11.752,0,21.368,9.616,21.368,21.368l0,0 C400.632,82.012,391.016,91.628,379.264,91.628z"/> </g> <path d="M212.664,80.484l-4.704-19.24h3.744l1.824,8.736c0.48,2.344,0.936,4.8,1.256,6.704h0.056c0.32-2.024,0.856-4.304,1.4-6.736 l2.08-8.704H222l1.92,8.856c0.48,2.28,0.88,4.424,1.16,6.504h0.064c0.336-2.12,0.8-4.304,1.304-6.656l2-8.704h3.576l-5.176,19.24 h-3.76l-2-9.056c-0.496-2.184-0.824-4.016-1.056-6.104h-0.064c-0.336,2.056-0.704,3.92-1.28,6.104l-2.224,9.056 C216.464,80.484,212.664,80.484,212.664,80.484z"/> <path d="M237.72,80.484l-4.704-19.24h3.744l1.824,8.736c0.48,2.344,0.936,4.8,1.256,6.704h0.056c0.32-2.024,0.856-4.304,1.4-6.736 l2.08-8.704h3.68l1.92,8.856c0.48,2.28,0.88,4.424,1.16,6.504h0.064c0.336-2.12,0.8-4.304,1.304-6.656l2-8.704h3.576l-5.176,19.24 h-3.76l-2-9.056c-0.496-2.184-0.824-4.016-1.056-6.104h-0.064c-0.336,2.056-0.704,3.92-1.28,6.104l-2.224,9.056 C241.52,80.484,237.72,80.484,237.72,80.484z"/> <path d="M262.776,80.484l-4.704-19.24h3.744l1.824,8.736c0.48,2.344,0.936,4.8,1.256,6.704h0.056c0.32-2.024,0.856-4.304,1.4-6.736 l2.08-8.704h3.68l1.92,8.856c0.48,2.28,0.88,4.424,1.16,6.504h0.064c0.336-2.12,0.8-4.304,1.304-6.656l2-8.704h3.576l-5.176,19.24 h-3.76l-2-9.056c-0.496-2.184-0.824-4.016-1.056-6.104h-0.064c-0.336,2.056-0.704,3.92-1.28,6.104l-2.224,9.056 C266.576,80.484,262.776,80.484,262.776,80.484z"/> <path d="M282.064,78.54c0-1.304,0.92-2.256,2.176-2.256c1.28,0,2.176,0.92,2.176,2.256c0,1.296-0.864,2.264-2.176,2.264 C282.96,80.804,282.064,79.828,282.064,78.54z"/> <polygon style="fill:#ff8000;" points="214.128,459.004 168.208,413.956 279.024,413.956 279.024,371.948 168.2,371.948 214.128,326.9 184.872,296.916 86.96,392.948 184.872,488.988 "/> <polygon points="297.856,187.708 343.776,232.756 232.952,232.756 232.952,274.772 343.776,274.772 297.856,319.812 327.104,349.796 425.024,253.764 327.104,157.732 "/> </g>
</svg>