<?xml version="1.0" encoding="iso-8859-1"?>
<!-- Uploaded to: SVG Repo, www.svgrepo.com, Generator: SVG Repo Mixer Tools -->
<svg height="800px" width="800px" version="1.1" id="Layer_1" xmlns="http://www.w3.org/2000/svg" xmlns:xlink="http://www.w3.org/1999/xlink" 
	 viewBox="0 0 512 512" xml:space="preserve">
<circle style="fill:#FF873D;" cx="255.92" cy="256" r="255.92"/>
<path style="fill:#E67733;" d="M512,275.856c-9.612,125.44-109.839,225.507-235.277,235.277L142.301,376.712
	C110.311,346.456,90.455,303.591,90.455,256c0-70.914,44.439-131.428,106.844-155.381l0.946-0.315
	c0.946-0.315,1.733-0.63,2.679-0.946l0.946-0.315h0.158c6.146-2.206,12.607-3.939,19.068-5.358l0,0l0.946-0.158
	c0.946-0.157,1.891-0.315,2.837-0.63l0.946-0.157c2.521-0.472,5.043-0.946,7.564-1.261l0,0l0,0
	c7.721-1.103,15.601-1.733,23.48-1.733h0.473h0.472h0.473h0.472h0.473l0,0h0.473l0,0h0.472h0.473h0.472l0,0h0.473h0.946h0.473h0.472
	h0.473l0,0h0.473l0,0h0.472h0.473l0,0h0.472l0,0h0.473l0,0h0.946h0.473l0,0h0.472h0.473h0.473h0.472h0.473l0,0h0.472h0.473h0.473
	l0,0h0.472l0,0h0.473h0.472h0.473l0,0l0.946,0.157l0,0h0.473l0,0h0.472h0.473l0,0h0.472h0.473h0.473h0.472h0.473l0,0h0.472h0.473
	h0.473h0.472h0.473h0.472h0.473l0,0h0.473h0.472h0.473l0.472,0.158l0.473,0.157l0,0l0.473,0.158l0,0l0.472,0.157l0.473,0.158l0,0
	l0.472,0.157l0.473,0.158l0,0l0.473,0.157l0,0l0.472,0.158l0,0l0,0l0.788,0.157h0.315l0,0h0.158l0,0l0,0l0,0l0,0l0,0l0,0l0,0l0,0
	l0,0l0,0l0,0l0,0l0,0l0,0l0,0l0,0l0,0l0,0l0,0l0,0l0,0l0,0l0,0l0,0l0,0l0,0l0,0l0,0l0,0l0,0l0,0l0,0l0,0l0,0l0,0l0,0l0,0l0,0l0,0
	l0,0l0,0l0,0l0,0l0,0l0,0l0,0l0,0l0,0l0,0l0,0l0,0l0,0l0,0l0,0l0,0l0,0l0,0l0,0l0,0l0,0l0,0l0,0l0,0l0,0l0,0l0,0l0,0l0,0l0,0l0,0
	l0,0l0,0l0,0l0,0l0,0l0,0l0,0l0,0l0,0l0,0l0,0l0,0l0,0l0,0l0,0l0,0l0,0l0,0h0.315l0.63,0.158l0,0l0,0l0,0l0,0l0,0l0,0l0,0l0,0l0,0
	l0,0l0,0l0,0l0,0l0,0l0,0l0,0h0.158l0,0l0,0l0,0l0,0l0,0l0,0l0,0l0,0l0,0l0,0l0,0l0,0l0,0l0,0l0,0l0,0l0,0l0,0h0.158l0,0h0.158l0,0
	l0,0l0,0l0,0l0,0l0,0l0,0l0,0l0,0l0,0l0,0l0,0l0,0l0,0l0,0h0.158l0,0l0,0l0,0l0,0l0,0l0,0h0.158l0,0l0,0l0,0l0,0l0,0l0,0l0,0l0,0
	l0,0l0,0l0,0l0,0l0,0l0,0l0,0l0,0l0,0l0,0l0,0l0.63,0.157l0,0l0,0l0,0l0,0l0,0l0,0l0,0l0,0l0,0l0,0l0,0l0,0l0,0l0,0l0,0l0,0l0,0l0,0
	l0,0l0,0l0,0l0,0l0,0l0,0l0,0l0,0l0,0l0,0l0,0l0,0l0,0l0,0l0,0l0,0l0,0l0,0l0,0l0,0l0,0l0,0l0,0l0,0l0,0l0,0l0,0l0,0l0,0l0,0l0,0
	l0,0l0,0l0,0l0,0l0,0l0,0l0,0l0,0l0,0l0,0l0,0l0,0l0,0l0,0l0,0l0,0l0,0l0,0l0,0l0,0l0,0l0,0l0,0l0,0l0,0l0,0l0,0l0,0l0,0l0,0l0,0
	l0,0l0,0l0,0l0,0l0,0l0,0l0,0l0,0l0,0l0,0l0,0l0,0l0,0l0,0l0,0l0,0l0.63,0.157l0,0l0,0l0,0l0,0l0,0l0,0l0,0l0,0l0,0l0,0l0,0l0,0l0,0
	l0,0l0,0l0,0l0,0l0,0l0,0l0,0l0,0l0,0l0,0l0,0l0,0l0,0l0,0l0,0l0,0l0,0l0,0l0,0l0,0l0,0l0,0l0,0l0,0l0,0l0,0l0,0l0,0l0,0l0,0l0,0
	l0,0l0,0l0,0l0,0l0,0l0,0l0,0l0,0l0,0l0,0l0,0l0,0l0,0l0,0l0,0l0,0l0,0l0,0l0,0l0,0l0,0l0,0l0,0l0,0l0,0l0,0l0,0l0,0l0,0l0,0l0,0
	l0,0l0,0l0,0l0,0l0,0l0,0l0,0l0,0l0,0l0,0l0,0l0,0l0,0l0,0l0,0l0,0l0,0l0,0l0,0l0,0l0,0l0,0l0,0l0,0l0,0l0,0l0,0l0,0l0,0l0,0l0,0
	l0,0l0,0l0,0l0,0l0,0l0,0l0,0l0,0l0,0l0,0l0,0l0,0l0,0l0,0l0,0l0,0l0.63,0.158l0,0l0,0l0,0l0,0l0,0l0,0l0,0l0,0l0,0l0,0l0,0l0,0l0,0
	l0,0l0,0l0,0l0,0l0,0l0,0l0,0l0,0l0,0l0,0l0,0l0,0l0,0l0,0l0,0l0,0l0,0l0,0l0,0l0,0l0,0l0,0l0,0l0,0l0,0l0,0l0,0l0,0l0,0l0,0l0,0
	l0,0l0,0l0,0l0,0l0,0l0,0l0,0l0,0l0,0l0,0l0,0l0,0l0,0l0,0l0,0l0,0l0,0l0,0l0,0l0,0l0,0l0,0l0,0l0,0l0,0l0,0l0,0l0,0l0,0l0,0l0,0
	l0,0l0,0l0,0l0,0l0,0l0,0l0.63,0.157l0,0l0.63,0.158l0,0l0,0l0,0l0,0l0,0l0,0l0,0l0,0l0,0l0,0l0,0l0,0l0,0l0,0l0,0l0,0l0,0l0,0l0,0
	l0,0l0,0l0,0l0,0l0,0l0,0l0,0l0,0l0,0l0,0l0,0l0,0l0,0l0,0l0,0l0,0l0,0l0,0l0,0l0,0l0,0l0,0l0,0l0,0l0,0l0,0l0,0l0,0l0,0l0,0l0,0
	l0,0l0,0l0,0l0,0l0,0l0,0l0,0l0,0l0,0l0,0l0,0l0,0l0,0l0,0l0,0l0,0l0,0l0,0l0,0l0,0l0,0l0,0l0,0l0,0l0,0l0,0l0,0l0,0l0,0l0,0l0,0
	l0,0l0,0l0,0l0,0l0,0l0,0l0,0l0,0l0,0l0,0l0,0l0,0l0,0l0,0l0,0l0,0l0,0l0,0l0,0l0,0l0,0l0,0l0,0l0.63,0.315l0,0h0.158l0,0l0,0l0,0
	l0,0l0,0l0,0l0,0l0,0l0,0l0,0l0,0l0,0h0.158l0,0l0,0l0,0l0,0l0,0l0,0l0,0l0,0l0,0l0,0l0,0l0,0l0,0l0,0l0,0l0,0l0,0l0,0l0,0l0,0l0,0
	l0,0l0,0l0,0l0,0l0,0l0,0l0,0l0,0l0,0l0,0l0,0l0,0l0,0l0,0l0,0l0,0l0,0l0,0l0,0l0,0l0,0l0,0l0,0l0,0l0,0l0,0l0,0l0,0l0,0l0,0l0,0
	l0,0l0,0l0,0l0,0l0,0l0,0l0,0l0,0l0,0l0,0l0,0l0,0l0,0l0,0l0,0l0,0l0,0l0,0l0,0l0,0l0,0l0,0l0,0l0,0l0.63,0.315l0,0l0.158,0.157l0,0
	l0,0l0,0l0,0l0,0l0,0l0,0l0,0l0,0l0,0h0.157l0,0l0,0l0,0l0,0l0,0h0.158l0,0l0,0l0,0l0,0l0,0l0,0l0,0l0,0l0,0l0,0l0,0l0,0l0,0l0,0
	l0,0l0,0l0,0l0,0l0,0l0,0l0,0l0,0l0,0l0,0l0,0l0,0l0,0l0,0l0,0l0,0l0,0l0,0l0,0l0,0l0,0l0,0l0,0l0,0l0,0l0,0l0,0l0,0l0,0l0,0l0,0
	l0,0l0,0l0,0l0,0l0,0l0,0l0,0l0,0l0,0l0,0l0,0l0,0l0,0l0,0l0,0l0,0l0,0l0,0l0,0l0,0l0,0l0,0l0,0l0.315,0.158l0,0l0.63,0.315l0,0l0,0
	l0,0l0,0l0,0l0,0l0,0l0,0l0,0l0,0l0,0l0,0l0,0l0,0l0,0l0,0l0,0l0,0l0,0l0,0l0,0l0,0l0,0l0,0l0,0l0,0l0,0l0,0l0,0l0,0l0,0l0,0l0,0
	l0,0l0,0l0,0l0,0l0,0l0,0l0,0l0,0l0,0l0,0l0,0l0,0l0,0l0,0l0,0l0,0l0,0l0,0l0,0l0,0l0,0l0,0l0,0l0,0l0,0l0,0l0,0l0,0l0,0l0,0l0,0
	l0,0l0,0l0,0l0,0l0,0l0,0l0,0l0,0l0,0l0,0l0,0l0,0l0,0l0,0l0.63,0.315l0.63,0.315l0,0l0,0l0,0l0,0l0,0l0,0l0,0l0,0l0,0l0,0l0,0l0,0
	l0,0l0,0l0,0l0,0l0,0l0,0l0,0l0,0l0,0l0,0l0,0l0,0l0,0l0,0l0,0l0,0l0,0l0,0l0,0l0,0l0,0l0,0l0,0l0,0l0,0l0,0l0,0l0,0l0,0l0,0l0,0
	l0,0l0,0l0,0l0,0l0,0l0,0l0,0l0,0l0,0l0,0l0,0l0,0l0,0l0,0l0,0l0,0l0,0l0,0l0,0l0,0l0,0l0,0l0,0l0,0l0,0l0,0l0,0l0,0l0,0l0,0l0,0
	l0,0l0,0l0,0l0,0l0,0l0,0l0,0h0.158l0,0l0.63,0.315l0,0l0,0l0,0l0,0l0,0l0,0l0,0l0,0l0,0l0,0l0,0l0,0l0,0l0,0l0,0l0,0l0,0l0,0l0,0
	l0,0l0,0l0,0l0,0l0,0l0,0l0,0l0,0l0,0l0,0l0,0l0,0l0,0l0,0l0,0l0,0l0,0l0,0l0,0l0,0l0,0l0,0l0,0l0,0l0,0l0,0l0,0l0,0l0,0l0,0l0,0
	l0,0l0,0l0,0l0,0l0,0l0,0l0,0l0,0l0,0l0,0l0,0l0,0l0,0l0,0l0,0l0,0l0,0l0,0l0,0l0,0l0,0l0,0l0,0l0,0l0,0l0,0l0,0l0,0l0,0l0,0l0,0
	l0.63,0.315l0,0c0.787,0.472,1.733,0.787,2.521,1.261l0,0c0.787,0.472,1.733,0.946,2.521,1.418l0,0
	c0.787,0.472,1.733,0.946,2.521,1.418l0,0c0.787,0.472,1.576,0.946,2.521,1.418l0,0c0.787,0.472,1.576,0.946,2.363,1.418l0,0
	c0.787,0.472,1.576,0.946,2.363,1.576l0,0c0.787,0.472,1.576,0.946,2.363,1.576l0,0c0.787,0.472,1.576,1.103,2.363,1.576l0,0
	c0.788,0.472,1.576,1.103,2.363,1.576l0,0c0.788,0.472,1.576,1.103,2.363,1.733l0,0c0.788,0.63,1.576,1.103,2.206,1.733l0,0
	c0.787,0.63,1.418,1.103,2.206,1.733l0,0c0.787,0.63,1.418,1.103,2.206,1.733l0,0c0.787,0.63,1.418,1.261,2.206,1.733l0,0
	c0.787,0.63,1.418,1.261,2.206,1.891l0,0c0.787,0.63,1.418,1.261,2.048,1.891l0,0c0.63,0.63,1.418,1.261,2.048,1.891l0,0
	c0.63,0.63,1.418,1.261,2.048,1.891s1.418,1.261,2.048,2.048l0,0c0.63,0.63,1.261,1.418,2.048,2.048l0,0l0.788,0.787l0,0
	l134.422,134.422L512,275.856z"/>
<path style="fill:#FFFFFF;" d="M330.458,106.921l-0.63-0.315c-1.104-0.63-2.048-1.104-3.152-1.576l-0.63-0.315h-0.158
	c-0.787-0.315-1.575-0.787-2.363-1.103l-0.63-0.315l-0.63-0.315c-0.788-0.315-1.733-0.787-2.521-1.103l-0.63-0.315l-0.315-0.158
	c-0.946-0.315-2.048-0.787-2.994-1.103l-0.63-0.315c-1.104-0.315-2.049-0.787-3.152-1.103h-0.158l-0.63-0.315
	c-0.946-0.315-1.733-0.63-2.679-0.946l-0.63-0.157l-0.63-0.158c-0.787-0.157-1.733-0.472-2.679-0.787l-0.63-0.158
	c-1.104-0.315-2.364-0.63-3.467-0.946l-0.63-0.158c-1.104-0.315-2.364-0.63-3.467-0.946l-0.63-0.157
	c-0.945-0.158-1.891-0.472-2.837-0.63l-0.63-0.157h-0.315c-1.103-0.158-2.206-0.473-3.309-0.63l-0.787-0.158
	c-10.085-2.048-20.486-2.994-31.202-2.994V89.43c-7.88,0-15.759,0.63-23.48,1.733c-2.521,0.315-5.043,0.788-7.564,1.261
	l-0.945,0.157c-0.946,0.315-1.891,0.473-2.837,0.63l-0.946,0.158c-6.461,1.419-12.922,3.152-19.068,5.358h-0.158l-0.946,0.315
	c-0.946,0.315-1.733,0.63-2.679,0.945l-0.946,0.315C134.739,124.255,90.3,184.768,90.3,255.683s44.282,131.427,106.844,155.381
	l0.946,0.315c0.946,0.315,1.733,0.63,2.679,0.945l0.946,0.315h0.158c6.304,2.049,12.607,3.94,19.068,5.358l0.946,0.158
	c0.946,0.315,1.891,0.473,2.837,0.63l0.945,0.158c2.521,0.473,5.043,0.946,7.564,1.261c7.721,1.103,15.444,1.733,23.48,1.733
	c10.715,0,21.116-1.103,31.202-2.994l0.787-0.158c1.103-0.157,2.206-0.472,3.309-0.63h0.315l0.63-0.158
	c0.945-0.158,1.891-0.472,2.837-0.63l0.63-0.158c1.104-0.315,2.364-0.63,3.467-0.946l0.63-0.158c1.104-0.315,2.364-0.63,3.467-0.946
	l0.63-0.158c0.787-0.158,1.733-0.473,2.679-0.788l0.63-0.157l0.63-0.158c0.946-0.315,1.733-0.63,2.679-0.946l0.63-0.315h0.158
	c1.104-0.315,2.049-0.63,3.152-1.103l0.63-0.315c0.946-0.315,2.048-0.63,2.994-1.103l0.315-0.158l0.63-0.315
	c0.788-0.314,1.734-0.787,2.521-1.103l0.63-0.315l0.63-0.315c0.787-0.315,1.576-0.787,2.363-1.103h0.158l0.63-0.315
	c1.104-0.63,2.049-1.103,3.152-1.576l0.63-0.315c54.525-27.263,92.031-83.679,92.031-148.762
	C422.489,190.6,384.984,134.184,330.458,106.921z M382.149,175.001c13.395,20.644,21.905,44.913,23.638,70.914h-29.941
	c-1.42-22.536-7.25-43.967-16.706-63.193C367.02,180.359,374.742,177.837,382.149,175.001z M370.172,158.927
	c-6.776,2.363-13.868,4.413-21.117,6.304c-14.813-22.693-34.984-41.446-58.622-54.682
	C321.951,117.796,349.685,135.131,370.172,158.927z M300.046,194.698c14.498-1.733,28.68-4.254,42.233-7.406
	c9.297,17.807,14.971,37.664,16.389,58.622H304.93C304.458,228.264,302.883,211.245,300.046,194.698z M304.931,266.4h53.895
	c-1.261,18.281-5.83,35.615-13.079,51.531c-14.34-3.624-29.154-6.304-44.439-8.195C303.355,295.712,304.616,281.213,304.931,266.4z
	 M331.406,169.485l-0.158-0.157c-11.346,2.363-23.165,4.254-35.142,5.515c-3.939-17.807-9.297-34.512-15.601-50.271
	C300.676,135.445,318.168,150.889,331.406,169.485z M280.033,196.432v0.157c2.521,15.917,4.097,32.305,4.57,49.325h-51.531
	c0.472-16.862,2.048-33.251,4.57-49.167c6.146,0.314,12.449,0.472,18.753,0.472C264.431,197.219,272.31,196.904,280.033,196.432
	L280.033,196.432z M217.627,195.171c-2.679,16.389-4.254,33.251-4.728,50.586h-42.548c1.419-19.856,6.462-38.452,14.813-55.471
	C195.723,192.335,206.597,193.911,217.627,195.171z M195.723,171.849c10.243-14.971,23.008-27.893,37.821-38.294h0.158
	c-4.885,13.238-8.982,27.105-12.292,41.603C212.742,174.37,204.074,173.267,195.723,171.849z M212.9,266.243
	c0.315,14.655,1.576,28.996,3.624,42.863c-11.819,1.261-23.323,2.994-34.669,5.358c-6.304-14.971-10.401-31.202-11.504-48.221H212.9
	z M219.834,328.964c3.467,17.335,8.195,33.881,13.868,49.325c-17.178-11.978-31.676-27.422-42.391-45.386
	C200.608,331.327,210.222,329.909,219.834,328.964z M233.071,266.243h51.373c-0.473,14.182-1.576,28.05-3.467,41.603
	c-8.195-0.472-16.389-0.787-24.741-0.787c-6.619,0-13.238,0.157-19.856,0.472C234.647,294.136,233.386,280.268,233.071,266.243z
	 M258.916,121.422c7.249,17.019,13.08,35.456,17.335,54.997c-6.619,0.315-13.238,0.472-19.856,0.472
	c-4.977,0-9.953-0.153-14.779-0.309c-0.011,0.051-0.024,0.101-0.035,0.152l-0.157-0.158c0.063,0.002,0.128,0.004,0.192,0.006
	C245.868,156.942,251.685,138.555,258.916,121.422z M233.229,108.341c2.206,0.315,4.413,0.787,6.619,1.261
	c-25.519,13.862-46.943,34.18-62.228,58.75c0.045,0.009,0.089,0.02,0.134,0.029h0.004v0.001c-0.001,0-0.003-0.001-0.004-0.001
	h-0.153c0.006-0.01,0.013-0.019,0.019-0.029c-11.927-2.518-23.385-5.814-34.374-9.425
	C165.782,132.452,197.457,114.014,233.229,108.341z M131.27,175.001c11.662,4.413,23.954,8.352,36.718,11.504
	c-8.352,18.28-13.553,38.136-14.813,59.253H107.79C109.523,219.755,117.875,195.645,131.27,175.001z M127.488,330.539
	c-11.031-19.226-17.965-40.972-19.541-64.296h45.385c1.103,18.28,5.2,35.93,11.819,52.162h-0.157
	C151.914,321.714,139.306,325.811,127.488,330.539z M233.386,403.501c-38.609-6.145-72.332-26.947-95.025-56.731h-0.157
	c11.346-3.939,23.165-7.406,35.457-10.243c15.286,27.735,38.451,50.586,66.344,65.714
	C237.799,402.713,235.592,403.028,233.386,403.501z M258.916,390.894c-8.195-19.383-14.655-40.657-19.068-63.035v-0.157
	c5.515-0.315,11.031-0.315,16.546-0.315c7.249,0,14.34,0.158,21.432,0.63C273.414,350.395,266.953,371.511,258.916,390.894z
	 M280.505,387.585c7.249-17.965,13.238-37.505,17.335-57.992c13.079,1.418,25.845,3.467,38.136,6.304
	C322.266,357.486,303.04,375.451,280.505,387.585z M290.434,401.611c26.001-14.498,47.748-35.772,62.877-61.459
	c7.406,2.048,14.813,4.413,21.905,6.934C354.413,374.033,324.787,393.732,290.434,401.611z M386.088,330.855L386.088,330.855
	c-7.721-2.995-15.601-5.831-23.638-8.353c7.564-17.335,12.292-36.403,13.553-56.258h29.941c-1.576,23.48-8.51,45.385-19.698,64.611
	H386.088z"/>
<path style="fill:#00CC96;" d="M158.06,265.14h2.363c0.787-3.152,3.939-8.667,5.515-11.662l17.65-36.088
	c8.037-16.074,15.601-31.99,23.638-47.906c9.14-18.438,10.873-36.403,0-55.155c-8.667-14.813-26.475-27.263-44.282-27.263
	c-13.395,0-22.535,1.261-33.408,8.51c-7.406,4.885-12.764,10.243-17.492,18.28c-11.346,18.753-9.771,36.875-0.315,55.786
	c1.418,2.679,45.858,92.03,46.646,95.656L158.06,265.14z"/>
<path style="fill:#07B587;" d="M158.532,265.14h1.733c0.787-3.152,3.939-8.667,5.515-11.662l17.65-36.088
	c8.037-16.074,15.601-31.99,23.638-48.064c9.14-18.438,10.873-36.403,0-55.155c-8.667-14.813-26.475-27.263-44.282-27.263
	c-1.418,0-2.679,0-4.097,0c0,68.393,0,60.671,0,178.231L158.532,265.14L158.532,265.14z"/>
<circle style="fill:#F7F7F8;" cx="159.16" cy="138.91" r="33.09"/>
<path style="fill:#CCCCCC;" d="M158.532,105.662v66.187h0.472c18.28,0,33.093-14.813,33.093-33.093s-14.813-33.093-33.093-33.093
	L158.532,105.662L158.532,105.662z"/>
<path style="fill:#006775;" d="M159.163,126.778c6.619,0,12.134,5.358,12.134,12.134c0,6.619-5.358,12.134-12.134,12.134
	c-6.619,0-12.134-5.358-12.134-12.134C147.029,132.294,152.387,126.778,159.163,126.778z"/>
<path style="fill:#055661;" d="M158.532,126.778v24.111h0.472c6.619,0,12.134-5.358,12.134-12.134
	c0-6.619-5.358-12.134-12.134-12.134h-0.472V126.778z"/>
</svg>