<!DOCTYPE svg PUBLIC "-//W3C//DTD SVG 1.1//EN" "http://www.w3.org/Graphics/SVG/1.1/DTD/svg11.dtd">
<!-- Uploaded to: SVG Repo, www.svgrepo.com, Transformed by: SVG Repo Mixer Tools -->
<svg version="1.1" id="Layer_1" xmlns="http://www.w3.org/2000/svg" xmlns:xlink="http://www.w3.org/1999/xlink" viewBox="-128 -128 768.00 768.00" xml:space="preserve" width="800px" height="800px" fill="#000000">
<g id="SVGRepo_bgCarrier" stroke-width="0">
<rect x="-128" y="-128" width="768.00" height="768.00" rx="384" fill="#FF9900" strokewidth="0"/>
</g>
<g id="SVGRepo_tracerCarrier" stroke-linecap="round" stroke-linejoin="round"/>
<g id="SVGRepo_iconCarrier"> <path style="fill:#E9EDF1;" d="M451.952,468.32H60.048C27.024,468.32,0,441.296,0,408.272V103.728 C0,70.704,27.024,43.68,60.048,43.68h391.896c33.032,0,60.056,27.024,60.056,60.048v304.544 C512,441.296,484.976,468.32,451.952,468.32z"/> <path d="M512,138.184v-34.456c0-33.032-27.024-60.048-60.048-60.048H60.048C27.024,43.68,0,70.704,0,103.728v34.456L512,138.184 L512,138.184z"/> <circle style="fill:#E9EDF1;" cx="58.4" cy="90.928" r="13.424"/> <circle style="fill:#FF9900;" cx="96.64" cy="90.928" r="13.424"/> <circle style="fill:#30D1E2;" cx="134.904" cy="90.928" r="13.424"/> <g> <rect x="429.392" y="87.168" style="fill:#FFFFFF;" width="30.416" height="6.824"/> <polygon style="fill:#FFFFFF;" points="450.872,111.088 445.728,106.608 459.376,90.928 445.728,75.256 450.872,70.776 468.448,90.928 "/> <path style="fill:#FFFFFF;" d="M379.264,112.296H208.336c-11.752,0-21.368-9.616-21.368-21.368l0,0 c0-11.752,9.616-21.368,21.368-21.368h170.928c11.752,0,21.368,9.616,21.368,21.368l0,0 C400.632,102.68,391.016,112.296,379.264,112.296z"/> </g> <path d="M212.656,101.152l-4.704-19.24h3.744l1.824,8.736c0.48,2.344,0.936,4.8,1.256,6.704h0.056c0.32-2.024,0.856-4.304,1.4-6.736 l2.08-8.704h3.68l1.92,8.856c0.48,2.28,0.88,4.424,1.16,6.504h0.064c0.336-2.12,0.8-4.304,1.304-6.656l2-8.704h3.576l-5.176,19.24 h-3.76l-2-9.056c-0.496-2.184-0.824-4.016-1.056-6.104h-0.064c-0.336,2.056-0.704,3.92-1.28,6.104l-2.224,9.056 C216.456,101.152,212.656,101.152,212.656,101.152z"/> <path d="M237.712,101.152l-4.704-19.24h3.744l1.824,8.736c0.48,2.344,0.936,4.8,1.256,6.704h0.056c0.32-2.024,0.856-4.304,1.4-6.736 l2.08-8.704h3.68l1.92,8.856c0.48,2.28,0.88,4.424,1.16,6.504h0.064c0.336-2.12,0.8-4.304,1.304-6.656l2-8.704h3.576l-5.176,19.24 h-3.76l-2-9.056c-0.496-2.184-0.824-4.016-1.056-6.104h-0.064c-0.336,2.056-0.704,3.92-1.28,6.104l-2.224,9.056 C241.512,101.152,237.712,101.152,237.712,101.152z"/> <path d="M262.768,101.152l-4.704-19.24h3.744l1.824,8.736c0.48,2.344,0.936,4.8,1.256,6.704h0.056c0.32-2.024,0.856-4.304,1.4-6.736 l2.08-8.704h3.68l1.92,8.856c0.48,2.28,0.88,4.424,1.16,6.504h0.064c0.336-2.12,0.8-4.304,1.304-6.656l2-8.704h3.576l-5.176,19.24 h-3.76l-2-9.056c-0.496-2.184-0.824-4.016-1.056-6.104h-0.064c-0.336,2.056-0.704,3.92-1.28,6.104l-2.224,9.056 C266.568,101.152,262.768,101.152,262.768,101.152z"/> <path d="M282.064,99.208c0-1.304,0.92-2.256,2.176-2.256c1.28,0,2.176,0.92,2.176,2.256c0,1.296-0.864,2.264-2.176,2.264 C282.96,101.472,282.064,100.504,282.064,99.208z"/> <path d="M80.36,260.824l11.104,42.696c2.424,9.376,4.68,18.056,6.24,26.736h0.52c1.904-8.512,4.696-17.536,7.472-26.568 l13.704-42.872h12.84l13.032,42c3.12,10.064,5.544,18.92,7.448,27.432h0.52c1.384-8.512,3.656-17.36,6.432-27.256l11.976-42.176 h15.096l-27.064,84.008H145.8l-12.856-40.096c-2.944-9.36-5.368-17.696-7.448-27.584h-0.344c-2.08,10.064-4.696,18.752-7.64,27.76 l-13.536,39.928H90.08l-25.352-84.008H80.36z"/> <path d="M210.112,260.824l11.104,42.696c2.424,9.376,4.68,18.056,6.24,26.736h0.52c1.904-8.512,4.696-17.536,7.472-26.568 l13.704-42.872h12.84l13.032,42c3.12,10.064,5.544,18.92,7.448,27.432h0.52c1.384-8.512,3.656-17.36,6.432-27.256l11.976-42.176 h15.096l-27.064,84.008h-13.88l-12.856-40.096c-2.944-9.36-5.368-17.696-7.448-27.584h-0.344c-2.08,10.064-4.696,18.752-7.64,27.76 l-13.536,39.928h-13.88l-25.368-84.008H210.112z"/> <path d="M339.88,260.824l11.104,42.696c2.424,9.376,4.68,18.056,6.24,26.736h0.52c1.904-8.512,4.696-17.536,7.472-26.568 l13.704-42.872h12.84l13.032,42c3.12,10.064,5.544,18.92,7.448,27.432h0.52c1.384-8.512,3.656-17.36,6.432-27.256l11.976-42.176 h15.096L419.2,344.824h-13.88l-12.856-40.096c-2.944-9.36-5.368-17.696-7.448-27.584h-0.344c-2.08,10.064-4.696,18.752-7.64,27.76 l-13.536,39.928H349.6l-25.352-84.008H339.88z"/> </g>
</svg>