<?xml version="1.0" encoding="iso-8859-1"?>
<!-- Uploaded to: SVG Repo, www.svgrepo.com, Generator: SVG Repo Mixer Tools -->
<svg fill="currentColor" height="800px" width="800px" version="1.1" id="Layer_1" xmlns="http://www.w3.org/2000/svg" xmlns:xlink="http://www.w3.org/1999/xlink"
	 viewBox="0 0 491.52 491.52" xml:space="preserve">
<g>
	<g>
		<polygon points="153.14,201.91 138.55,251.55 130.6,226.3 111.06,226.31 103.12,251.55 88.52,201.91 68.88,207.69 92.96,289.61
			112.55,289.79 120.83,263.47 129.12,289.8 148.71,289.61 172.78,207.69 		"/>
	</g>
</g>
<g>
	<g>
		<polygon points="278.07,201.91 263.48,251.55 255.53,226.3 235.99,226.3 228.04,251.55 213.45,201.91 193.81,207.69
			217.88,289.61 237.47,289.8 245.76,263.47 254.05,289.8 273.64,289.61 297.71,207.69 		"/>
	</g>
</g>
<g>
	<g>
		<polygon points="403,201.91 388.4,251.55 380.46,226.31 360.92,226.3 352.97,251.55 338.38,201.91 318.74,207.69 342.81,289.61
			362.4,289.8 370.69,263.47 378.97,289.79 398.56,289.61 422.64,207.69 		"/>
	</g>
</g>
<g>
	<g>
		<path d="M480.74,174.08c-11.489-37.614-31.94-72.208-59.66-100.34C374.56,26.19,312.3,0,245.76,0S116.96,26.19,70.47,73.71
			c-27.748,28.161-48.201,62.756-59.689,100.37H0v143.36h10.778c11.489,37.609,31.94,72.206,59.662,100.35
			c46.51,47.55,108.77,73.73,175.32,73.73s128.81-26.18,175.3-73.7c27.741-28.172,48.194-62.771,59.682-100.38h10.778V174.08H480.74
			z M459.331,174.08h-83.636c-2.541-15.273-5.831-29.857-9.85-43.6c17.01-9.584,32.962-21.249,47.526-34.917
			C433.883,118.367,449.59,145.125,459.331,174.08z M398.709,80.9c-12.172,11.35-25.343,21.214-39.386,29.474
			c-12.244-33.612-28.878-61.135-48.291-80.286C343.521,39.886,373.311,57.218,398.709,80.9z M256,21.432
			c34.748,6.134,65.946,43.124,85.198,98.484c-26.462,12.434-55.247,19.556-85.198,20.89V21.432z M256,161.538
			c32.03-1.301,62.892-8.719,91.323-21.659c2.994,10.865,5.546,22.282,7.623,34.201H256V161.538z M235.52,21.432v119.374
			c-29.951-1.334-58.736-8.456-85.198-20.89C169.574,64.556,200.773,27.566,235.52,21.432z M235.52,161.538v12.542h-98.946
			c2.078-11.918,4.629-23.336,7.623-34.201C172.628,152.819,203.49,160.237,235.52,161.538z M180.491,30.086
			c-19.414,19.151-36.048,46.674-48.293,80.288c-14.043-8.261-27.215-18.124-39.387-29.474
			C118.199,57.22,147.992,39.885,180.491,30.086z M78.151,95.564c14.563,13.667,30.514,25.332,47.524,34.916
			c-4.019,13.743-7.309,28.327-9.85,43.6H32.189C41.926,145.134,57.629,118.383,78.151,95.564z M32.187,317.44h83.638
			c2.541,15.273,5.831,29.857,9.85,43.6c-17.01,9.584-32.963,21.249-47.526,34.917C57.632,373.145,41.927,346.389,32.187,317.44z
			 M92.811,410.62c12.172-11.35,25.344-21.214,39.387-29.474c12.246,33.612,28.879,61.139,48.292,80.289
			C147.997,451.637,118.208,434.303,92.811,410.62z M235.52,470.088c-34.747-6.134-65.946-43.124-85.198-98.484
			c26.462-12.434,55.247-19.556,85.198-20.89V470.088z M235.52,329.982c-32.03,1.301-62.892,8.719-91.323,21.659
			c-2.994-10.865-5.546-22.282-7.623-34.201h98.946V329.982z M256,470.088V350.714c29.951,1.334,58.736,8.456,85.198,20.89
			C321.946,426.964,290.747,463.954,256,470.088z M256,329.982V317.44h98.946c-2.077,11.918-4.629,23.336-7.623,34.201
			C318.892,338.701,288.03,331.283,256,329.982z M311.028,461.436c19.415-19.151,36.049-46.676,48.295-80.29
			c14.045,8.261,27.218,18.126,39.392,29.479C373.324,434.303,343.529,451.638,311.028,461.436z M413.373,395.96
			c-14.564-13.669-30.517-25.336-47.528-34.92c4.019-13.743,7.309-28.327,9.85-43.6h83.638
			C449.596,346.381,433.894,373.133,413.373,395.96z M471.04,296.96H20.48v-102.4h450.56V296.96z"/>
	</g>
</g>
</svg>
