<?xml version="1.0" encoding="iso-8859-1"?>
<!-- Uploaded to: SVG Repo, www.svgrepo.com, Generator: SVG Repo Mixer Tools -->
<svg fill="#000000" version="1.1" id="Layer_1" xmlns="http://www.w3.org/2000/svg" xmlns:xlink="http://www.w3.org/1999/xlink" 
	 viewBox="0 0 512 512" xml:space="preserve">
<g>
	<g>
		<path d="M0,60.046v391.908h512V60.046H0z M496.378,100.306H127.903v15.622h368.476v320.406H15.622v-0.001V75.668h480.757V100.306z
			"/>
	</g>
</g>
<g>
	<g>
		<rect x="32.092" y="100.301" width="15.622" height="15.622"/>
	</g>
</g>
<g>
	<g>
		<rect x="63.334" y="100.301" width="16.663" height="15.622"/>
	</g>
</g>
<g>
	<g>
		<rect x="95.614" y="100.301" width="16.663" height="15.622"/>
	</g>
</g>
<g>
	<g>
		<path d="M40.031,140.106v271.818h111.695V140.106H40.031z M136.104,396.303H55.652V266.659
			c10.168,10.57,24.437,17.167,40.227,17.167c15.789,0,30.058-6.596,40.225-17.167V396.303z M95.879,268.204
			c-22.182,0-40.227-18.045-40.227-40.225c0-22.181,18.045-40.225,40.227-40.225c22.181,0,40.225,18.045,40.225,40.225
			C136.104,250.159,118.059,268.204,95.879,268.204z M136.104,189.298c-10.168-10.57-24.436-17.166-40.225-17.166
			s-30.059,6.598-40.227,17.167v-33.57h80.452V189.298z"/>
	</g>
</g>
<g>
	<g>
		<polygon points="176.134,140.106 176.134,267.814 368.085,267.814 368.085,252.192 191.755,252.192 191.755,155.728 
			400.305,155.728 400.305,219.972 415.927,219.972 415.927,140.106 		"/>
	</g>
</g>
<g>
	<g>
		<rect x="175.805" y="291.925" width="184.334" height="15.622"/>
	</g>
</g>
<g>
	<g>
		<rect x="175.805" y="324.209" width="23.953" height="15.622"/>
	</g>
</g>
<g>
	<g>
		<rect x="175.805" y="348.162" width="80.191" height="15.622"/>
	</g>
</g>
<g>
	<g>
		<rect x="271.617" y="348.162" width="40.616" height="15.622"/>
	</g>
</g>
<g>
	<g>
		<rect x="327.854" y="348.162" width="80.191" height="15.622"/>
	</g>
</g>
<g>
	<g>
		<rect x="175.805" y="372.115" width="119.765" height="15.622"/>
	</g>
</g>
<g>
	<g>
		<rect x="175.805" y="396.068" width="176.003" height="15.622"/>
	</g>
</g>
<g>
	<g>
		<path d="M461.744,262.405l-66.103-39.663c-7.122-4.272-16.195-3.157-22.069,2.717c-5.872,5.872-6.988,14.947-2.716,22.067
			l39.664,66.105c2.949,4.917,8.134,7.85,13.866,7.85s10.916-2.935,13.866-7.85l0.719-1.198l2.037-10.794
			c0.844-4.47,4.275-7.902,8.746-8.746l10.796-2.037l1.198-0.719c4.916-2.949,7.85-8.134,7.85-13.867
			C469.596,270.539,466.661,265.355,461.744,262.405z M446.857,277.543c-10.836,2.043-19.157,10.365-21.202,21.201l-1.342,7.115
			c-0.255-0.023-0.344-0.172-0.399-0.263l-39.663-66.104c-0.579-0.963-0.427-2.191,0.367-2.985c0.472-0.472,1.097-0.717,1.728-0.717
			c0.432,0,0.866,0.115,1.258,0.349l66.104,39.663c0.093,0.055,0.242,0.144,0.265,0.4L446.857,277.543z"/>
	</g>
</g>
<g>
	<g>
		<rect x="71.665" y="363.784" width="47.906" height="15.622"/>
	</g>
</g>
<g>
	<g>
		<rect x="71.665" y="300.256" width="47.906" height="15.622"/>
	</g>
</g>
<g>
	<g>
		<rect x="71.665" y="332.541" width="47.906" height="15.622"/>
	</g>
</g>
</svg>