<?xml version="1.0" encoding="iso-8859-1"?>
<!-- Uploaded to: SVG Repo, www.svgrepo.com, Generator: SVG Repo Mixer Tools -->
<svg version="1.1" id="Layer_1" xmlns="http://www.w3.org/2000/svg" xmlns:xlink="http://www.w3.org/1999/xlink" 
	 viewBox="0 0 505 505" xml:space="preserve">
<circle style="fill:#54C0EB;" cx="252.5" cy="252.5" r="252.5"/>
<path style="fill:#324A5E;" d="M426.7,176.3v-30.9c0-12.5-10.1-22.6-22.6-22.6H101.7c-12.9,0-23.3,10.4-23.3,23.3v30.1h348.3V176.3z
	"/>
<path style="fill:#FFFFFF;" d="M426.7,169.8v189.8c0,12.5-10.1,22.6-22.6,22.6H100.9c-12.5,0-22.6-10.1-22.6-22.6V169.8h117.8
	l11.4-17h62.9l11.3,17H426.7z"/>
<polygon style="fill:#ACB3BA;" points="110.6,169.8 196.1,169.8 184.8,152.8 121.9,152.8 "/>
<circle style="fill:#FF7058;" cx="394.4" cy="147.7" r="10.1"/>
<circle style="fill:#CED5E0;" cx="355.6" cy="147.7" r="10.1"/>
<rect x="110.6" y="195.5" style="fill:#4CDBC4;" width="283.9" height="75.3"/>
<rect x="110.6" y="292.6" style="fill:#324A5E;" width="89.7" height="59.2"/>
<rect x="224.8" y="292.6" style="fill:#84DBFF;" width="82.4" height="59.2"/>
<rect x="332.3" y="292.6" style="fill:#FF7058;" width="62.1" height="59.2"/>
</svg>