<?xml version="1.0" encoding="iso-8859-1"?>
<!-- Uploaded to: SVG Repo, www.svgrepo.com, Generator: SVG Repo Mixer Tools -->
<svg height="800px" width="800px" version="1.1" id="Layer_1" xmlns="http://www.w3.org/2000/svg" xmlns:xlink="http://www.w3.org/1999/xlink" 
	 viewBox="0 0 505 505" xml:space="preserve">
<path style="fill:#FFD05B;" d="M505,252.5c0,70.2-28.6,133.7-74.9,179.4C384.5,477.1,321.7,505,252.5,505s-132-27.9-177.6-73
	C28.6,386.2,0,322.7,0,252.5C0,113.1,113,0,252.5,0C391.9,0,505,113.1,505,252.5z"/>
<path style="fill:#324A5E;" d="M426.7,171v-25.6c0-12.5-10.1-22.5-22.5-22.5H100.9c-12.5,0-22.5,10.1-22.5,22.5V171H426.7z"/>
<path style="fill:#FFFFFF;" d="M426.7,169.8v189.8c0,12.5-10.1,22.6-22.6,22.6H100.9c-12.5,0-22.6-10.1-22.6-22.6V169.8h117.8
	l11.4-17h62.9l11.3,17H426.7z"/>
<polygon style="fill:#84DBFF;" points="110.6,169.8 196.1,169.8 184.8,152.8 121.9,152.8 "/>
<circle style="fill:#FF7058;" cx="394.4" cy="147.7" r="10.1"/>
<circle style="fill:#84DBFF;" cx="355.6" cy="147.7" r="10.1"/>
<path style="fill:#FF7058;" d="M256.7,279.9h-20v65.3c0,1.7-1.3,3-3,3h-27.9v-46h-37.5v46h-27.9c-1.7,0-3-1.3-3-3v-65.3h-20
	c-2.7,0-4.1-3.2-2.2-5.2l69.7-69.6c1.2-1.2,3.1-1.2,4.3,0l69.7,69.6C260.7,276.6,259.4,279.9,256.7,279.9z"/>
<path style="fill:#84DBFF;" d="M345.3,249.5l-11.5,4.2l2.3,10.9c-3.1,2-5.9,4.5-8.2,7.5l-10.7-3.3l-5.2,11.1l9.4,6.1
	c-0.8,3.7-0.9,7.4-0.5,11.1l-9.9,5.2l4.2,11.5l10.9-2.3c2,3.1,4.5,5.9,7.5,8.2l-3.3,10.7l11.1,5.2l6.1-9.4c3.7,0.8,7.4,0.9,11.1,0.5
	l5.2,9.9l11.5-4.2l-2.3-10.9c3.1-2,5.9-4.5,8.2-7.5l10.7,3.3l5.2-11.1l-9.4-6.1c0.8-3.7,0.9-7.4,0.5-11.1l9.9-5.2l-4.2-11.5
	l-10.9,2.3c-2-3.1-4.5-5.9-7.5-8.2l3.3-10.7l-11.1-5.2l-6.1,9.4c-3.7-0.8-7.4-0.9-11.1-0.5L345.3,249.5z M363.3,274.4
	c10.3,4.8,14.7,17,9.9,27.3c-4.8,10.3-17,14.7-27.3,9.9c-10.3-4.8-14.7-17-9.9-27.3C340.8,274,353,269.6,363.3,274.4z"/>
<path style="fill:#4CDBC4;" d="M291.5,212.7c-2.5,0.6-4.9,1.7-7.1,3.1l-6.3-4.5l-5.9,6.2l4.8,6.1c-1.3,2.3-2.3,4.7-2.8,7.2l-7.7,1.3
	l0.2,8.5l7.7,0.9c0.6,2.5,1.7,4.8,3.1,7l-4.5,6.3l6.2,5.8l6.1-4.8c2.3,1.3,4.7,2.2,7.2,2.7l1.3,7.7l8.5-0.2l0.9-7.7
	c2.5-0.6,4.9-1.7,7.1-3.1l6.3,4.5l5.9-6.2l-4.8-6.1c1.3-2.3,2.3-4.7,2.8-7.2l7.7-1.3l-0.2-8.5l-7.7-0.9c-0.6-2.5-1.7-4.8-3.1-7
	l4.5-6.3l-6.2-5.8l-6.1,4.8c-2.3-1.3-4.7-2.2-7.2-2.7l-1.3-7.7l-8.5,0.2L291.5,212.7z M307.3,225.1c5.7,5.4,5.9,14.4,0.5,20.2
	c-5.4,5.7-14.5,6-20.2,0.6s-5.9-14.4-0.5-20.2C292.5,220,301.5,219.7,307.3,225.1z"/>
</svg>