<!DOCTYPE svg PUBLIC "-//W3C//DTD SVG 1.1//EN" "http://www.w3.org/Graphics/SVG/1.1/DTD/svg11.dtd">
<!-- Uploaded to: SVG Repo, www.svgrepo.com, Transformed by: SVG Repo Mixer Tools -->
<svg version="1.1" id="Layer_1" xmlns="http://www.w3.org/2000/svg" xmlns:xlink="http://www.w3.org/1999/xlink" viewBox="-97.28 -97.28 706.56 706.56" xml:space="preserve" width="800px" height="800px" fill="#000000">
<g id="SVGRepo_bgCarrier" stroke-width="0">
<rect x="-97.28" y="-97.28" width="706.56" height="706.56" rx="353.28" fill="#E9EDF1" strokewidth="0"/>
</g>
<g id="SVGRepo_tracerCarrier" stroke-linecap="round" stroke-linejoin="round"/>
<g id="SVGRepo_iconCarrier"> <path style="fill:#E9EDF1;" d="M451.952,454.104H60.048C27.024,454.104,0,427.08,0,394.048V89.512 C0,56.48,27.024,29.456,60.048,29.456h391.896C484.976,29.456,512,56.48,512,89.512v304.544 C512,427.08,484.976,454.104,451.952,454.104z"/> <path d="M512,123.968V89.512c0-33.032-27.024-60.048-60.048-60.048H60.048C27.024,29.456,0,56.48,0,89.512v34.456H512z"/> <circle style="fill:#E9EDF1;" cx="58.4" cy="76.712" r="13.424"/> <circle style="fill:#FF9900;" cx="96.64" cy="76.712" r="13.424"/> <circle style="fill:#30D1E2;" cx="134.904" cy="76.712" r="13.424"/> <g> <rect x="429.392" y="72.944" style="fill:#FFFFFF;" width="30.416" height="6.824"/> <polygon style="fill:#FFFFFF;" points="450.872,96.872 445.728,92.392 459.376,76.704 445.728,61.04 450.872,56.56 468.448,76.704 "/> <path style="fill:#FFFFFF;" d="M379.264,98.08H208.336c-11.752,0-21.368-9.616-21.368-21.368l0,0 c0-11.752,9.616-21.368,21.368-21.368h170.928c11.752,0,21.368,9.616,21.368,21.368l0,0 C400.632,88.464,391.016,98.08,379.264,98.08z"/> </g> <path d="M212.656,86.936l-4.704-19.24h3.744l1.824,8.736c0.48,2.344,0.936,4.8,1.256,6.704h0.056c0.32-2.024,0.856-4.304,1.4-6.736 l2.08-8.704h3.68l1.92,8.856c0.48,2.28,0.88,4.424,1.16,6.504h0.064c0.336-2.12,0.8-4.304,1.304-6.656l2-8.704h3.576l-5.176,19.24 h-3.76l-2-9.056c-0.496-2.184-0.824-4.016-1.056-6.104h-0.064c-0.336,2.056-0.704,3.92-1.28,6.104l-2.224,9.056 C216.456,86.936,212.656,86.936,212.656,86.936z"/> <path d="M237.712,86.936l-4.704-19.24h3.744l1.824,8.736c0.48,2.344,0.936,4.8,1.256,6.704h0.056c0.32-2.024,0.856-4.304,1.4-6.736 l2.08-8.704h3.68l1.92,8.856c0.48,2.28,0.88,4.424,1.16,6.504h0.064c0.336-2.12,0.8-4.304,1.304-6.656l2-8.704h3.576l-5.176,19.24 h-3.76l-2-9.056c-0.496-2.184-0.824-4.016-1.056-6.104h-0.064c-0.336,2.056-0.704,3.92-1.28,6.104l-2.224,9.056 C241.512,86.936,237.712,86.936,237.712,86.936z"/> <path d="M262.768,86.936l-4.704-19.24h3.744l1.824,8.736c0.48,2.344,0.936,4.8,1.256,6.704h0.056c0.32-2.024,0.856-4.304,1.4-6.736 l2.08-8.704h3.68l1.92,8.856c0.48,2.28,0.88,4.424,1.16,6.504h0.064c0.336-2.12,0.8-4.304,1.304-6.656l2-8.704h3.576l-5.176,19.24 h-3.76l-2-9.056c-0.496-2.184-0.824-4.016-1.056-6.104h-0.064c-0.336,2.056-0.704,3.92-1.28,6.104l-2.224,9.056 C266.568,86.936,262.768,86.936,262.768,86.936z"/> <path d="M282.064,84.992c0-1.304,0.92-2.256,2.176-2.256c1.28,0,2.176,0.92,2.176,2.256c0,1.296-0.864,2.264-2.176,2.264 C282.96,87.256,282.064,86.28,282.064,84.992z"/> <g> <polygon style="fill:#30D1E2;" points="81.24,276.056 255.96,379.28 81.24,482.544 "/> <polygon style="fill:#30D1E2;" points="430.68,482.544 255.96,379.32 430.68,276.056 "/> </g> <polygon style="fill:#2BC1CC;" points="81.24,482.544 430.68,482.544 255.96,379.296 "/> <polygon style="fill:#FFFFFF;" points="112.848,170.552 112.848,294.424 256.12,379.464 399.152,294.832 399.152,170.456 "/> <g> <polygon style="fill:#2BC1CC;" points="81.24,276.056 112.76,252.232 112.76,294.672 "/> <polygon style="fill:#2BC1CC;" points="430.76,276.056 399.24,252.232 399.24,294.672 "/> </g> <path d="M283.424,320.056c-10.896,4.912-20.344,6.536-33.248,6.536c-30.16,0-56.688-21.624-56.688-57.232 c0-37.064,26.888-69.224,67.952-69.224c31.976,0,54.872,21.984,54.872,52.512c0,26.528-14.896,43.24-34.52,43.24 c-8.544,0-14.712-4.36-15.624-13.992H265.8c-5.632,9.264-13.808,13.992-23.44,13.992c-11.808,0-20.352-8.728-20.352-23.624 c0-22.16,16.352-42.328,42.512-42.328c7.992,0,17.08,2,21.624,4.544l-5.456,33.608c-1.816,10.72-0.544,15.624,4.544,15.808 c7.816,0.184,17.624-9.808,17.624-30.704c0-23.624-15.264-41.968-43.424-41.968c-27.8,0-52.152,21.8-52.152,56.504 c0,30.336,19.44,47.608,46.512,47.608c9.272,0,19.08-2,26.344-5.816L283.424,320.056z M267.256,245.008 c-1.456-0.368-3.272-0.728-5.632-0.728c-11.992,0-21.44,11.808-21.44,25.8c0,6.904,3.088,11.264,9.08,11.264 c6.72,0,13.808-8.544,15.44-19.072L267.256,245.008z"/> </g>
</svg>