<?xml version="1.0" encoding="iso-8859-1"?>
<!-- Uploaded to: SVG Repo, www.svgrepo.com, Generator: SVG Repo Mixer Tools -->
<svg height="900px" width="900px" version="1.1" id="Layer_1" xmlns="http://www.w3.org/2000/svg" xmlns:xlink="http://www.w3.org/1999/xlink"
	 viewBox="0 0 512 512" xml:space="preserve"  >
<path style="fill:transparent;" d="M512,256.006C512,397.402,397.394,512.004,256.004,512C114.606,512.004,0,397.402,0,256.006
	C-0.007,114.61,114.606,0,256.004,0C397.394,0,512,114.614,512,256.006z"/>
<path style="fill:transparent;" d="M512,256.005c0-4.532-0.126-9.034-0.358-13.508l-0.093-0.075c-0.187-0.188-0.277-0.445-0.486-0.612
	l-0.651-0.525c-0.187-0.188-85.586-85.754-85.795-85.921l-0.651-0.524c-0.187-0.188-0.278-0.446-0.487-0.613l-70.047-56.423
	c0-0.007-0.006-0.007-0.006-0.007c-3.877-3.116-8.743-4.831-13.7-4.831h-167.45c-4.957,0-9.823,1.716-13.707,4.838l-70.047,56.423
	c-1.675,1.343-2.644,3.371-2.644,5.517v237.013c0,6.458,2.763,12.234,7.097,16.306c0.365,0.397,0.745,0.768,1.137,1.137
	c0.365,0.397,86.052,86.077,86.445,86.446c0.017,0.019,0.037,0.036,0.054,0.054c23.836,7.333,49.15,11.297,75.393,11.297
	C397.394,512.004,512,397.401,512,256.005z"/>
<path fill="currentColor"  stroke="currentColor" stroke-width="6" d="M423.478,154.228l-70.047-56.423c0-0.006-0.007-0.006-0.007-0.006
	c-3.876-3.115-8.742-4.832-13.699-4.832H172.274c-4.957,0-9.823,1.716-13.707,4.838l-70.047,56.423
	c-1.676,1.343-2.644,3.371-2.644,5.517v237.013c0,12.281,9.829,22.276,21.909,22.276h296.428c12.079,0,21.909-9.996,21.909-22.276
	V159.745C426.123,157.599,425.154,155.571,423.478,154.228z M411.947,318.785c0,4.465-3.468,8.099-7.732,8.099H107.786
	c-4.265,0-7.732-3.634-7.732-8.099v-64.172c2.403,0.859,4.986,1.387,7.732,1.387h85.179l2.963,13.159
	c1.883,9.518,9.788,15.195,21.134,15.195h77.557c11.36,0,19.258-5.683,21.12-15.111L318.526,256h85.687
	c2.747,0,5.329-0.529,7.732-1.387v64.172H411.947z M304.038,341.061l-2.192,10.411c-0.201,1.031-0.74,3.765-7.227,3.765h-77.557
	c-6.479,0-7.026-2.741-7.268-3.953l-2.299-10.224h96.543V341.061z M193.477,170.939l3.676,18.345
	c1.973,9.906,10.743,17.099,20.85,17.099h75.994c10.107,0,18.877-7.193,20.85-17.091l3.676-18.351h93.424v63.796
	c0,4.652-3.89,7.088-7.732,7.088H107.786c-3.842,0-7.732-2.436-7.732-7.088V170.94h93.424V170.939z M304.038,256l-2.192,10.411
	c-0.201,1.031-0.74,3.765-7.227,3.765h-77.557c-6.479,0-7.026-2.741-7.268-3.953l-2.3-10.223H304.038z M167.45,108.852
	c1.371-1.101,3.087-1.71,4.825-1.71h167.451c1.738,0,3.447,0.603,4.818,1.696l59.489,47.923h-85.509
	c-6.742,0-12.592,4.797-13.9,11.394l-3.676,18.358c-0.658,3.295-3.579,5.691-6.95,5.691h-75.994c-3.371,0-6.292-2.395-6.95-5.697
	l-3.676-18.345c-1.309-6.604-7.157-11.401-13.9-11.401h-85.508L167.45,108.852z M404.214,404.858H107.786
	c-4.265,0-7.732-3.634-7.732-8.099v-57.202c2.413,0.932,5.002,1.505,7.732,1.505h85.179l2.963,13.159
	c1.883,9.518,9.788,15.195,21.134,15.195h77.557c11.36,0,19.258-5.683,21.12-15.111l2.786-13.243h85.687
	c2.731,0,5.319-0.572,7.732-1.505v57.202C411.947,401.223,408.478,404.858,404.214,404.858z"/>
</svg>
