<?xml version="1.0" encoding="iso-8859-1"?>
<!-- Uploaded to: SVG Repo, www.svgrepo.com, Generator: SVG Repo Mixer Tools -->
<svg height="800px" width="800px" version="1.1" id="Layer_1" xmlns="http://www.w3.org/2000/svg" xmlns:xlink="http://www.w3.org/1999/xlink" 
	 viewBox="0 0 512 512" xml:space="preserve">
<path style="fill:#5D9BEB;" d="M0,256.006C0,397.402,114.606,512.004,255.996,512C397.394,512.004,512,397.402,512,256.006
	C512.009,114.61,397.394,0,255.996,0C114.606,0,0,114.614,0,256.006z"/>
<path style="fill:#4988DB;" d="M498.992,336.566L261.011,98.586c-2.769-2.769-7.254-2.769-10.023,0l-49.619,49.619
	c-2.769,2.769-2.769,7.255,0,10.025c0.202,0.202,0.465,0.282,0.684,0.453c0.173,0.219,0.252,0.482,0.453,0.684
	c0.202,0.202,0.465,0.282,0.684,0.453c0.173,0.219,0.252,0.482,0.453,0.684s45.175,45.046,45.267,45.151v11.365
	c0,2.255,1.117,4.173,2.754,5.471c0.34,0.43,0.707,0.797,1.137,1.137c0.34,0.43,14.228,14.349,14.583,14.65h-124.8
	c-15.637,0-28.354,12.322-28.354,27.468V388.02c0,7.812,3.421,14.83,8.842,19.837c0.374,0.387,0.741,0.771,1.137,1.137
	c0.374,0.387,99.698,99.728,100.095,100.095c0.334,0.347,0.667,0.686,1.015,1.017c10.065,1.202,20.287,1.892,30.676,1.892
	C369.236,512.003,465.227,438.469,498.992,336.566z"/>
<g>
	<path style="fill:#F4F6F9;" d="M369.415,238.278H142.585c-15.637,0-28.354,12.322-28.354,27.468v122.276
		c0,15.146,12.717,27.468,28.354,27.468h226.831c15.637,0,28.354-12.322,28.354-27.468V265.746
		C397.77,250.601,385.053,238.278,369.415,238.278z M369.415,252.455c1.293,0,2.522,0.215,3.712,0.521l-117.121,117.36
		L139.087,252.914c1.125-0.271,2.284-0.459,3.498-0.459H369.415z M383.593,388.022c0,7.331-6.362,13.291-14.177,13.291H142.585
		c-7.815,0-14.177-5.961-14.177-13.291V265.746c0-1.051,0.163-2.061,0.411-3.042l122.157,122.673
		c1.329,1.329,3.136,2.083,5.019,2.083c0.006,0,0.006,0,0.006,0c1.883,0,3.69-0.748,5.019-2.083l122.229-122.475
		c0.214,0.918,0.345,1.866,0.345,2.844L383.593,388.022L383.593,388.022z"/>
	<path style="fill:#F4F6F9;" d="M211.392,158.229l37.519-37.519v96.31c0,3.918,3.17,7.088,7.088,7.088
		c3.918,0,7.088-3.17,7.088-7.088v-96.31l37.519,37.519c1.385,1.385,3.198,2.077,5.012,2.077c1.814,0,3.628-0.692,5.012-2.077
		c2.769-2.769,2.769-7.254,0-10.023l-49.619-49.619c-2.769-2.769-7.254-2.769-10.023,0l-49.619,49.619
		c-2.769,2.769-2.769,7.254,0,10.023C204.138,160.998,208.624,160.998,211.392,158.229z"/>
</g>
</svg>