<!DOCTYPE svg PUBLIC "-//W3C//DTD SVG 1.1//EN" "http://www.w3.org/Graphics/SVG/1.1/DTD/svg11.dtd">
<!-- Uploaded to: SVG Repo, www.svgrepo.com, Transformed by: SVG Repo Mixer Tools -->
<svg version="1.1" id="Layer_1" xmlns="http://www.w3.org/2000/svg" xmlns:xlink="http://www.w3.org/1999/xlink" viewBox="0 0 504 504" xml:space="preserve" width="800px" height="800px" fill="#000000">
<g id="SVGRepo_bgCarrier" stroke-width="0"/>
<g id="SVGRepo_tracerCarrier" stroke-linecap="round" stroke-linejoin="round"/>
<g id="SVGRepo_iconCarrier"> <circle style="fill:#90DFAA;" cx="252" cy="252" r="252"/> <g> <polygon style="fill:#2B3B4E;" points="216.5,371.6 130.5,371.6 130.5,260.7 146.3,260.7 146.3,355.8 216.5,355.8 "/> <polygon style="fill:#2B3B4E;" points="382.4,260.7 366.6,260.7 366.6,165.5 296.4,165.5 296.4,149.8 382.4,149.8 "/> </g> <path style="fill:#FFD05B;" d="M151,103.9L151,103.9c0-5.2-4.2-9.4-9.4-9.4h-37.7c-5.2,0-9.4,4.2-9.4,9.4v124c0,5.2,4.2,9.4,9.4,9.4 h152.4c5.2,0,9.4-4.2,9.4-9.4V122.6c0-5.2-4.2-9.4-9.4-9.4h-95.9C155.2,113.2,151,109,151,103.9z"/> <rect x="112.1" y="143.3" style="fill:#2B3B4E;" width="21.7" height="16"/> <rect x="146.1" y="143.3" style="fill:#FF7058;" width="101.9" height="16"/> <rect x="226.3" y="171.6" style="fill:#324A5E;" width="21.7" height="16"/> <rect x="112.1" y="171.6" style="fill:#90DFAA;" width="101.9" height="16"/> <rect x="112.1" y="199.9" style="fill:#FF7058;" width="21.7" height="16"/> <rect x="146.1" y="199.9" style="fill:#FFFFFF;" width="101.9" height="16"/> <path style="fill:#2c9984;" d="M294.9,276.1L294.9,276.1c0-5.2-4.2-9.4-9.4-9.4h-37.7c-5.2,0-9.4,4.2-9.4,9.4v124 c0,5.2,4.2,9.4,9.4,9.4h152.4c5.2,0,9.4-4.2,9.4-9.4V294.8c0-5.2-4.2-9.4-9.4-9.4h-95.9C299.1,285.5,294.9,281.3,294.9,276.1z"/> <rect x="256" y="315.6" style="fill:#2B3B4E;" width="21.7" height="16"/> <rect x="290" y="315.6" style="fill:#FF7058;" width="101.9" height="16"/> <rect x="370.2" y="343.9" style="fill:#324A5E;" width="21.7" height="16"/> <rect x="256" y="343.9" style="fill:#90DFAA;" width="101.9" height="16"/> <rect x="256" y="372.2" style="fill:#FF7058;" width="21.7" height="16"/> <rect x="290" y="372.2" style="fill:#CED5E0;" width="101.9" height="16"/> </g>
</svg>