<?xml version="1.0" encoding="iso-8859-1"?>
<!-- Uploaded to: SVG Repo, www.svgrepo.com, Generator: SVG Repo Mixer Tools -->
<svg version="1.1" id="Layer_1" xmlns="http://www.w3.org/2000/svg" xmlns:xlink="http://www.w3.org/1999/xlink" 
	 viewBox="0 0 505 505" xml:space="preserve">
<circle style="fill:#FFD05B;" cx="252.5" cy="252.5" r="252.5"/>
<path style="fill:#FFFFFF;" d="M95.1,154.5v205.2c0,7.6,6.2,13.8,13.8,13.8h287.3c7.6,0,13.8-6.2,13.8-13.8V154.5H95.1z"/>
<path style="fill:#FF7058;" d="M396.2,131.5H108.8c-7.6,0-13.8,6.2-13.8,13.8v31.8h314.9v-31.8C409.9,137.7,403.8,131.5,396.2,131.5
	z"/>
<g>
	<rect x="351.9" y="101.8" style="fill:#324A5E;" width="17.5" height="48.9"/>
	<rect x="279.8" y="101.8" style="fill:#324A5E;" width="17.5" height="48.9"/>
	<rect x="207.7" y="101.8" style="fill:#324A5E;" width="17.5" height="48.9"/>
	<rect x="135.6" y="101.8" style="fill:#324A5E;" width="17.5" height="48.9"/>
</g>
<g>
	<rect x="125.5" y="198.8" style="fill:#84DBFF;" width="42.6" height="21.9"/>
	<rect x="195.9" y="198.8" style="fill:#84DBFF;" width="42.6" height="21.9"/>
	<rect x="266.4" y="198.8" style="fill:#84DBFF;" width="42.6" height="21.9"/>
	<rect x="336.9" y="198.8" style="fill:#84DBFF;" width="42.6" height="21.9"/>
</g>
<g>
	<rect x="125.5" y="241.8" style="fill:#E6E9EE;" width="42.6" height="21.9"/>
	<rect x="195.9" y="241.8" style="fill:#E6E9EE;" width="42.6" height="21.9"/>
	<rect x="266.4" y="241.8" style="fill:#E6E9EE;" width="42.6" height="21.9"/>
	<rect x="336.9" y="241.8" style="fill:#E6E9EE;" width="42.6" height="21.9"/>
	<rect x="125.5" y="284.8" style="fill:#E6E9EE;" width="42.6" height="21.9"/>
</g>
<rect x="195.9" y="284.8" style="fill:#FF7058;" width="42.6" height="21.9"/>
<g>
	<rect x="266.4" y="284.8" style="fill:#E6E9EE;" width="42.6" height="21.9"/>
	<rect x="336.9" y="284.8" style="fill:#E6E9EE;" width="42.6" height="21.9"/>
	<rect x="125.5" y="327.9" style="fill:#E6E9EE;" width="42.6" height="21.9"/>
	<rect x="195.9" y="327.9" style="fill:#E6E9EE;" width="42.6" height="21.9"/>
	<rect x="266.4" y="327.9" style="fill:#E6E9EE;" width="42.6" height="21.9"/>
	<rect x="336.9" y="327.9" style="fill:#E6E9EE;" width="42.6" height="21.9"/>
</g>
</svg>