<?xml version="1.0" encoding="iso-8859-1"?>
<!-- Uploaded to: SVG Repo, www.svgrepo.com, Generator: SVG Repo Mixer Tools -->
<svg version="1.1" id="Layer_1" xmlns="http://www.w3.org/2000/svg" xmlns:xlink="http://www.w3.org/1999/xlink" 
	 viewBox="0 0 505 505" xml:space="preserve">
<circle style="fill:#FFD05B;" cx="252.5" cy="252.5" r="252.5"/>
<rect x="87.3" y="193.2" style="fill:#E6E9EE;" width="330.4" height="198.5"/>
<polygon style="fill:#CED5E0;" points="417.7,192.9 252.5,334.4 87.3,192.9 252.5,73 "/>
<polygon style="fill:#2C9984;" points="417.7,192.9 371.9,232.1 252.5,334.4 133.1,232.1 87.3,192.9 252.5,73 "/>
<polygon style="fill:#FFFFFF;" points="371.9,105.8 371.9,232.1 252.5,334.4 133.1,232.1 133.1,105.8 "/>
<polygon style="fill:#ACB3BA;" points="209.2,277.1 87.3,391.7 417.7,391.7 295.8,277.1 "/>
<g>
	<rect x="158.8" y="134.1" style="fill:#E6E9EE;" width="187.4" height="12.5"/>
	<rect x="158.8" y="160.1" style="fill:#E6E9EE;" width="187.4" height="12.5"/>
	<rect x="158.8" y="186.1" style="fill:#E6E9EE;" width="187.4" height="12.5"/>
	<rect x="158.8" y="212.2" style="fill:#E6E9EE;" width="119.8" height="12.5"/>
</g>
</svg>