<?xml version="1.0" encoding="iso-8859-1"?>
<!-- Uploaded to: SVG Repo, www.svgrepo.com, Generator: SVG Repo Mixer Tools -->
<svg height="800px" width="800px" version="1.1" id="Layer_1" xmlns="http://www.w3.org/2000/svg" xmlns:xlink="http://www.w3.org/1999/xlink" 
	 viewBox="0 0 512 512" xml:space="preserve">
<path style="fill:#9ED368;" d="M0,256.006C0,397.402,114.606,512.004,255.996,512C397.394,512.004,512,397.402,512,256.006
	C512.009,114.61,397.394,0,255.996,0C114.606,0,0,114.614,0,256.006z"/>
<path style="fill:#8BC052;" d="M512,256.005c0.001-8.218-0.426-16.334-1.182-24.353c-0.306-0.367-85.884-85.972-86.313-86.313
	c-1.298-1.638-3.217-2.755-5.471-2.755H199.293c-3.918,0-7.089,3.173-7.089,7.089c0,2.252,1.117,4.172,2.754,5.47
	c0.34,0.429,0.707,0.797,1.137,1.137c0.34,0.429,0.709,0.798,1.138,1.138c0.34,0.43,82.604,82.693,83.034,83.034
	c0.34,0.429-124.692-123.126-125.122-123.467c-1.298-1.638-3.217-2.755-5.471-2.755H92.965c-3.918,0-7.089,3.173-7.089,7.089v56.707
	c0,2.253,1.117,4.173,2.754,5.471c0.34,0.429,0.708,0.798,1.137,1.137c0.34,0.429,42.593,42.733,42.909,43.011H92.964
	c-3.918,0-7.089,3.173-7.089,7.089v56.707c0,2.253,1.117,4.173,2.754,5.471c0.34,0.429,0.708,0.798,1.137,1.137
	c0.34,0.429,28.597,28.716,28.705,28.834H92.965c-3.918,0-7.089,3.173-7.089,7.088v56.707c0,2.253,1.117,4.173,2.754,5.471
	c0.34,0.429,0.708,0.798,1.137,1.137c0.34,0.429,106.491,106.58,106.919,106.919c0.316,0.399,0.666,0.737,1.057,1.057
	c18.721,4.357,38.202,6.736,58.251,6.735C397.394,512.004,512,397.401,512,256.005z"/>
<g>
	<path style="fill:#F4F6F9;" d="M149.673,114.23H92.965c-3.918,0-7.088,3.174-7.088,7.088v56.708c0,3.915,3.17,7.088,7.088,7.088
		h56.707c3.918,0,7.088-3.174,7.088-7.088v-56.707C156.762,117.405,153.591,114.23,149.673,114.23z M142.585,170.939h-42.531
		v-42.531h42.531V170.939z"/>
	<path style="fill:#F4F6F9;" d="M149.673,227.646H92.965c-3.918,0-7.088,3.174-7.088,7.088v56.707c0,3.915,3.17,7.088,7.088,7.088
		h56.707c3.918,0,7.088-3.173,7.088-7.088v-56.707C156.762,230.82,153.591,227.646,149.673,227.646z M142.585,284.354h-42.531
		v-42.531h42.531V284.354z"/>
	<path style="fill:#F4F6F9;" d="M149.673,326.884H92.965c-3.918,0-7.088,3.174-7.088,7.088v56.707c0,3.915,3.17,7.088,7.088,7.088
		h56.707c3.918,0,7.088-3.174,7.088-7.088v-56.706C156.762,330.059,153.591,326.884,149.673,326.884z M142.585,383.593h-42.531
		v-42.531h42.531V383.593z"/>
	<path style="fill:#F4F6F9;" d="M199.293,156.762h219.742c3.918,0,7.088-3.174,7.088-7.088c0-3.915-3.17-7.088-7.088-7.088H199.293
		c-3.918,0-7.088,3.174-7.088,7.088C192.204,153.587,195.374,156.762,199.293,156.762z"/>
	<path style="fill:#F4F6F9;" d="M419.035,248.912H199.293c-3.918,0-7.088,3.174-7.088,7.088c0,3.914,3.17,7.088,7.088,7.088h219.742
		c3.918,0,7.088-3.174,7.088-7.088C426.123,252.086,422.953,248.912,419.035,248.912z"/>
	<path style="fill:#F4F6F9;" d="M419.035,355.238H199.293c-3.918,0-7.088,3.173-7.088,7.088s3.17,7.088,7.088,7.088h219.742
		c3.918,0,7.088-3.174,7.088-7.088S422.953,355.238,419.035,355.238z"/>
</g>
</svg>