<!DOCTYPE svg PUBLIC "-//W3C//DTD SVG 1.1//EN" "http://www.w3.org/Graphics/SVG/1.1/DTD/svg11.dtd">
<!-- Uploaded to: SVG Repo, www.svgrepo.com, Transformed by: SVG Repo Mixer Tools -->
<svg version="1.1" id="Layer_1" xmlns="http://www.w3.org/2000/svg" xmlns:xlink="http://www.w3.org/1999/xlink" viewBox="-122.88 -122.88 757.76 757.76" xml:space="preserve" width="800px" height="800px" fill="#000000">
<g id="SVGRepo_bgCarrier" stroke-width="0">
<rect x="-122.88" y="-122.88" width="757.76" height="757.76" rx="378.88" fill="#E9EDF1" strokewidth="0"/>
</g>
<g id="SVGRepo_tracerCarrier" stroke-linecap="round" stroke-linejoin="round"/>
<g id="SVGRepo_iconCarrier"> <path style="fill:#FF9900;" d="M451.952,468.32H60.048C27.024,468.32,0,441.296,0,408.272V103.728 C0,70.704,27.024,43.68,60.048,43.68h391.896c33.032,0,60.056,27.024,60.056,60.048v304.544 C512,441.296,484.976,468.32,451.952,468.32z"/> <path d="M512,138.184v-34.456c0-33.032-27.024-60.048-60.048-60.048H60.048C27.024,43.68,0,70.704,0,103.728v34.456L512,138.184 L512,138.184z"/> <circle style="fill:#E9EDF1;" cx="58.4" cy="90.928" r="13.424"/> <circle style="fill:#FF9900;" cx="96.64" cy="90.928" r="13.424"/> <circle style="fill:#30D1E2;" cx="134.904" cy="90.928" r="13.424"/> <g> <rect x="429.392" y="87.168" style="fill:#ffffff;" width="30.4" height="6.824"/> <polygon style="fill:#ffffff;" points="450.88,111.088 445.728,106.608 459.384,90.928 445.728,75.256 450.88,70.776 468.448,90.928 "/> <path style="fill:#ffffff;" d="M379.264,112.296H208.336c-11.752,0-21.368-9.616-21.368-21.368l0,0 c0-11.752,9.616-21.368,21.368-21.368h170.928c11.752,0,21.368,9.616,21.368,21.368l0,0 C400.632,102.68,391.016,112.296,379.264,112.296z"/> </g> <path d="M212.664,101.152l-4.704-19.24h3.744l1.824,8.736c0.48,2.344,0.936,4.8,1.256,6.704h0.056c0.32-2.024,0.856-4.304,1.4-6.736 l2.08-8.704H222l1.92,8.856c0.48,2.28,0.88,4.424,1.16,6.504h0.064c0.336-2.12,0.8-4.304,1.304-6.656l2-8.704h3.576l-5.176,19.24 h-3.76l-2-9.056c-0.496-2.184-0.824-4.016-1.056-6.104h-0.064c-0.336,2.056-0.704,3.92-1.28,6.104l-2.224,9.056 C216.464,101.152,212.664,101.152,212.664,101.152z"/> <path d="M237.72,101.152l-4.704-19.24h3.744l1.824,8.736c0.48,2.344,0.936,4.8,1.256,6.704h0.056c0.32-2.024,0.856-4.304,1.4-6.736 l2.08-8.704h3.68l1.92,8.856c0.48,2.28,0.88,4.424,1.16,6.504h0.064c0.336-2.12,0.8-4.304,1.304-6.656l2-8.704h3.576l-5.176,19.24 h-3.76l-2-9.056c-0.496-2.184-0.824-4.016-1.056-6.104h-0.064c-0.336,2.056-0.704,3.92-1.28,6.104l-2.224,9.056 C241.52,101.152,237.72,101.152,237.72,101.152z"/> <path d="M262.776,101.152l-4.704-19.24h3.744l1.824,8.736c0.48,2.344,0.936,4.8,1.256,6.704h0.056c0.32-2.024,0.856-4.304,1.4-6.736 l2.08-8.704h3.68l1.92,8.856c0.48,2.28,0.88,4.424,1.16,6.504h0.064c0.336-2.12,0.8-4.304,1.304-6.656l2-8.704h3.576l-5.176,19.24 h-3.76l-2-9.056c-0.496-2.184-0.824-4.016-1.056-6.104h-0.064c-0.336,2.056-0.704,3.92-1.28,6.104l-2.224,9.056 C266.576,101.152,262.776,101.152,262.776,101.152z"/> <path d="M282.064,99.208c0-1.304,0.92-2.256,2.176-2.256c1.28,0,2.176,0.92,2.176,2.256c0,1.296-0.864,2.264-2.176,2.264 C282.96,101.472,282.064,100.504,282.064,99.208z"/> <path style="fill:#ffffff;" d="M428.992,358.248H131.04c-9.256,0-16.824-7.568-16.824-16.824v-99.952 c0-9.256,7.568-16.824,16.824-16.824h297.944c9.256,0,16.824,7.568,16.824,16.824v99.944 C445.816,350.68,438.24,358.248,428.992,358.248z"/> <path style="fill:#30D1E2;" d="M133.616,380.272l-8.264-10.92c-6.08-7.952-59.32-79.024-59.32-114.432 c0-42.48,26.512-69.928,67.592-69.928s67.592,27.448,67.592,69.928c0,35.352-53.24,106.424-59.272,114.432L133.616,380.272z"/> <circle style="fill:#ffffff;" cx="133.56" cy="255.384" r="21.888"/> <path d="M243.2,266.24h30.912v9.376h-19.424v11.544h18.144v9.304h-18.144v20.32H243.2V266.24z"/> <path d="M294.256,266.24v50.552h-11.48V266.24H294.256z"/> <path d="M304.176,316.792V266.24h13.36l10.496,18.52c3,5.32,6,11.624,8.256,17.32h0.224c-0.76-6.664-0.976-13.496-0.976-21.064 V266.24h10.496v50.552h-12l-10.8-19.504c-3-5.384-6.304-11.92-8.776-17.84l-0.224,0.064c0.296,6.68,0.456,13.8,0.456,22.056v15.224 H304.176z"/> <path d="M355.992,266.904c4.2-0.664,9.68-1.04,15.456-1.04c9.6,0,15.824,1.72,20.704,5.4c5.24,3.896,8.544,10.12,8.544,19.04 c0,9.68-3.536,16.36-8.4,20.48c-5.336,4.424-13.424,6.52-23.336,6.52c-5.92,0-10.12-0.376-12.976-0.744v-49.656H355.992z M367.472,308.16c0.976,0.224,2.544,0.224,3.976,0.224c10.344,0.08,17.104-5.624,17.104-17.696 c0.064-10.504-6.08-16.056-15.904-16.056c-2.544,0-4.2,0.224-5.176,0.456L367.472,308.16L367.472,308.16z"/> </g>
</svg>