<!DOCTYPE svg PUBLIC "-//W3C//DTD SVG 1.1//EN" "http://www.w3.org/Graphics/SVG/1.1/DTD/svg11.dtd">
<!-- Uploaded to: SVG Repo, www.svgrepo.com, Transformed by: SVG Repo Mixer Tools -->
<svg width="800px" height="800px" viewBox="-7.68 -7.68 63.36 63.36" xmlns="http://www.w3.org/2000/svg" fill="#ffffff">
<g id="SVGRepo_bgCarrier" stroke-width="0">
<rect x="-7.68" y="-7.68" width="63.36" height="63.36" rx="31.68" fill="#324A5E" strokewidth="0"/>
</g>
<g id="SVGRepo_tracerCarrier" stroke-linecap="round" stroke-linejoin="round"/>
<g id="SVGRepo_iconCarrier"> <path d="M0 0h48v48H0z" fill="none"/> <g id="Shopicon"> <path d="M33.843,26.914L24,36l-9.843-9.086C8.674,30.421,5,36.749,5,44h38C43,36.749,39.326,30.421,33.843,26.914z"/> <path d="M24,28c3.55,0,6.729-1.55,8.926-4C34.831,21.876,36,19.078,36,16c0-6.627-5.373-12-12-12S12,9.373,12,16 c0,3.078,1.169,5.876,3.074,8C17.271,26.45,20.45,28,24,28z"/> </g> </g>
</svg>