<?xml version="1.0" encoding="iso-8859-1"?>
<!-- Uploaded to: SVG Repo, www.svgrepo.com, Generator: SVG Repo Mixer Tools -->
<svg height="800px" width="800px" version="1.1" id="Layer_1" xmlns="http://www.w3.org/2000/svg" xmlns:xlink="http://www.w3.org/1999/xlink" 
	 viewBox="0 0 505 505" xml:space="preserve">
<circle style="fill:#324A5E;" cx="252.5" cy="252.5" r="252.5"/>
<path style="fill:#FFFFFF;" d="M420.8,230.5l-24.8-3.7c-3.8-21.1-12.1-40.7-23.9-57.6L387,149c3.2-4.3,2.8-10.3-1.1-14.1l-16-16
	c-3.8-3.8-9.8-4.2-14.1-1.1l-20.2,14.9c-16.9-11.8-36.5-20.1-57.6-23.8l-3.5-24.7c-0.8-5.3-5.3-9.2-10.7-9.2h-22.7
	c-5.3,0-9.9,3.9-10.7,9.2l-3.7,24.8c-21.1,3.8-40.6,12-57.6,23.8l-20.2-14.9c-4.3-3.2-10.3-2.8-14.1,1.1l-16,16
	c-3.8,3.8-4.2,9.8-1,14.1l14.9,20.2c-11.8,16.9-20.1,36.5-23.9,57.6l-24.6,3.6c-5.3,0.8-9.2,5.3-9.2,10.7v22.6
	c0,5.4,3.9,9.9,9.2,10.7l24.8,3.7c3.8,21.1,12.1,40.7,23.9,57.6L118,355.9c-3.2,4.3-2.8,10.3,1,14.1l16,16c3.8,3.8,9.8,4.2,14.1,1.1
	l20.2-14.9c16.9,11.8,36.5,20.1,57.6,23.9l3.7,24.8c0.8,5.3,5.3,9.2,10.7,9.2H264c5.3,0,9.9-3.9,10.7-9.2l3.7-24.8
	c21.1-3.8,40.6-12.1,57.6-23.9l20.2,14.9c4.3,3.2,10.3,2.7,14.1-1.1l16-16c3.8-3.8,4.2-9.8,1-14.1l-14.9-20.1
	c11.8-16.9,20.1-36.5,23.9-57.6l24.8-3.7c5.3-0.8,9.2-5.3,9.2-10.7v-22.6C430,235.8,426.1,231.3,420.8,230.5z M252.5,356.5
	c-57.5,0-104-46.6-104-104c0-57.5,46.6-104,104-104c57.5,0,104.1,46.6,104.1,104C356.5,310,310,356.5,252.5,356.5z"/>
<path style="fill:#FF7058;" d="M252.5,165.4c-48,0-87.1,39.1-87.1,87.1s39.1,87.1,87.1,87.1s87.1-39.1,87.1-87.1
	S300.5,165.4,252.5,165.4z M300.7,247.6c-0.4-12.9-2.3-25-5.3-35.7c5.2-3,10.2-6.5,14.8-10.6c11.1,12.5,18.2,28.6,19.4,46.3H300.7z
	 M247.6,329c-10.4-2.8-19.6-14.4-25.8-30.9c8.1-3.5,16.8-5.6,25.8-6.1V329z M247.6,282.1c-10,0.6-19.8,2.7-28.8,6.5
	c-2.6-9.5-4.1-20-4.5-31.2h33.3V282.1z M214.2,247.6c0.4-11.1,1.9-21.7,4.5-31.2c9.1,3.8,18.8,6,28.8,6.5v24.6h-33.3V247.6z
	 M221.8,206.9c6.1-16.4,15.3-28,25.8-30.9v37C238.6,212.5,229.9,210.4,221.8,206.9z M257.5,176c10.4,2.8,19.6,14.4,25.8,30.9
	c-8.1,3.5-16.8,5.6-25.8,6.1V176z M279.8,180.3c8.6,3.3,16.5,8,23.3,13.9c-3.4,3-7.1,5.6-11,8C288.8,193.6,284.6,186.2,279.8,180.3z
	 M212.9,202.2c-3.9-2.3-7.5-5-11-8c6.8-5.9,14.7-10.7,23.3-13.9C220.4,186.2,216.2,193.6,212.9,202.2z M209.6,211.8
	c-3.1,10.7-4.9,22.8-5.3,35.7h-28.8c1.1-17.7,8.2-33.8,19.4-46.3C199.5,205.3,204.4,208.9,209.6,211.8z M204.3,257.5
	c0.4,12.9,2.3,25,5.3,35.7c-5.2,3-10.2,6.5-14.8,10.6c-11.1-12.5-18.2-28.6-19.4-46.3L204.3,257.5L204.3,257.5z M212.8,302.8
	c3.3,8.6,7.5,16,12.4,21.9c-8.6-3.3-16.5-8-23.3-13.9C205.3,307.7,209,305.1,212.8,302.8z M257.5,329v-37c9,0.6,17.7,2.6,25.8,6.2
	C277.1,314.6,267.9,326.1,257.5,329z M292.2,302.8c3.8,2.3,7.5,5,10.9,7.9c-6.8,5.9-14.7,10.7-23.3,13.9
	C284.6,318.8,288.8,311.4,292.2,302.8z M257.5,282.1v-24.6h33.3c-0.4,11.1-1.9,21.7-4.5,31.2C277.2,284.8,267.5,282.6,257.5,282.1z
	 M257.5,247.6V223c10-0.6,19.8-2.7,28.8-6.5c2.6,9.5,4.1,20,4.5,31.2h-33.3V247.6z M310.1,303.7c-4.6-4.1-9.5-7.6-14.8-10.6
	c3.1-10.7,5-22.8,5.3-35.7h28.9C328.4,275.2,321.3,291.3,310.1,303.7z"/>
</svg>