<?xml version="1.0" encoding="utf-8"?>

<!-- Uploaded to: SVG Repo, www.svgrepo.com, Generator: SVG Repo Mixer Tools -->
<svg version="1.1" id="Icons" xmlns="http://www.w3.org/2000/svg" xmlns:xlink="http://www.w3.org/1999/xlink"
	 viewBox="0 0 32 32" xml:space="preserve">
<style type="text/css">
	.st0{fill:none;stroke:currentColor;stroke-width:2;stroke-linecap:round;stroke-linejoin:round;stroke-miterlimit:10;}
	.st1{fill:none;stroke:currentColor;stroke-width:2;stroke-linejoin:round;stroke-miterlimit:10;}
</style>
<path class="st0" d="M22.6,26c-2.2,1.5-5,2.3-8,1.9c-5.5-0.6-10-5.1-10.6-10.6C3.3,10.1,8.9,4,16,4c0.3,0,0.6,0,0.8,0
	c7.5,0.5,12.4,8.3,10,15.5l0,0.1C26.3,21,25,22,23.5,22h0c-1.9,0-3.5-1.6-3.5-3.5V11"/>
<path class="st0" d="M16,21L16,21c-2.2,0-4-1.8-4-4v-2c0-2.2,1.8-4,4-4h0c2.2,0,4,1.8,4,4v2C20,19.2,18.2,21,16,21z"/>
</svg>
