<?xml version="1.0" encoding="iso-8859-1"?>
<!-- Uploaded to: SVG Repo, www.svgrepo.com, Generator: SVG Repo Mixer Tools -->
<svg height="800px" width="800px" version="1.1" id="Layer_1" xmlns="http://www.w3.org/2000/svg" xmlns:xlink="http://www.w3.org/1999/xlink" 
	 viewBox="0 0 505 505" xml:space="preserve">
<circle style="fill:#FD8469;" cx="252.5" cy="252.5" r="252.5"/>
<g>
	<path style="fill:#FFFFFF;" d="M137.8,398.1L137.8,398.1c-8.1,0-14.6-6.5-14.6-14.6v-262c0-8.1,6.5-14.6,14.6-14.6l0,0
		c8.1,0,14.6,6.5,14.6,14.6v262C152.4,391.6,145.9,398.1,137.8,398.1z"/>
	<path style="fill:#FFFFFF;" d="M225.2,398.1h-21.8c-2,0-3.7-1.7-3.7-3.7V110.6c0-2,1.7-3.7,3.7-3.7h21.8c2,0,3.7,1.7,3.7,3.7v283.9
		C228.9,396.5,227.2,398.1,225.2,398.1z"/>
	<path style="fill:#FFFFFF;" d="M290.7,398.1L290.7,398.1c-8.1,0-14.6-6.5-14.6-14.6v-262c0-8.1,6.5-14.6,14.6-14.6l0,0
		c8.1,0,14.6,6.5,14.6,14.6v262C305.3,391.6,298.8,398.1,290.7,398.1z"/>
	<path style="fill:#FFFFFF;" d="M367.2,398.1L367.2,398.1c-8.1,0-14.6-6.5-14.6-14.6v-262c0-8.1,6.5-14.6,14.6-14.6l0,0
		c8.1,0,14.6,6.5,14.6,14.6v262C381.8,391.6,375.3,398.1,367.2,398.1z"/>
</g>
<path style="fill:#FFD05B;" d="M393.2,232.8h-49.7c-1.6,0-2.8-1.3-2.8-2.8v-55.2c0-1.6,1.3-2.8,2.8-2.8h49.8c1.6,0,2.8,1.3,2.8,2.8
	V230C396.1,231.6,394.8,232.8,393.2,232.8z"/>
<path style="fill:#324A5E;" d="M315.6,309.3h-49.8c-1.6,0-2.8-1.3-2.8-2.8v-55.2c0-1.6,1.3-2.8,2.8-2.8h49.8c1.6,0,2.8,1.3,2.8,2.8
	v55.2C318.4,308.1,317.2,309.3,315.6,309.3z"/>
<path style="fill:#FFD05B;" d="M238,347.3h-49.8c-1.6,0-2.8-1.3-2.8-2.8v-55.2c0-1.6,1.3-2.8,2.8-2.8H238c1.6,0,2.8,1.3,2.8,2.8
	v55.2C240.8,346,239.6,347.3,238,347.3z"/>
<path style="fill:#4CDBC4;" d="M160.4,232.8h-49.8c-1.6,0-2.8-1.3-2.8-2.8v-55.2c0-1.6,1.3-2.8,2.8-2.8h49.8c1.6,0,2.8,1.3,2.8,2.8
	V230C163.2,231.6,161.9,232.8,160.4,232.8z"/>
</svg>