<?xml version="1.0" ?>

<!DOCTYPE svg  PUBLIC '-//W3C//DTD SVG 1.1//EN'  'http://www.w3.org/Graphics/SVG/1.1/DTD/svg11.dtd'>

<!-- Uploaded to: SVG Repo, www.svgrepo.com, Generator: SVG Repo Mixer Tools -->
<svg fill="#000000" width="800px" height="800px" viewBox="0 0 512 512" enable-background="new 0 0 512 512" id="Scheduled_x5F_delivery" version="1.1" xml:space="preserve" xmlns="http://www.w3.org/2000/svg"  stroke="#000000" stroke-width="3.6" xmlns:xlink="http://www.w3.org/1999/xlink">

<g>

<g>

<polygon points="20.336,332.223 20.336,471.013 270.657,471.013 270.657,489.965 365.938,489.965 365.938,479.965     280.657,479.965 280.657,388.442 270.657,388.442 270.657,461.013 30.336,461.013 30.336,332.223   "/>

<rect height="10" width="12.329" x="396.816" y="131.893"/>

<path d="M459.326,300.976V160.532h0.008v-92.61h-57.519V22.035h-10v45.887H87.844V22.035h-10v45.887H20.329v92.61h0.007v157.841    h10V160.532h54.811v-10H30.336v-8.64h353.436v-10H30.336v-53.97h47.508v22.695h10V77.923h303.972v22.695h10V77.923h47.511v53.97    h-28.305v10h28.305v8.64H99.646v10h349.68v137.071c-3.975-0.922-8.107-1.424-12.357-1.424c-15.264,0-29.08,6.29-39.013,16.406    v-39.648h0.004v-86.13h-1.164v-0.004h-0.22h-85.91H82.576v0.004h-0.005v86.13v154.171h0.005v0.005h172.337v-10h-10.082v-66.131    h10.082v-10h-10.082v-67.16h65.835v58.4h10v-58.4h65.91V329.6c-2.41,5.686-3.882,11.861-4.228,18.33h-8.734v-0.006h-59.186v0.006    h-43.779v26.297h10V357.93h33.779v77.174h59.186V357.93h9.122c2.109,16.314,11.426,30.39,24.65,38.928v83.101h-21.036v10h31.036    v-20.44h39.389v-67.661c20.397-7.953,34.896-27.797,34.896-50.976C491.671,328.682,478.37,309.541,459.326,300.976z     M363.614,425.104h-39.186V357.93h39.186V425.104z M234.831,262.938h-66.13v-66.13h66.13V262.938z M244.831,196.807h65.835v66.13    h-65.835V196.807z M320.666,196.807h65.91v66.13h-65.91V196.807z M158.701,196.807v66.13H92.576v-66.13H158.701z M92.576,417.108    v-66.126h66.125v66.126H92.576z M92.576,340.982v-67.16h66.125v67.16H92.576z M234.831,417.108h-66.13v-66.126h66.13V417.108z     M234.831,340.982h-66.13v-67.16h66.13V340.982z M446.775,459.518h-29.389v-57.572c6.084,2.342,12.683,3.639,19.582,3.639    c3.349,0,6.622-0.319,9.807-0.898V459.518z M436.969,395.584c-24.648,0-44.702-20.055-44.702-44.703s20.054-44.701,44.702-44.701    s44.702,20.053,44.702,44.701S461.617,395.584,436.969,395.584z"/>

</g>

<polygon points="425.791,378.266 403.986,356.459 411.057,349.389 425.791,364.122 462.881,327.033 469.951,334.104  "/>

</g>

</svg>
