<!DOCTYPE svg PUBLIC "-//W3C//DTD SVG 1.1//EN" "http://www.w3.org/Graphics/SVG/1.1/DTD/svg11.dtd">
<!-- Uploaded to: SVG Repo, www.svgrepo.com, Transformed by: SVG Repo Mixer Tools -->
<svg version="1.1" id="Layer_1" xmlns="http://www.w3.org/2000/svg" xmlns:xlink="http://www.w3.org/1999/xlink" viewBox="-102.4 -102.4 716.80 716.80" xml:space="preserve" width="800px" height="800px" fill="#000000">
<g id="SVGRepo_bgCarrier" stroke-width="0">
<rect x="-102.4" y="-102.4" width="716.80" height="716.80" rx="358.4" fill="#e9edf1" strokewidth="0"/>
</g>
<g id="SVGRepo_tracerCarrier" stroke-linecap="round" stroke-linejoin="round"/>
<g id="SVGRepo_iconCarrier"> <path style="fill:#fefefe;" d="M451.952,468.32H60.048C27.024,468.32,0,441.296,0,408.272V103.728 C0,70.704,27.024,43.68,60.048,43.68h391.896c33.032,0,60.056,27.024,60.056,60.048v304.544 C512,441.296,484.976,468.32,451.952,468.32z"/> <path d="M512,138.184v-34.456c0-33.032-27.024-60.048-60.048-60.048H60.048C27.024,43.68,0,70.704,0,103.728v34.456L512,138.184 L512,138.184z"/> <circle style="fill:#fefefe;" cx="58.4" cy="90.928" r="13.424"/> <circle style="fill:#FF9900;" cx="96.64" cy="90.928" r="13.424"/> <circle style="fill:#30D1E2;" cx="134.904" cy="90.928" r="13.424"/> <g> <rect x="429.392" y="87.168" style="fill:#FFFFFF;" width="30.416" height="6.824"/> <polygon style="fill:#FFFFFF;" points="450.872,111.088 445.728,106.608 459.376,90.928 445.728,75.256 450.872,70.776 468.448,90.928 "/> <path style="fill:#FFFFFF;" d="M379.264,112.296H208.336c-11.752,0-21.368-9.616-21.368-21.368l0,0 c0-11.752,9.616-21.368,21.368-21.368h170.928c11.752,0,21.368,9.616,21.368,21.368l0,0 C400.632,102.68,391.016,112.296,379.264,112.296z"/> </g> <path d="M212.656,101.152l-4.704-19.24h3.744l1.824,8.736c0.48,2.344,0.936,4.8,1.256,6.704h0.056c0.32-2.024,0.856-4.304,1.4-6.736 l2.08-8.704h3.68l1.92,8.856c0.48,2.28,0.88,4.424,1.16,6.504h0.064c0.336-2.12,0.8-4.304,1.304-6.656l2-8.704h3.576l-5.176,19.24 h-3.76l-2-9.056c-0.496-2.184-0.824-4.016-1.056-6.104h-0.064c-0.336,2.056-0.704,3.92-1.28,6.104l-2.224,9.056 C216.456,101.152,212.656,101.152,212.656,101.152z"/> <path d="M237.712,101.152l-4.704-19.24h3.744l1.824,8.736c0.48,2.344,0.936,4.8,1.256,6.704h0.056c0.32-2.024,0.856-4.304,1.4-6.736 l2.08-8.704h3.68l1.92,8.856c0.48,2.28,0.88,4.424,1.16,6.504h0.064c0.336-2.12,0.8-4.304,1.304-6.656l2-8.704h3.576l-5.176,19.24 h-3.76l-2-9.056c-0.496-2.184-0.824-4.016-1.056-6.104h-0.064c-0.336,2.056-0.704,3.92-1.28,6.104l-2.224,9.056 C241.512,101.152,237.712,101.152,237.712,101.152z"/> <path d="M262.768,101.152l-4.704-19.24h3.744l1.824,8.736c0.48,2.344,0.936,4.8,1.256,6.704h0.056c0.32-2.024,0.856-4.304,1.4-6.736 l2.08-8.704h3.68l1.92,8.856c0.48,2.28,0.88,4.424,1.16,6.504h0.064c0.336-2.12,0.8-4.304,1.304-6.656l2-8.704h3.576l-5.176,19.24 h-3.76l-2-9.056c-0.496-2.184-0.824-4.016-1.056-6.104h-0.064c-0.336,2.056-0.704,3.92-1.28,6.104l-2.224,9.056 C266.568,101.152,262.768,101.152,262.768,101.152z"/> <path d="M282.064,99.208c0-1.304,0.92-2.256,2.176-2.256c1.28,0,2.176,0.92,2.176,2.256c0,1.296-0.864,2.264-2.176,2.264 C282.96,101.472,282.064,100.504,282.064,99.208z"/> <path d="M307.16,407.296c-18.528,9.768-37.384,13.464-59.952,13.464c-55.248,0-102.056-40.416-102.056-105.088 c0-69.4,48.168-129.352,122.952-129.352c58.6,0,98.024,41.096,98.024,97.352c0,50.528-28.296,80.16-59.968,80.16 c-13.464,0-25.936-9.088-24.928-29.632h-1.336c-11.792,19.864-27.288,29.632-47.496,29.632c-19.536,0-36.392-15.824-36.392-42.432 c0-41.784,33.024-79.832,79.832-79.832c14.488,0,27.288,3.032,36.048,7.064l-11.448,60.976c-5.064,25.6-1.024,37.384,10.096,37.728 c17.176,0.328,36.376-22.568,36.376-61.648c0-48.848-29.296-83.872-81.512-83.872c-54.904,0-101.048,43.44-101.048,111.832 c0,56.256,36.72,90.952,86.56,90.952c19.216,0,37.056-4.056,50.864-11.808L307.16,407.296z M288.632,261.776 c-3.352-1.008-9.088-2.36-16.84-2.36c-29.632,0-53.552,27.96-53.552,60.64c0,14.816,7.408,25.6,22.224,25.6 c19.536,0,37.384-24.928,41.096-45.8L288.632,261.776z"/> </g>
</svg>