<?xml version="1.0" encoding="iso-8859-1"?>
<!-- Uploaded to: SVG Repo, www.svgrepo.com, Generator: SVG Repo Mixer Tools -->
<svg version="1.1" id="Layer_1" xmlns="http://www.w3.org/2000/svg" xmlns:xlink="http://www.w3.org/1999/xlink" 
	 viewBox="0 0 451.278 451.278" xml:space="preserve">
<ellipse style="fill:#334D5C;" cx="225.639" cy="225.639" rx="225.639" ry="225.639"/>
<path style="opacity:0.1;enable-background:new    ;" d="M310.581,121.93c-2.069-2.21-5.03-3.572-8.321-3.572h-0.893l-19.604-19.558
	l-0.282-0.282c-1.316-1.269-3.056-2.069-5.03-2.069c-3.996,0-7.24,3.197-7.24,7.099v14.81H158.779l-19.839-19.84l-0.094-0.094
	c-1.269-1.222-3.056-1.975-4.983-1.975c-3.996,0-7.24,3.197-7.24,7.099v14.81h-18.57c-6.347,0-11.471,5.03-11.471,11.282v172.628
	c0,2.884,1.136,5.454,2.942,7.413l-0.027,0.015l141.161,141.161c106.182-6.868,192.368-87.121,208.257-190.594L311.098,122.446
	L310.581,121.93z"/>
<path style="fill:#E56353;" d="M313.633,129.751c0.013-6.225-5.097-11.282-11.412-11.295l-194.206-0.399
	c-6.316-0.013-11.446,5.023-11.458,11.249l-0.073,35.739l217.077,0.446L313.633,129.751z"/>
<path style="fill:#EBF0F3;" d="M96.483,165.045l-0.281,136.892c-0.013,6.225,5.097,11.282,11.412,11.296l194.206,0.399
	c6.316,0.013,11.446-5.023,11.458-11.249l0.281-136.892L96.483,165.045z"/>
<g>
	<ellipse style="fill:#D15241;" cx="133.804" cy="133.702" rx="10.291" ry="10.291"/>
	<ellipse style="fill:#D15241;" cx="276.398" cy="134.03" rx="10.291" ry="10.291"/>
</g>
<path style="fill:#E1E6E9;" d="M133.872,96.208l-0.09,43.803c3.981,0.008,7.216-3.166,7.224-7.091l0.061-29.591
	C141.076,99.405,137.853,96.217,133.872,96.208z"/>
<g>
	<path style="fill:#EBF0F3;" d="M126.649,103.3l-0.061,29.591c-0.008,3.925,3.213,7.113,7.195,7.121l0.09-43.803
		C129.891,96.2,126.657,99.375,126.649,103.3z"/>
	<path style="fill:#EBF0F3;" d="M269.229,103.592l-0.061,29.591c-0.008,3.925,3.213,7.113,7.195,7.121l0.09-43.803
		C272.471,96.493,269.237,99.668,269.229,103.592z"/>
</g>
<path style="fill:#E1E6E9;" d="M276.453,96.501l-0.09,43.803c3.981,0.008,7.216-3.167,7.224-7.092l0.061-29.591
	C283.656,99.698,280.434,96.509,276.453,96.501z"/>
<g>
	
		<rect x="194.884" y="179.957" transform="matrix(-1 -0.002 0.002 -1 409.5201 380.4762)" style="fill:#D5D6DB;" width="20.142" height="20.142"/>
	
		<rect x="231.036" y="180.006" transform="matrix(-1 -0.002 0.002 -1 481.8244 380.6473)" style="fill:#D5D6DB;" width="20.142" height="20.142"/>
</g>
<rect x="267.183" y="180.11" transform="matrix(-1 -0.002 0.002 -1 554.1181 380.931)" style="fill:#E56353;" width="20.142" height="20.142"/>
<rect x="122.553" y="212.674" transform="matrix(-1 -0.002 0.002 -1 264.7917 445.7618)" style="fill:#D5D6DB;" width="20.142" height="20.142"/>
<rect x="158.695" y="212.774" transform="matrix(-1 -0.002 0.002 -1 337.0752 446.0353)" style="fill:#44C4A1;" width="20.142" height="20.142"/>
<g>
	
		<rect x="194.837" y="212.827" transform="matrix(-1 -0.002 0.002 -1 409.3589 446.2167)" style="fill:#D5D6DB;" width="20.142" height="20.142"/>
	
		<rect x="230.984" y="212.927" transform="matrix(-1 -0.002 0.002 -1 481.6526 446.4901)" style="fill:#D5D6DB;" width="20.142" height="20.142"/>
</g>
<rect x="267.131" y="212.986" transform="matrix(-1 -0.002 0.002 -1 553.9466 446.6817)" style="fill:#E56353;" width="20.142" height="20.142"/>
<g>
	
		<rect x="122.486" y="245.57" transform="matrix(-1 -0.002 0.002 -1 264.5894 511.5533)" style="fill:#D5D6DB;" width="20.142" height="20.142"/>
	
		<rect x="158.628" y="245.644" transform="matrix(-1 -0.002 0.002 -1 336.873 511.7756)" style="fill:#D5D6DB;" width="20.142" height="20.142"/>
	
		<rect x="194.785" y="245.718" transform="matrix(-1 -0.002 0.002 -1 409.1874 511.998)" style="fill:#D5D6DB;" width="20.142" height="20.142"/>
	
		<rect x="230.881" y="245.792" transform="matrix(-1 -0.002 0.002 -1 481.3789 512.22)" style="fill:#D5D6DB;" width="20.142" height="20.142"/>
</g>
<rect x="267.029" y="245.865" transform="matrix(-1 -0.002 0.002 -1 553.6791 512.4347)" style="fill:#E56353;" width="20.142" height="20.142"/>
<g>
	
		<rect x="122.418" y="278.466" transform="matrix(-1 -0.002 0.002 -1 264.3871 577.3449)" style="fill:#D5D6DB;" width="20.142" height="20.142"/>
	
		<rect x="158.555" y="278.514" transform="matrix(-1 -0.002 0.002 -1 336.6606 577.5159)" style="fill:#D5D6DB;" width="20.142" height="20.142"/>
</g>
<ellipse style="fill:#64798A;" cx="285.379" cy="285.64" rx="69.422" ry="69.422"/>
<ellipse style="fill:#FFFFFF;" cx="285.379" cy="285.64" rx="56.679" ry="56.679"/>
<path style="fill:#E1E6E9;" d="M231.486,286.942c0.063-30.53,24.862-55.228,55.392-55.165c30.297,0.062,54.838,24.489,55.149,54.698
	c0.003-0.232,0.019-0.461,0.019-0.693c0.064-31.296-25.254-56.719-56.551-56.783c-31.296-0.064-56.718,25.254-56.783,56.55
	c-0.064,31.296,25.254,56.719,56.55,56.783c0.233,0,0.462-0.014,0.694-0.016C255.749,341.88,231.424,317.239,231.486,286.942z"/>
<path style="fill:#E56353;" d="M314.175,315.404c-0.323-0.001-0.645-0.125-0.891-0.371L276.6,278.197
	c-0.492-0.494-0.49-1.293,0.004-1.785c0.494-0.492,1.293-0.49,1.785,0.004l36.683,36.835c0.492,0.494,0.491,1.293-0.003,1.785
	C314.821,315.282,314.498,315.404,314.175,315.404z"/>
<path style="fill:#64798A;" d="M287.285,280.266l0.061-29.783c0.002-1.046-0.844-1.895-1.889-1.897s-1.895,0.844-1.897,1.89
	l-0.061,29.783c-1.425,0.498-2.587,1.532-3.252,2.871l-22.735-0.047c-1.395-0.003-2.527,1.124-2.53,2.519
	c-0.003,1.396,1.124,2.527,2.519,2.53l22.735,0.047c0.935,1.904,2.872,3.231,5.133,3.235c3.171,0.007,5.754-2.567,5.761-5.737
	C291.135,283.174,289.521,281.058,287.285,280.266z"/>
<ellipse style="fill:#FFFFFF;" cx="285.381" cy="285.688" rx="3.226" ry="3.226"/>
<g>
	<ellipse style="fill:#3A556A;" cx="285.472" cy="237.659" rx="2.836" ry="2.836"/>
	<ellipse style="fill:#3A556A;" cx="285.272" cy="333.664" rx="2.836" ry="2.836"/>
	<ellipse style="fill:#3A556A;" cx="333.382" cy="285.775" rx="2.836" ry="2.836"/>
	<ellipse style="fill:#3A556A;" cx="237.377" cy="285.544" rx="2.836" ry="2.836"/>
</g>
</svg>