<?xml version="1.0" encoding="iso-8859-1"?>
<!-- Uploaded to: SVG Repo, www.svgrepo.com, Generator: SVG Repo Mixer Tools -->
<svg fill="#fff" height="900px" width="900px" version="1.1" id="Layer_1" xmlns="http://www.w3.org/2000/svg" xmlns:xlink="http://www.w3.org/1999/xlink"
	 viewBox="0 0 512 512" xml:space="preserve">
<g>
	<g>
		<g>
			<path d="M364.534,116.153h-50.179V85.489h93.294c6.157,0,11.151-4.992,11.151-11.151V11.151C418.799,4.992,413.806,0,407.648,0
				H303.204c-6.157,0-11.151,4.992-11.151,11.151v63.187v41.815c0,0-143.28,0-144.586,0c-55.336,0-100.356,45.02-100.356,100.356
				v150.533c0,6.159,4.993,11.151,11.151,11.151h167.259v122.657c0,6.159,4.993,11.151,11.151,11.151h50.178
				c6.157,0,11.151-4.992,11.151-11.151V378.192h155.736c6.157,0,11.151-4.992,11.151-11.151V216.508
				C464.889,161.172,419.87,116.153,364.534,116.153z M314.355,22.301h82.143v40.886h-82.143V22.301z M225.522,309.749h-55.753
				c-6.157,0-11.151,4.992-11.151,11.151s4.993,11.151,11.151,11.151h55.753v23.841H69.413V216.508
				c0-43.039,35.015-78.054,78.054-78.054s78.054,35.015,78.054,78.054V309.749z M275.7,489.699h-27.877V378.192H275.7V489.699z
				 M442.587,309.749h-93.293c-6.157,0-11.151,4.992-11.151,11.151s4.993,11.151,11.151,11.151h93.293v23.841H247.823V216.508
				c0-31.495-14.588-59.641-37.356-78.054h81.586v130.649c0,6.158,4.993,11.151,11.151,11.151c6.157,0,11.151-4.992,11.151-11.151
				V138.454h50.179c43.039,0,78.053,35.015,78.053,78.054V309.749z"/>
			<path d="M169.769,182.328h-44.603c-6.157,0-11.151,4.992-11.151,11.151v50.178c0,6.159,4.993,11.151,11.151,11.151h44.603
				c6.157,0,11.151-4.992,11.151-11.151v-50.178C180.919,187.32,175.926,182.328,169.769,182.328z M158.618,232.506h-22.301V204.63
				h22.301V232.506z"/>
			<path d="M125.166,309.749h-12.266c-6.157,0-11.151,4.992-11.151,11.151s4.993,11.151,11.151,11.151h12.266
				c6.157,0,11.151-4.992,11.151-11.151S131.325,309.749,125.166,309.749z"/>
		</g>
	</g>
</g>
</svg>
