<?xml version="1.0" encoding="iso-8859-1"?>
<!-- Uploaded to: SVG Repo, www.svgrepo.com, Generator: SVG Repo Mixer Tools -->
<svg version="1.1" id="Layer_1" xmlns="http://www.w3.org/2000/svg" xmlns:xlink="http://www.w3.org/1999/xlink" 
	 viewBox="0 0 505 505" xml:space="preserve">
<circle style="fill:#FD8469;" cx="252.5" cy="252.5" r="252.5"/>
<path style="fill:#324A5E;" d="M401.3,106.2H103.7c-11.7,0-21.2,9.5-21.2,21.2v182c0,11.7,9.5,21.2,21.2,21.2h297.6
	c11.7,0,21.2-9.5,21.2-21.2v-182C422.4,115.7,413,106.2,401.3,106.2z"/>
<rect x="107" y="130.6" style="fill:#54C0EB;" width="291" height="175.5"/>
<path style="fill:#324A5E;" d="M432.3,350.2H72.7c-8.3,0-14.1,7.9-11.5,15.6l3.2,9.1c3.8,10.9,14.3,18.2,26,18.2h324.1
	c11.8,0,22.3-7.3,26-18.2l3.2-9.1C446.4,358.1,440.6,350.2,432.3,350.2z"/>
<polygon style="fill:#2B3B4E;" points="307,350.2 198,350.2 207.7,365.6 297.3,365.6 "/>
<path style="fill:#FFFFFF;" d="M252.5,152.6c-36.2,0-65.7,29.5-65.7,65.7s29.5,65.7,65.7,65.7s65.7-29.5,65.7-65.7
	S288.7,152.6,252.5,152.6z M194.9,222.3h19.2c0.3,8.2,1.4,16,3.2,23.1h-15.8C197.7,238.4,195.5,230.6,194.9,222.3z M256.4,183.4
	v-22.3c8.1,2.1,15.4,10.4,20.2,22.3H256.4z M279.5,191.3c2,7,3.3,14.8,3.6,23.1h-26.6v-23.1H279.5z M248.6,161.1v22.3h-20.2
	C233.2,171.5,240.4,163.1,248.6,161.1z M248.6,191.3v23.1H222c0.3-8.2,1.6-16.1,3.6-23.1H248.6z M214.1,214.4h-19.2
	c0.6-8.3,2.8-16.1,6.5-23.1h15.8C215.4,198.4,214.3,206.1,214.1,214.4z M222,222.3h26.6v23.1h-23C223.5,238.3,222.3,230.5,222,222.3
	z M248.6,253.2v22.3c-8.1-2.1-15.4-10.4-20.2-22.3H248.6z M256.4,275.6v-22.3h20.3C271.8,265.1,264.6,273.5,256.4,275.6z
	 M256.4,245.4v-23.1H283c-0.3,8.2-1.6,16.1-3.6,23.1H256.4z M290.9,222.3h19.2c-0.6,8.3-2.8,16.1-6.5,23.1h-15.8
	C289.6,238.3,290.7,230.5,290.9,222.3z M290.9,214.4c-0.3-8.2-1.4-16-3.2-23.1h15.8c3.7,7,6,14.8,6.5,23.1H290.9z M298.5,183.4
	h-13.2c-2.6-7.1-5.9-13.2-9.8-18.1C284.6,169.3,292.5,175.6,298.5,183.4z M229.5,165.3c-3.9,4.9-7.3,11-9.8,18.1h-13.2
	C212.5,175.6,220.4,169.3,229.5,165.3z M206.5,253.2h13.2c2.6,7.1,5.9,13.2,9.8,18.1C220.4,267.4,212.5,261.1,206.5,253.2z
	 M275.5,271.3c3.9-4.9,7.3-11,9.8-18.1h13.2C292.5,261.1,284.6,267.4,275.5,271.3z"/>
</svg>