<?xml version="1.0" encoding="utf-8"?>
<!-- Uploaded to: SVG Repo, www.svgrepo.com, Generator: SVG Repo Mixer Tools -->
<svg fill="#fff" width="800px" height="800px" viewBox="-4.5 0 32 32" version="1.1" xmlns="http://www.w3.org/2000/svg">
<title>folder</title>
<path d="M22.36 8.56c-0.52-0.64-1.28-0.96-2.12-0.96h-7.040c-0.48 0-0.84 0.36-0.84 0.84s0.36 0.84 0.84 0.84h7c0.36 0 0.64 0.12 0.84 0.36s0.28 0.64 0.2 1l-1.56 6.6-0.52-3.88c-0.2-1.52-1.56-2.72-3.12-2.72h-4.84c-0.2-0.4-0.48-0.96-0.64-1.24-0.28-0.6-0.88-1.8-2.72-1.8h-2.36c-1.84 0-2.48 1.2-2.76 1.8-0.12 0.28-0.44 0.88-0.64 1.28-0.56 0.12-1.040 0.4-1.44 0.8-0.48 0.6-0.72 1.32-0.6 2.12l1.080 8.080c0.2 1.52 1.6 2.72 3.12 2.72h13.44c0.76 0 1.48-0.32 1.96-0.88 0.32-0.36 0.52-0.84 0.6-1.32l2.6-11.2c0.24-0.92 0.040-1.8-0.48-2.44zM17.72 22.72h-13.48c-0.68 0-1.36-0.6-1.44-1.28l-1.080-8.080c-0.040-0.28 0.040-0.56 0.2-0.76s0.4-0.28 0.72-0.28 0.6-0.16 0.76-0.44c0 0 0.64-1.28 0.88-1.68 0.24-0.52 0.44-0.88 1.28-0.88h2.36c0.8 0 1 0.36 1.28 0.88 0.2 0.44 0.88 1.68 0.88 1.68 0.16 0.28 0.44 0.44 0.76 0.44h5.36c0.68 0 1.36 0.6 1.44 1.28l1.080 8.080c0.040 0.28-0.040 0.56-0.2 0.76-0.28 0.2-0.52 0.28-0.8 0.28z"></path>
</svg>
