<?xml version="1.0" ?>
<!-- Uploaded to: SVG Repo, www.svgrepo.com, Generator: SVG Repo Mixer Tools -->
<svg fill="#000000" width="800px" height="800px" viewBox="0 0 32 32" xmlns="http://www.w3.org/2000/svg">
<title/>
<g data-name="Layer 16" id="Layer_16">
<path d="M25,8H15.8L13.51,6a4,4,0,0,0-2.64-1H7A4,4,0,0,0,3,9V23a4,4,0,0,0,4,4H25a4,4,0,0,0,4-4V12A4,4,0,0,0,25,8Zm2,15a2,2,0,0,1-2,2H7a2,2,0,0,1-2-2V9A2,2,0,0,1,7,7h3.87a2,2,0,0,1,1.32.49l2.58,2.26a1,1,0,0,0,.66.25H25a2,2,0,0,1,2,2Z"/>
<path d="M16,13a3,3,0,0,0-1,5.82V21a1,1,0,0,0,2,0V18.82A3,3,0,0,0,16,13Zm0,4a1,1,0,1,1,1-1A1,1,0,0,1,16,17Z"/>
</g>
</svg>