<?xml version="1.0" ?>

<!DOCTYPE svg  PUBLIC '-//W3C//DTD SVG 1.1//EN'  'http://www.w3.org/Graphics/SVG/1.1/DTD/svg11.dtd'>

<!-- Uploaded to: SVG Repo, www.svgrepo.com, Generator: SVG Repo Mixer Tools -->
<svg fill="currentColor" width="800px" height="800px" viewBox="0 0 846.66 846.66" style="shape-rendering:geometricPrecision; text-rendering:geometricPrecision; image-rendering:optimizeQuality; fill-rule:evenodd; clip-rule:evenodd"
     version="1.1" xml:space="preserve" xmlns="http://www.w3.org/2000/svg" xmlns:xlink="http://www.w3.org/1999/xlink">

<defs>

<style type="text/css">
   <![CDATA[
    .fil0 {fill:currentColor;fill-rule:nonzero}
   ]]>
  </style>

</defs>

<g id="Layer_x0020_1">

<path class="fil0" d="M29.27 87.32l788.12 0c11.47,0 20.76,9.3 20.76,20.76l0 630.5c0,11.46 -9.29,20.75 -20.76,20.75l-788.12 0c-11.46,0 -20.76,-9.29 -20.76,-20.75l0 -630.5c0,-11.46 9.3,-20.76 20.76,-20.76zm258.76 376.55l59.01 0c1.52,-33.8 6.93,-72.15 19.48,-103.8 -41.84,19.11 -71.55,58.18 -78.49,103.8zm100.56 0l69.48 0c-0.77,-15.83 -13.26,-116.11 -34.74,-116.11 -21.48,0 -33.97,100.28 -34.74,116.11zm111.03 0l59.01 0c-6.94,-45.62 -36.65,-84.69 -78.49,-103.8 12.55,31.68 17.95,69.96 19.48,103.8zm59.01 41.52l-59.01 0c-1.53,33.84 -6.93,72.11 -19.48,103.8 41.84,-19.12 71.55,-58.18 78.49,-103.8zm-100.56 0l-69.48 0c0.77,15.82 13.26,116.11 34.74,116.11 21.48,0 33.97,-100.29 34.74,-116.11zm-111.03 0l-59.01 0c6.94,45.62 36.65,84.68 78.49,103.8 -12.55,-31.66 -17.96,-69.99 -19.48,-103.8zm76.29 -199.14c98.52,0 178.38,79.86 178.38,178.38 0,98.51 -79.86,178.38 -178.38,178.38 -98.51,0 -178.38,-79.87 -178.38,-178.38 0,-98.52 79.86,-178.38 178.38,-178.38zm-373.31 -91.95l746.62 0 0 -85.46 -746.62 0 0 85.46zm746.62 41.51l-746.62 0 0 462.01 746.62 0 0 -462.01z"/>

</g>

</svg>
