<?xml version="1.0" ?>

<!-- Uploaded to: SVG Repo, www.svgrepo.com, Generator: SVG Repo Mixer Tools -->
<svg width="800px" height="800px" viewBox="0 0 64 64" xmlns="http://www.w3.org/2000/svg" stroke="#000000" stroke-width="1">

<defs>


</defs>

<title/>

<g data-name="outline color" id="outline_color">

<path class="cls-1" d="M52.7,57.9H50.59a1,1,0,0,1,0-2H52.7A5.29,5.29,0,0,0,58,50.6a5.32,5.32,0,0,0-4.23-5.19,1,1,0,0,1,.4-2A7.3,7.3,0,0,1,52.7,57.9Z"/>

<path class="cls-1" d="M38,57.9H35.9a7.3,7.3,0,0,1-1.47-14.45,1,1,0,0,1,.4,2A5.29,5.29,0,0,0,30.6,50.6a5.31,5.31,0,0,0,5.3,5.3H38a1,1,0,0,1,0,2Z"/>

<path class="cls-1" d="M44.3,60a11.38,11.38,0,0,1-6.89-2.3,1,1,0,0,1,1.2-1.6A9.47,9.47,0,0,0,50,56.1a1,1,0,0,1,1.2,1.6A11.38,11.38,0,0,1,44.3,60Z"/>

<path class="cls-1" d="M54,45.43a1,1,0,0,1-.92-.61,9.49,9.49,0,0,0-17.5,0A1,1,0,1,1,33.71,44a11.49,11.49,0,0,1,21.18,0,1,1,0,0,1-.53,1.31A.91.91,0,0,1,54,45.43Z"/>

<path class="cls-1" d="M25.68,52.9H25.3a7.3,7.3,0,0,1-1.47-14.45,1,1,0,1,1,.4,2A5.29,5.29,0,0,0,20,45.6a5.31,5.31,0,0,0,5.3,5.3h.38a1,1,0,0,1,0,2Z"/>

<path class="cls-1" d="M24,40.43a.91.91,0,0,1-.39-.08A1,1,0,0,1,23.11,39a11.48,11.48,0,0,1,17-5.07A1,1,0,0,1,39,35.63,9.35,9.35,0,0,0,33.7,34,9.45,9.45,0,0,0,25,39.82,1,1,0,0,1,24,40.43Z"/>

<path class="cls-2" d="M15,45.82a1,1,0,0,1-.91-.59L4.56,23.84a5,5,0,0,1,2.52-6.61L28,7.9a1,1,0,1,1,.82,1.82L7.9,19.05a3,3,0,0,0-1.52,4l9.56,21.39a1,1,0,0,1-.5,1.32A1,1,0,0,1,15,45.82Z"/>

<path class="cls-3" d="M17.67,34.12a3,3,0,1,1,2.74-4.23h0a3,3,0,0,1-1.52,4A3.07,3.07,0,0,1,17.67,34.12Zm0-4a1.15,1.15,0,0,0-.41.08,1,1,0,0,0-.51,1.33,1,1,0,0,0,1.33.5,1,1,0,0,0,.5-1.32h0A1,1,0,0,0,17.67,30.12Z"/>

<path class="cls-3" d="M18.81,30.48A1,1,0,0,1,18,28.91l3.66-5.23a1,1,0,0,1,1.64,1.14l-3.66,5.23A1,1,0,0,1,18.81,30.48Z"/>

<path d="M19.79,32.27h-.21a1,1,0,1,1,.14-2h.14a1,1,0,0,1-.07,2Z"/>

<path class="cls-2" d="M17.59,39.76a1,1,0,0,1-1-.81,5.12,5.12,0,0,1,.23-2.77l11.06-29a5,5,0,0,1,6.46-2.9L56.79,12.9a5,5,0,0,1,2.89,6.45l-6.62,17.3a1,1,0,0,1-1.86-.72l6.61-17.29a3,3,0,0,0-1.74-3.88L33.65,6.19a3,3,0,0,0-3.88,1.74l-.46,1.23L18.71,36.89a3.09,3.09,0,0,0-.14,1.68,1,1,0,0,1-.79,1.17Z"/>

<path class="cls-3" d="M32,24.64a3.07,3.07,0,0,1-1.07-.2,3,3,0,1,1,1.07.2Zm0-4a1,1,0,0,0-.35,1.93A1,1,0,0,0,33,22a1,1,0,0,0-.58-1.3A1.13,1.13,0,0,0,32,20.64Z"/>

<path class="cls-3" d="M49.26,21.59a3,3,0,0,1-2.74-1.78,3,3,0,0,1,3.81-4,3,3,0,0,1,.15,5.54A3.07,3.07,0,0,1,49.26,21.59Zm0-4a1.15,1.15,0,0,0-.41.08,1,1,0,0,0-.53.56,1.08,1.08,0,0,0,0,.77,1,1,0,0,0,1.33.5,1,1,0,0,0,.52-.55h0a1,1,0,0,0-.58-1.29A1,1,0,0,0,49.26,17.59Z"/>

<path class="cls-3" d="M34,22.29a1,1,0,0,1-.17-2L47.12,18a1,1,0,1,1,.34,2L34.17,22.27A.47.47,0,0,1,34,22.29Z"/>

<path class="cls-3" d="M39.49,31.22a1,1,0,0,1-.75-.34l-6.16-7.07a1,1,0,0,1,1.51-1.32l6.16,7.07a1,1,0,0,1-.1,1.41A1,1,0,0,1,39.49,31.22Z"/>

</g>

</svg>
