<?xml version="1.0" encoding="iso-8859-1"?>
<!-- Uploaded to: SVG Repo, www.svgrepo.com, Generator: SVG Repo Mixer Tools -->
<svg fill="#000000" height="800px" width="800px" version="1.1" id="Layer_1" xmlns="http://www.w3.org/2000/svg" xmlns:xlink="http://www.w3.org/1999/xlink" 
	 viewBox="0 0 368 368" xml:space="preserve">
<g>
	<g>
		<g>
			<path d="M9.2,204c4.4-0.4,7.6-4.4,7.2-8.8C16,191.6,16,188,16,184c0-4.4-3.6-8-8-8s-8,3.6-8,8c0,4,0,8.4,0.4,12.8
				c0.4,4,4,7.2,8,7.2C8.8,204,8.8,204,9.2,204z"/>
			<path d="M184,0C132,0,82.4,22.4,48,60.4V8c0-4.4-3.6-8-8-8s-8,3.6-8,8v80c0,4.4,3.6,8,8,8h80c4.4,0,8-3.6,8-8c0-4.4-3.6-8-8-8
				H52.4C84,40,132.8,16,184,16c92.8,0,168,75.2,168,168s-75.2,168-168,168c-74.4,0-140.8-50-161.6-122c-1.2-4.4-5.6-6.8-10-5.6
				c-4.4,1.2-6.8,5.6-5.6,10C29.6,313.2,102.4,368,184,368c101.6,0,184-82.4,184-184S285.6,0,184,0z"/>
			<path d="M184,92c-4.4,0-8,3.6-8,8v76c0,2,0.8,4,2.4,5.6l87.6,87.6c1.6,1.6,3.6,2.4,5.6,2.4s4-0.8,5.6-2.4c3.2-3.2,3.2-8,0-11.2
				L192,172.8V100C192,95.6,188.4,92,184,92z"/>
		</g>
	</g>
</g>
</svg>