<!DOCTYPE svg PUBLIC "-//W3C//DTD SVG 1.1//EN" "http://www.w3.org/Graphics/SVG/1.1/DTD/svg11.dtd">
<!-- Uploaded to: SVG Repo, www.svgrepo.com, Transformed by: SVG Repo Mixer Tools -->
<svg width="800px" height="800px" viewBox="-6.24 -6.24 36.48 36.48" id="meteor-icon-kit__solid-harddisk" fill="none" xmlns="http://www.w3.org/2000/svg">
<g id="SVGRepo_bgCarrier" stroke-width="0">
<rect x="-6.24" y="-6.24" width="36.48" height="36.48" rx="18.24" fill="#324A5E" strokewidth="0"/>
</g>
<g id="SVGRepo_tracerCarrier" stroke-linecap="round" stroke-linejoin="round"/>
<g id="SVGRepo_iconCarrier">
<path fill-rule="evenodd" clip-rule="evenodd" d="M0.691527 13.2189L2.71124 2.44713C2.97728 1.02822 4.21621 0 5.65985 0H18.3401C19.7838 0 21.0227 1.02822 21.2888 2.44713L23.3085 13.2189C22.8985 13.0771 22.4582 13 22 13H2C1.54176 13 1.10152 13.0771 0.691527 13.2189zM2 15H22C23.1046 15 24 15.8954 24 17V19C24 20.1046 23.1046 21 22 21H2C0.89543 21 0 20.1046 0 19V17C0 15.8954 0.89543 15 2 15zM21 19C21.5523 19 22 18.5523 22 18C22 17.4477 21.5523 17 21 17C20.4477 17 20 17.4477 20 18C20 18.5523 20.4477 19 21 19zM18 19C18.5523 19 19 18.5523 19 18C19 17.4477 18.5523 17 18 17C17.4477 17 17 17.4477 17 18C17 18.5523 17.4477 19 18 19z" fill="#ffac2f"/>
</g>
</svg>