<?xml version="1.0" encoding="iso-8859-1"?>
<!-- Uploaded to: SVG Repo, www.svgrepo.com, Generator: SVG Repo Mixer Tools -->
<svg height="800px" width="800px" version="1.1" id="Layer_1" xmlns="http://www.w3.org/2000/svg" xmlns:xlink="http://www.w3.org/1999/xlink" 
	 viewBox="0 0 505 505" xml:space="preserve">
<circle style="fill:#90DFAA;" cx="252.5" cy="252.5" r="252.5"/>
<path style="fill:#324A5E;" d="M404.1,122.9H100.9c-12.5,0-22.6,10.1-22.6,22.6v53.3h348.3v-53.3C426.7,133,416.6,122.9,404.1,122.9
	z"/>
<path style="fill:#FFFFFF;" d="M426.7,169.8v189.8c0,12.5-10.1,22.6-22.6,22.6H100.9c-12.5,0-22.6-10.1-22.6-22.6V169.8h117.8
	l11.4-17h62.9l11.3,17H426.7z"/>
<polygon style="fill:#84DBFF;" points="110.6,169.8 196.1,169.8 184.8,152.8 121.9,152.8 "/>
<circle style="fill:#FF7058;" cx="394.4" cy="147.7" r="10.1"/>
<circle style="fill:#84DBFF;" cx="355.6" cy="147.7" r="10.1"/>
<g>
	<path style="fill:#FF7058;" d="M330.8,283.4l-26.3,11.3c-17.7,7.6-38.3-0.6-46-18.3c-7.6-17.7,0.6-38.3,18.3-45.9l26.2-11.3
		c17.7-7.6,38.3,0.6,45.9,18.3C356.7,255.2,348.5,275.8,330.8,283.4z M282.7,244c-10.3,4.4-15,16.4-10.6,26.7
		c4.4,10.3,16.4,15,26.7,10.6L325,270c10.3-4.4,15-16.4,10.6-26.7s-16.4-15-26.7-10.6L282.7,244z"/>
	<path style="fill:#FF7058;" d="M228.2,327.7L202,339c-17.7,7.6-38.3-0.6-46-18.3c-7.6-17.7,0.6-38.3,18.3-45.9l26.2-11.3
		c17.7-7.6,38.3,0.6,46,18.3C254.2,299.5,245.9,320,228.2,327.7z M180,288.2c-10.3,4.4-15,16.4-10.6,26.7
		c4.4,10.3,16.4,15,26.7,10.6l26.2-11.3c10.3-4.4,15-16.4,10.6-26.7c-4.4-10.3-16.4-15-26.7-10.6L180,288.2z"/>
</g>
<path style="fill:#324A5E;" d="M293.9,269.2l-77,33.2c-3.7,1.6-8-0.1-9.6-3.8c-1.6-3.7,0.1-8,3.8-9.6l77-33.2c3.7-1.6,8,0.1,9.6,3.8
	S297.6,267.6,293.9,269.2z"/>
</svg>