<?xml version="1.0" encoding="iso-8859-1"?>
<!-- Uploaded to: SVG Repo, www.svgrepo.com, Generator: SVG Repo Mixer Tools -->
<svg height="800px" width="800px" version="1.1" id="Layer_1" xmlns="http://www.w3.org/2000/svg" xmlns:xlink="http://www.w3.org/1999/xlink" 
	 viewBox="0 0 505 505" xml:space="preserve">
<circle style="fill:#324A5E;" cx="252.5" cy="252.5" r="252.5"/>
<path style="fill:#FFFFFF;" d="M330.3,365.7h-69.5v-69.3H244v69.3h-69.5c-0.9,0-1.6,0.7-1.6,1.6v13.2c0,0.9,0.7,1.6,1.6,1.6H244
	h16.8h69.5c0.9,0,1.6-0.7,1.6-1.6v-13.2C331.9,366.4,331.2,365.7,330.3,365.7z"/>
<circle style="fill:#84DBFF;" cx="252.5" cy="373.6" r="18.2"/>
<path style="fill:#FFD05B;" d="M380.6,139.2H247.5c-2.8,0-5.5-1.2-7.3-3.3l-18.1-20.6c-1.9-2.1-4.5-3.3-7.3-3.3h-90.4
	c-5.4,0-9.8,4.4-9.8,9.8v192.3c0,5.4,4.4,9.8,9.8,9.8h256.2c5.4,0,9.8-4.4,9.8-9.8v-165C390.4,143.5,386,139.2,380.6,139.2z"/>
</svg>