<?xml version="1.0" encoding="iso-8859-1"?>
<!-- Uploaded to: SVG Repo, www.svgrepo.com, Generator: SVG Repo Mixer Tools -->
<svg height="800px" width="800px" version="1.1" id="Layer_1" xmlns="http://www.w3.org/2000/svg" xmlns:xlink="http://www.w3.org/1999/xlink" 
	 viewBox="0 0 505 505" xml:space="preserve">
<circle style="fill:#FFD05B;" cx="252.5" cy="252.5" r="252.5"/>
<path style="fill:#FFFFFF;" d="M385.7,170.9c1.9-5.7,3-11.7,3-18c0-30.7-24.9-55.6-55.6-55.6c-7.8,0-15.2,1.6-21.9,4.5
	c-14.3-25.1-41.2-42-72.1-42c-41.2,0-75.4,30.1-81.8,69.5c-0.4,0-0.7,0-1.1,0c-36.7,0-66.5,29.8-66.5,66.5s29.8,66.5,66.5,66.5
	h211.9c26.2,0,47.4-21.2,47.4-47.4C415.4,194.9,403.1,177.9,385.7,170.9z"/>
<g>
	<polygon style="fill:#324A5E;" points="326.4,359.4 326.4,386.1 178.6,386.1 178.6,359.4 153,359.4 153,413.7 178.6,413.7 
		326.4,413.7 352,413.7 352,359.4 	"/>
	<polygon style="fill:#324A5E;" points="240.1,331.1 240.1,373.9 264.9,373.9 264.9,331.1 299.6,331.1 252.5,284 205.4,331.1 	"/>
</g>
</svg>