<?xml version="1.0" encoding="iso-8859-1"?>
<!-- Uploaded to: SVG Repo, www.svgrepo.com, Generator: SVG Repo Mixer Tools -->
<svg height="800px" width="800px" version="1.1" id="Layer_1" xmlns="http://www.w3.org/2000/svg" xmlns:xlink="http://www.w3.org/1999/xlink" 
	 viewBox="0 0 511.992 511.992" xml:space="preserve">
<circle style="fill:#00A085;" cx="255.996" cy="255.996" r="255.996"/>
<path style="fill:#048C75;" d="M507.724,302.762L385.56,180.597L119.698,359.428l152.073,152.073
	C390.077,504.307,486.678,416.784,507.724,302.762z"/>
<path style="fill:#FBBE00;" d="M124.391,179h231.408c7.196,0,13.066,5.888,13.048,13.08l-0.05,19.443h22.712
	c6.312,0,10.544,5.161,9.409,11.476l-23.754,131.976c-1.137,6.312-7.229,11.476-13.54,11.476H129.002
	c-4.737,0-8.304-2.906-9.308-7.024l-6.524-9.531v-0.004c-1.439-2.1-2.28-4.643-2.273-7.372l0.377-150.441
	c0.018-7.193,5.92-13.08,13.113-13.08h0.004V179z"/>
<path style="fill:#F9F9F9;" d="M153.872,136.238l231.684,44.359l-4.949,31.207l-22.378,0.14l0.068-15.929l-214.706-2.053
	l10.278-57.727v0.003H153.872z"/>
<path style="fill:#E6E6E6;" d="M123.686,193.774l234.608,2.244l-0.068,15.929H158.59c-8.516,0-18.407-0.51-20.323,8.728
	l-4.118,21.978l-8.775-8.099l-1.687-40.777L123.686,193.774L123.686,193.774z"/>
<path style="fill:#FEFEFE;" d="M216.037,229.983c3.611,0,6.546,2.931,6.546,6.542s-2.931,6.546-6.546,6.546
	c-3.611,0-6.542-2.931-6.542-6.546C209.495,232.915,212.425,229.983,216.037,229.983z"/>
<path style="fill:#F7A707;" d="M128.128,231.796l6.024,10.855l-14.454,116.777l-6.524-9.534l4.69-122.449l10.268,4.348
	L128.128,231.796z"/>
</svg>