<?xml version="1.0" encoding="utf-8"?><!-- Uploaded to: SVG Repo, www.svgrepo.com, Generator: SVG Repo Mixer Tools -->
<svg width="800px" height="800px" viewBox="0 0 24 24" fill="none" xmlns="http://www.w3.org/2000/svg">
<path d="M19 10V6C19 5.44772 18.5523 5 18 5H10.0351C9.73195 5 9.44513 4.86245 9.25533 4.62602L8.25023 3.37398C8.06042 3.13755 7.77361 3 7.47042 3H3C2.44772 3 2 3.44772 2 4L2 15C2 15.5523 2.44772 16 3 16H5" stroke="#200E32" stroke-width="2"/>
<path d="M5 20V9C5 8.44772 5.44772 8 6 8H10.4704C10.7736 8 11.0604 8.13755 11.2502 8.37398L12.2553 9.62602C12.4451 9.86245 12.7319 10 13.0351 10H21C21.5523 10 22 10.4477 22 11V20C22 20.5523 21.5523 21 21 21H6C5.44772 21 5 20.5523 5 20Z" stroke="#200E32" stroke-width="2"/>
</svg>