<?xml version="1.0" encoding="iso-8859-1"?>
<!-- Uploaded to: SVG Repo, www.svgrepo.com, Generator: SVG Repo Mixer Tools -->
<svg fill="currentColor" height="800px" width="800px" version="1.1" id="Layer_1" xmlns="http://www.w3.org/2000/svg" xmlns:xlink="http://www.w3.org/1999/xlink"
	 viewBox="0 0 491.52 491.52" xml:space="preserve">
<g>
	<g>
		<path d="M421.99,149.695c4.24-13.23,5.945-26.99,5.08-41.06c-3.665-59.43-56.605-108.16-118.005-108.63c-0.32,0-0.635,0-0.95,0
			c-49.565,0-93.775,30.22-111.235,74.14c-18.18-14.39-41.68-21.37-65.58-19.19c-33.985,3.19-63.645,25.89-75.565,57.83
			c-5.27,14.13-6.62,28.64-4.045,43.25C20.435,170.715,0,201.775,0,235.895c0,49.3,38.76,85.08,92.16,85.08h20.48v68.14h102.4
			v-20.48h-75.635l51.2-102.4h183.19l-42.74,102.4h-54.62v20.48h68.26l22.531-53.979l7.309-0.021
			c105.585-9.06,116.985-72.41,116.985-99.22C491.52,194.275,462.43,159.215,421.99,149.695z M348.16,245.755H177.945l-44.825,89.65
			v-151.09h57.2l30.72,30.72h127.12V245.755z M375.875,314.416l28.66-68.661H368.64v-51.2H229.52l-30.72-30.72h-86.16v136.66H92.16
			c-42.205,0-71.68-26.56-71.68-64.6c0-28.47,18.705-54.2,46.545-64.05l9.075-3.21l-2.645-9.25c-3.81-13.34-3.315-26.61,1.47-39.44
			c9.19-24.63,32.07-42.13,58.285-44.59c23.26-2.23,45.985,6.88,60.7,24.26l13.27,15.66l4.53-20.02
			c9.89-43.68,50.935-75.41,97.195-74.77c50.87,0.39,94.705,40.5,97.725,89.41c0.93,15.11-1.775,29.79-8.03,43.64l-5.915,13.09
			l14.3,1.33c36.52,3.38,64.055,32.59,64.055,67.94C471.04,267.695,454.227,306.929,375.875,314.416z"/>
	</g>
</g>
<g>
	<g>
		<polygon points="327.585,404.475 327.585,471.035 163.84,471.035 163.84,404.475 143.36,404.475 143.36,491.515 348.065,491.515
			348.065,404.475 		"/>
	</g>
</g>
<g>
	<g>
		<polygon points="275.205,401.465 256,420.67 256,338.385 235.52,338.385 235.52,420.762 216.22,401.465 201.74,415.945
			245.715,459.915 289.685,415.945 		"/>
	</g>
</g>
</svg>
