<?xml version="1.0" encoding="iso-8859-1"?>
<!-- Uploaded to: SVG Repo, www.svgrepo.com, Generator: SVG Repo Mixer Tools -->
<svg height="800px" width="800px" version="1.1" id="Layer_1" xmlns="http://www.w3.org/2000/svg" xmlns:xlink="http://www.w3.org/1999/xlink" 
	 viewBox="0 0 505 505" xml:space="preserve">
<circle style="fill:#FFD05B;" cx="252.5" cy="252.5" r="252.5"/>
<path style="fill:#FFFFFF;" d="M97.5,174.3v170.1c0,16.7,13.5,30.2,30.2,30.2h249.6c16.7,0,30.2-13.5,30.2-30.2V174.3H97.5z"/>
<path style="fill:#324A5E;" d="M377.3,130.4H127.7c-16.7,0-30.2,13.5-30.2,30.2v23.5h310v-23.5C407.5,143.9,394,130.4,377.3,130.4z"
	/>
<g>
	<circle style="fill:#FFFFFF;" cx="369.5" cy="158.8" r="10.1"/>
	<circle style="fill:#FFFFFF;" cx="331.4" cy="158.8" r="10.1"/>
	<circle style="fill:#FFFFFF;" cx="293.4" cy="158.8" r="10.1"/>
</g>
<path style="fill:#54C0EB;" d="M349.6,264.4c-53.6-53.6-140.6-53.6-194.2,0L144,275.8l11.4,11.4c53.6,53.6,140.6,53.6,194.2,0
	l11.4-11.4L349.6,264.4z"/>
<circle style="fill:#FFFFFF;" cx="252.5" cy="275.8" r="38.2"/>
<path style="fill:#54C0EB;" d="M274.4,275.8c0,12.1-9.8,21.9-21.9,21.9s-21.9-9.8-21.9-21.9c0-4.2,1.2-8.1,3.3-11.4
	c1.3,2.2,3.8,3.7,6.6,3.7c4.3,0,7.8-3.5,7.8-7.8c0-2.1-0.8-4-2.2-5.4c2-0.6,4.2-0.9,6.4-0.9C264.6,253.9,274.4,263.7,274.4,275.8z"
	/>
</svg>