<?xml version="1.0" encoding="iso-8859-1"?>
<!-- Uploaded to: SVG Repo, www.svgrepo.com, Generator: SVG Repo Mixer Tools -->
<svg version="1.1" id="Layer_1" xmlns="http://www.w3.org/2000/svg" xmlns:xlink="http://www.w3.org/1999/xlink" 
	 viewBox="0 0 512 512" xml:space="preserve">
<circle style="fill:#21D0C3;" cx="256" cy="256" r="256"/>
<ellipse style="fill:#15BDB2;" cx="256" cy="421.646" rx="182.284" ry="14.369"/>
<path style="fill:#666666;" d="M65.979,67.222h380.037c12.485,0,22.702,10.217,22.702,22.702V324.03H43.282V89.922
	c0-12.485,10.217-22.702,22.702-22.702L65.979,67.222L65.979,67.222z"/>
<path style="fill:#DCE3DB;" d="M58.695,308.617h394.609V89.927c0-3.977-3.308-7.289-7.284-7.289H65.984
	c-3.977,0-7.284,3.307-7.284,7.289v218.69H58.695z"/>
<g>
	<path style="fill:#FFFFFF;" d="M468.718,324.03v24.826c0,12.49-11.261,22.702-25.024,22.702H68.307
		c-13.764,0-25.024-10.212-25.024-22.702V324.03H468.718z"/>
	<path style="fill:#FFFFFF;" d="M141.237,115.529h229.525h34.165c4.143,0,7.528,3.39,7.528,7.528v44.793v140.767H99.544V167.851
		v-44.793c0-4.143,3.385-7.528,7.528-7.528L141.237,115.529L141.237,115.529z"/>
</g>
<rect x="166.505" y="186.496" style="fill:#ECF0F1;" width="179.719" height="25.091"/>
<path style="fill:#828282;" d="M107.072,115.529h297.855c4.143,0,7.528,3.385,7.528,7.528v15.053H99.544v-15.053
	C99.544,118.915,102.929,115.529,107.072,115.529z"/>
<path style="fill:#FFFFFF;" d="M226.385,123.326h163.62c1.113,0,2.023,0.914,2.023,2.023v3.751c0,1.109-0.91,2.023-2.023,2.023
	h-163.62c-1.109,0-2.018-0.91-2.018-2.023v-3.751C224.366,124.235,225.276,123.326,226.385,123.326z"/>
<path style="fill:#21D0C3;" d="M117.335,121.982c2.392,0,4.333,1.94,4.333,4.333s-1.94,4.333-4.333,4.333
	c-2.397,0-4.337-1.94-4.337-4.333C112.998,123.917,114.939,121.982,117.335,121.982z"/>
<rect x="166.505" y="224.162" style="fill:#ECF0F1;" width="179.719" height="25.091"/>
<path style="fill:#FAD24D;" d="M134.438,121.982c2.397,0,4.333,1.94,4.333,4.333s-1.94,4.333-4.333,4.333s-4.333-1.94-4.333-4.333
	C130.106,123.917,132.046,121.982,134.438,121.982z"/>
<path style="fill:#FF5B62;" d="M151.551,121.982c2.392,0,4.333,1.94,4.333,4.333s-1.94,4.333-4.333,4.333
	c-2.397,0-4.338-1.94-4.338-4.333C147.214,123.917,149.154,121.982,151.551,121.982z"/>
<path style="fill:#21D0C3;" d="M221.119,261.303h69.762c3.058,0,5.538,2.479,5.538,5.538v9.533c0,3.058-2.479,5.538-5.538,5.538
	h-69.762c-3.058,0-5.538-2.479-5.538-5.538v-9.533C215.581,263.782,218.06,261.303,221.119,261.303z"/>
<g>
	<circle style="fill:#828282;" cx="183.162" cy="199.041" r="4.637"/>
	<circle style="fill:#828282;" cx="203.532" cy="199.041" r="4.637"/>
	<circle style="fill:#828282;" cx="223.893" cy="199.041" r="4.637"/>
	<circle style="fill:#828282;" cx="244.263" cy="199.041" r="4.637"/>
	<circle style="fill:#828282;" cx="183.162" cy="236.708" r="4.637"/>
	<circle style="fill:#828282;" cx="203.532" cy="236.708" r="4.637"/>
	<circle style="fill:#828282;" cx="223.893" cy="236.708" r="4.637"/>
	<circle style="fill:#828282;" cx="244.263" cy="236.708" r="4.637"/>
	<circle style="fill:#828282;" cx="264.633" cy="236.708" r="4.637"/>
	<circle style="fill:#828282;" cx="284.993" cy="236.708" r="4.637"/>
</g>
<circle style="fill:#B6B6B8;" cx="256" cy="346.803" r="7.815"/>
<path style="fill:#C2C2C4;" d="M305.065,407.27l36.096,11.565H170.839l29.121-11.565v-35.712h105.105V407.27z"/>
<path style="fill:#B6B6B8;" d="M305.065,407.27L199.96,371.557h105.105V407.27z"/>
<path style="fill:#ECF0F1;" d="M199.96,407.27h105.105l36.096,11.565v4.983H256h-85.166v-4.983l29.121-11.565H199.96z"/>
</svg>