<?xml version="1.0" encoding="iso-8859-1"?>
<!-- Uploaded to: SVG Repo, www.svgrepo.com, Generator: SVG Repo Mixer Tools -->
<svg height="800px" width="800px" version="1.1" id="Layer_1" xmlns="http://www.w3.org/2000/svg" xmlns:xlink="http://www.w3.org/1999/xlink" 
	 viewBox="0 0 512 512" xml:space="preserve">
<circle style="fill:#FC6F58;" cx="256" cy="256" r="256"/>
<path style="fill:#F1543F;" d="M508.114,300.639L369.778,162.302L202.559,328.404l-58.901,69.818l113.761,113.761
	C382.942,511.3,487.072,420.29,508.114,300.639z"/>
<polygon style="fill:#FFFFFF;" points="321.253,113.778 143.658,113.778 143.658,398.222 369.778,398.222 369.778,162.302 "/>
<polygon style="fill:#E6F3FF;" points="369.778,162.302 321.253,113.778 236.463,113.778 236.463,398.222 369.778,398.222 "/>
<polygon style="fill:#CFDBE6;" points="321.253,162.304 369.778,162.302 321.253,113.778 "/>
<circle style="fill:#26BEBE;" cx="237.037" cy="215.143" r="37.9"/>
<path style="fill:#4CDBC4;" d="M158.868,334.76c0-43.172,34.997-78.169,78.169-78.169s78.169,34.997,78.169,78.169L158.868,334.76
	L158.868,334.76z"/>
<path style="fill:#2C9984;" d="M237.037,177.24c-0.193,0-0.383,0.012-0.574,0.014v75.771c0.191,0.003,0.381,0.016,0.574,0.016
	c20.932,0,37.9-16.968,37.9-37.9S257.969,177.24,237.037,177.24z"/>
<path style="fill:#3FC9AE;" d="M237.037,256.593c-0.193,0-0.381,0.014-0.574,0.014v78.153h78.743
	C315.206,291.59,280.209,256.593,237.037,256.593z"/>
<path style="fill:#324A5E;" d="M354.544,305.057l-5.213-1.35c-0.129-1.488-0.331-2.962-0.615-4.415l4.636-2.729
	c2.634-1.552,3.513-4.944,1.962-7.58l-8.635-14.667c-1.552-2.636-4.944-3.513-7.58-1.962l-4.636,2.729
	c-1.133-0.953-2.324-1.845-3.562-2.679l1.35-5.213c0.767-2.96-1.012-5.98-3.972-6.747l-16.477-4.267
	c-2.96-0.767-5.98,1.012-6.747,3.972l-1.35,5.213c-1.488,0.129-2.962,0.331-4.415,0.614l-2.729-4.636
	c-1.552-2.634-4.944-3.513-7.58-1.962l-14.669,8.635c-2.634,1.552-3.513,4.944-1.962,7.58l2.729,4.636
	c-0.953,1.133-1.845,2.322-2.679,3.562l-5.213-1.35c-2.96-0.767-5.98,1.012-6.747,3.972l-4.267,16.477
	c-0.767,2.96,1.012,5.98,3.972,6.747l5.213,1.35c0.129,1.488,0.331,2.962,0.614,4.413l-4.636,2.729
	c-2.634,1.552-3.513,4.944-1.962,7.58l8.635,14.669c1.552,2.634,4.944,3.513,7.58,1.962l4.636-2.729
	c1.133,0.953,2.324,1.845,3.562,2.681l-1.35,5.213c-0.767,2.96,1.012,5.98,3.972,6.747l16.477,4.267
	c2.96,0.767,5.98-1.012,6.747-3.972l1.35-5.213c1.488-0.129,2.962-0.331,4.415-0.614l2.729,4.636
	c1.552,2.634,4.944,3.513,7.58,1.962l14.669-8.635c2.634-1.552,3.513-4.944,1.962-7.58l-2.729-4.636
	c0.953-1.133,1.845-2.324,2.679-3.562l5.213,1.35c2.96,0.767,5.98-1.012,6.747-3.972l4.267-16.477
	C359.283,308.845,357.504,305.824,354.544,305.057z M302.066,327.744c-11.266-2.917-18.032-14.414-15.117-25.678
	c2.917-11.264,14.414-18.032,25.678-15.115c11.266,2.917,18.032,14.414,15.117,25.678
	C324.827,323.893,313.33,330.661,302.066,327.744z"/>
</svg>