<?xml version="1.0" encoding="iso-8859-1"?>
<!-- Uploaded to: SVG Repo, www.svgrepo.com, Generator: SVG Repo Mixer Tools -->
<svg version="1.1" id="Layer_1" xmlns="http://www.w3.org/2000/svg" xmlns:xlink="http://www.w3.org/1999/xlink" 
	 viewBox="0 0 512 512" xml:space="preserve">
<circle style="fill:#3A99D7;" cx="255.997" cy="255.996" r="255.996"/>
<path style="fill:#2682BF;" d="M511.574,241.359c0.273,4.844,0.424,9.725,0.424,14.641c0,141.384-114.616,256-256,256
	c-4.949,0-9.862-0.155-14.738-0.431L121.451,391.76l270.688-269.828L511.57,241.363L511.574,241.359z"/>
<path style="fill:#E84F4F;" d="M128.87,117.483h254.26c6.289,0,11.386,5.098,11.386,11.386v254.26
	c0,6.289-5.098,11.386-11.386,11.386H128.87c-6.289,0-11.386-5.098-11.386-11.386v-254.26
	C117.484,122.58,122.581,117.483,128.87,117.483z"/>
<rect x="124.577" y="158.407" style="fill:#EFEFF0;" width="262.85" height="229.03"/>
<g>
	<path style="fill:#EBECEC;" d="M213.297,130.664h155.217c1.305,0,2.362,1.058,2.362,2.362v6.431c0,1.305-1.058,2.362-2.362,2.362
		H213.297c-1.305,0-2.362-1.058-2.362-2.362v-6.431C210.934,131.721,211.993,130.664,213.297,130.664z"/>
	<path style="fill:#EBECEC;" d="M143.867,128.099c4.499,0,8.146,3.65,8.146,8.146c0,4.499-3.647,8.15-8.146,8.15
		c-4.499,0-8.146-3.65-8.146-8.15C135.721,131.749,139.371,128.099,143.867,128.099z M186.385,128.099c4.499,0,8.15,3.65,8.15,8.146
		c0,4.499-3.65,8.15-8.15,8.15c-4.496,0-8.146-3.65-8.146-8.15C178.239,131.749,181.889,128.099,186.385,128.099z M165.126,128.099
		c4.499,0,8.15,3.65,8.15,8.146c0,4.499-3.65,8.15-8.15,8.15c-4.496,0-8.146-3.65-8.146-8.15
		C156.98,131.749,160.63,128.099,165.126,128.099z"/>
</g>
<path style="fill:#C94545;" d="M284.741,358.158l-37.253-21.237l-3.431-1.956l3.431-1.956l37.253-21.237l3.366-1.924v3.88v14.271
	c11.171-3.704,20.842-10.725,27.83-19.903c7.395-9.711,11.785-21.837,11.785-35c0-15.965-6.474-30.423-16.935-40.885
	s-24.92-16.939-40.885-16.939l-5.272,0.23l-0.367-12.388c1.874-0.147,3.754-0.226,5.639-0.226c19.385,0,36.943,7.862,49.645,20.565
	s20.565,30.257,20.565,49.645c0,16.371-5.61,31.437-15.008,43.377c-9.236,11.732-22.147,20.449-36.994,24.427v15.299v3.877
	l-3.366-1.92H284.741z"/>
<g>
	<path style="fill:#006775;" d="M218.17,231.53c-0.946,1.047-1.698,1.881-2.122,2.464c1.521,1.04,2.816,1.935,3.988,2.752
		c7.488,5.186,10.641,7.372,22.741,12.886l0.842,0.385l-0.615,0.694l-6.283,7.113l-0.291,0.327l-0.417-0.129
		c-8.401-2.572-19.666-11.246-27.093-16.968l-0.302-0.234c-3.075,2.352-7.894,5.953-12.879,9.294
		c-5.247,3.51-10.689,6.733-14.53,7.909l-0.417,0.129l-0.295-0.327l-6.086-6.887l-0.611-0.694l0.842-0.385
		c1.999-0.914,3.517-1.525,4.888-2.075c2.924-1.18,5.193-2.093,9.718-4.934c1.963-1.23,5.499-3.532,8.423-5.675
		c1.579-1.155,2.964-2.251,3.783-3.082c-2.576-2.468-6.19-6.614-9.268-11.182c-2.464-3.654-4.6-7.6-5.621-11.207l-0.241-0.867
		l0.903-0.004l10.652-0.068l0.413-0.004l0.194,0.367c0.791,1.482,1.158,2.384,1.489,3.215c0.536,1.327,1,2.482,3.215,5.762
		c1.086,1.604,2.05,2.946,3.032,4.165c0.889,1.097,1.813,2.125,2.874,3.176c2.301-1.579,6.064-6.434,8.879-11.936
		c2.147-4.19,3.715-8.735,3.629-12.433l-48.257-0.079l-0.687-0.004v-0.683v-9.268v-0.687h0.687l29.991-0.004v-8.516v-0.687h0.687
		h9.197h0.687l-0.004,0.687l-0.011,8.516l30.001-0.007l0.687-0.004v0.69l0.004,9.204l0.004,0.683l-0.69,0.004l-11.581,0.004
		c-0.907,13.932-9.642,23.614-14.156,28.609h-0.004L218.17,231.53z"/>
	<path style="fill:#006775;" d="M171.894,365.545l13.792,0.065l5.7-17.368l34.699-0.04l5.678,17.368l13.602-0.011l-28.833-73.397
		l-15.782-0.036l-28.862,73.419H171.894z M195.333,338.334l26.696,0.19l-13.127-33.958L195.333,338.334z"/>
</g>
</svg>