<?xml version="1.0" encoding="iso-8859-1"?>
<!-- Uploaded to: SVG Repo, www.svgrepo.com, Generator: SVG Repo Mixer Tools -->
<svg version="1.1" id="Layer_1" xmlns="http://www.w3.org/2000/svg" xmlns:xlink="http://www.w3.org/1999/xlink" 
	 viewBox="0 0 451.296 451.296" xml:space="preserve">
<circle style="fill:#EFC84A;" cx="225.648" cy="225.638" r="225.638"/>
<path style="opacity:0.1;enable-background:new    ;" d="M450.137,248.745L353.55,152.16l-0.014,0.014
	c-0.94-1.017-2.258-1.675-3.753-1.675h-62.51l-34.251-34.251c-0.445-0.459-1.062-0.749-1.752-0.749h-51.246
	c-1.35,0-2.445,1.094-2.445,2.445v32.555h-96.068c-2.843,0-5.147,2.305-5.147,5.148v174.985c0,1.518,0.685,2.848,1.73,3.79
	l116.598,116.598c3.631,0.173,7.281,0.277,10.955,0.277C342.474,451.296,438.565,362.518,450.137,248.745z"/>
<path style="fill:#64798A;" d="M349.783,150.498H101.512c-2.843,0-5.147,2.305-5.147,5.148v174.985c0,2.843,2.305,5.148,5.147,5.148
	h248.271c2.843,0,5.148-2.305,5.148-5.148V155.646C354.931,152.803,352.627,150.498,349.783,150.498z"/>
<rect x="108.502" y="180.531" style="fill:#E1E6E9;" width="234.25" height="143.078"/>
<rect x="111.109" y="183.122" style="fill:#FFFFFF;" width="229.074" height="137.907"/>
<path style="fill:#3A556A;" d="M257.766,169.451H193.53c-2.096,0-3.795-1.699-3.795-3.795v-0.076c0-2.096,1.699-3.795,3.795-3.795
	h64.237c2.096,0,3.795,1.699,3.795,3.795v0.076C261.562,167.752,259.863,169.451,257.766,169.451z"/>
<path style="fill:#EBF0F3;" d="M251.271,115.498h-51.246c-1.35,0-2.445,1.094-2.445,2.445v51.508h56.136v-51.508
	C253.716,116.593,252.621,115.498,251.271,115.498z"/>
<rect x="197.58" y="158.397" style="fill:#E1E6E9;" width="56.136" height="11.054"/>
<circle style="fill:#64798A;" cx="225.648" cy="135.352" r="11.868"/>
<path style="fill:#3A556A;" d="M225.648,126.435c-0.118,0-0.227,0.031-0.345,0.035c4.381,0.184,7.883,3.767,7.883,8.193
	c0,4.544-3.683,8.228-8.227,8.228c-4.426,0-8.008-3.503-8.193-7.883c-0.004,0.117-0.034,0.226-0.034,0.345
	c0,4.925,3.992,8.916,8.916,8.916c4.924,0,8.916-3.992,8.916-8.916S230.572,126.435,225.648,126.435z"/>
<rect x="122.629" y="201.114" style="fill:#27A2DB;" width="68.69" height="83.564"/>
<g>
	<circle style="fill:#FFFFFF;" cx="156.973" cy="229.309" r="14.392"/>
	<path style="fill:#FFFFFF;" d="M156.972,250.394c-18.942,0-34.298,15.355-34.298,34.297h68.594
		C191.269,265.749,175.914,250.394,156.972,250.394z"/>
</g>
<rect x="214.394" y="211.456" style="fill:#E56353;" width="111.488" height="7.757"/>
<g>
	<rect x="214.394" y="237.21" style="fill:#64798A;" width="111.488" height="5.171"/>
	<rect x="214.394" y="261.683" style="fill:#64798A;" width="111.488" height="5.171"/>
	<rect x="214.394" y="286.152" style="fill:#64798A;" width="111.488" height="5.171"/>
	<rect x="130.565" y="303.104" style="fill:#64798A;" width="50.806" height="5.171"/>
</g>
</svg>