<?xml version="1.0" ?><!-- Uploaded to: SVG Repo, www.svgrepo.com, Generator: SVG Repo Mixer Tools -->
<svg fill="currentColor" width="800px" height="800px" viewBox="0 0 64 64" data-name="Material Expand" id="Material_Expand" xmlns="http://www.w3.org/2000/svg"><path d="M60,33H54V26a2,2,0,0,0-2-2H19V19a13,13,0,0,1,26,0h4a17,17,0,0,0-34,0v5H12a2,2,0,0,0-2,2v7H4a2,2,0,0,0-2,2V51a2,2,0,0,0,2,2h6v7a2,2,0,0,0,2,2H52a2,2,0,0,0,2-2V53h6a2,2,0,0,0,2-2V35A2,2,0,0,0,60,33ZM14,28H50v5H14ZM50,58H14V53H50Zm8-9H6V37H58Z"/><rect height="4" width="4" x="10" y="41"/><rect height="4" width="4" x="18" y="41"/><rect height="4" width="4" x="26" y="41"/><rect height="4" width="4" x="34" y="41"/><rect height="4" width="4" x="42" y="41"/><rect height="4" width="4" x="50" y="41"/></svg>
