<!DOCTYPE svg PUBLIC "-//W3C//DTD SVG 1.1//EN" "http://www.w3.org/Graphics/SVG/1.1/DTD/svg11.dtd">
<!-- Uploaded to: SVG Repo, www.svgrepo.com, Transformed by: SVG Repo Mixer Tools -->
<svg fill="#ffffff" height="800px" width="800px" version="1.1" id="Icons" xmlns="http://www.w3.org/2000/svg" xmlns:xlink="http://www.w3.org/1999/xlink" viewBox="-6.4 -6.4 44.80 44.80" xml:space="preserve">
<g id="SVGRepo_bgCarrier" stroke-width="0">
<rect x="-6.4" y="-6.4" width="44.80" height="44.80" rx="22.4" fill="#419eaf" strokewidth="0"/>
</g>
<g id="SVGRepo_tracerCarrier" stroke-linecap="round" stroke-linejoin="round"/>
<g id="SVGRepo_iconCarrier"> <path d="M29,7H3c-1.7,0-3,1.3-3,3v12c0,1.7,1.3,3,3,3h26c1.7,0,3-1.3,3-3V10C32,8.3,30.7,7,29,7z M8,15c1.7,0,3,1.3,3,3s-1.3,3-3,3 s-3-1.3-3-3c0-0.6,0.4-1,1-1s1,0.4,1,1c0,0.6,0.4,1,1,1s1-0.4,1-1s-0.4-1-1-1c-1.7,0-3-1.3-3-3s1.3-3,3-3s3,1.3,3,3c0,0.6-0.4,1-1,1 s-1-0.4-1-1c0-0.6-0.4-1-1-1s-1,0.4-1,1S7.4,15,8,15z M16,15c1.7,0,3,1.3,3,3s-1.3,3-3,3s-3-1.3-3-3c0-0.6,0.4-1,1-1s1,0.4,1,1 c0,0.6,0.4,1,1,1s1-0.4,1-1s-0.4-1-1-1c-1.7,0-3-1.3-3-3s1.3-3,3-3s3,1.3,3,3c0,0.6-0.4,1-1,1s-1-0.4-1-1c0-0.6-0.4-1-1-1 s-1,0.4-1,1S15.4,15,16,15z M26,21h-4c-0.6,0-1-0.4-1-1v-8c0-0.6,0.4-1,1-1s1,0.4,1,1v7h3c0.6,0,1,0.4,1,1S26.6,21,26,21z"/> </g>
</svg>