<?xml version="1.0" encoding="iso-8859-1"?>
<!-- Uploaded to: SVG Repo, www.svgrepo.com, Generator: SVG Repo Mixer Tools -->
<svg version="1.1" id="Layer_1" xmlns="http://www.w3.org/2000/svg" xmlns:xlink="http://www.w3.org/1999/xlink" 
	 viewBox="0 0 504 504" xml:space="preserve">
<circle style="fill:#FFD05B;" cx="252" cy="252" r="252"/>
<polygon style="fill:#2B3B4E;" points="94.5,352.6 107.3,390.4 396.7,390.4 409.5,352.6 "/>
<path style="fill:#324A5E;" d="M381.4,113.6H122.6c-6.8,0-12.4,5.4-12.4,12v166.9v34c0,6.6,5.5,12,12.4,12h258.7
	c6.8,0,12.4-5.4,12.4-12v-34V125.6C393.8,119,388.2,113.6,381.4,113.6z"/>
<g>
	<rect x="137.8" y="140.9" style="fill:#FFFFFF;" width="228.4" height="170.3"/>
	<path style="fill:#FFFFFF;" d="M274.3,364.3h-44.6c-2.3,0-4.1,1.8-4.1,4.1c0,2.3,1.8,4.1,4.1,4.1h44.6c2.3,0,4.1-1.8,4.1-4.1
		C278.4,366.1,276.6,364.3,274.3,364.3z"/>
</g>
<rect x="171.6" y="150.1" style="fill:#CED5E0;" width="160.7" height="151.8"/>
<g>
	<path style="fill:#324A5E;" d="M236.8,292l-4-10.1h-18.1l-4,10.1h-10.3l18.7-46.7h9.4l18.7,46.7H236.8z M223.7,259.2l-5.5,13.6H229
		L223.7,259.2z"/>
	<path style="fill:#324A5E;" d="M281.9,249.5c3,2.8,4.5,7.1,4.5,12.8c0,5.8-1.6,10-4.7,12.7s-7.9,4-14.3,4h-5.8v13h-9.7v-46.7h15.3
		C274,245.3,278.9,246.7,281.9,249.5z M274.8,267.8c1.2-1.4,1.7-3.4,1.7-6.1s-0.8-4.6-2.3-5.7s-3.9-1.7-7-1.7h-5.5V270h6.5
		C271.5,269.9,273.7,269.2,274.8,267.8z"/>
	<path style="fill:#324A5E;" d="M294,245.3h9.7V292H294V245.3z"/>
</g>
<circle style="fill:#2C9984;" cx="298.2" cy="163" r="4.9"/>
<circle style="fill:#F1543F;" cx="315.6" cy="163" r="4.9"/>
<rect x="183.4" y="158" style="fill:#324A5E;" width="101.8" height="9.9"/>
<rect x="183.4" y="184.6" style="fill:#FF7058;" width="60.2" height="28.1"/>
<g>
	<rect x="183.4" y="219.6" style="fill:#ACB3BA;" width="60.2" height="4.2"/>
	<rect x="183.4" y="230.7" style="fill:#ACB3BA;" width="60.2" height="4.2"/>
</g>
<rect x="260.4" y="184.6" style="fill:#4CDBC4;" width="60.2" height="28.1"/>
<g>
	<rect x="260.4" y="219.6" style="fill:#ACB3BA;" width="60.2" height="4.2"/>
	<rect x="260.4" y="230.7" style="fill:#ACB3BA;" width="60.2" height="4.2"/>
</g>
</svg>