<?xml version="1.0" encoding="iso-8859-1"?>
<!-- Uploaded to: SVG Repo, www.svgrepo.com, Generator: SVG Repo Mixer Tools -->
<svg version="1.1" id="Layer_1" xmlns="http://www.w3.org/2000/svg" xmlns:xlink="http://www.w3.org/1999/xlink" 
	 viewBox="0 0 512 512" xml:space="preserve">
<circle style="fill:#FF873D;" cx="255.997" cy="256" r="255.997"/>
<path style="fill:#E37936;" d="M241.202,511.579L121.341,391.719l270.798-269.952l119.438,119.227
	c0.211,4.862,0.423,9.935,0.423,14.798c0,141.424-114.576,255.999-256,255.999c-4.862,0-9.935-0.211-14.798-0.423V511.579z"/>
<path style="fill:#056B78;" d="M128.951,117.539H383.26c6.305,0,11.415,5.111,11.415,11.415v254.308
	c0,6.305-5.111,11.415-11.415,11.415H128.951c-6.305,0-11.415-5.111-11.415-11.415V128.954
	C117.536,122.649,122.646,117.539,128.951,117.539z"/>
<rect x="124.517" y="158.34" style="fill:#EFEFF0;" width="262.972" height="229.151"/>
<g>
	<path style="fill:#FFFFFF;" d="M213.298,130.645h155.376c1.284,0,2.325,1.041,2.325,2.325v6.553c0,1.284-1.041,2.325-2.325,2.325
		H213.298c-1.284,0-2.325-1.041-2.325-2.325v-6.553C210.973,131.686,212.013,130.645,213.298,130.645z"/>
	<path style="fill:#FFFFFF;" d="M143.961,128.108c4.44,0,8.244,3.594,8.244,8.244c0,4.44-3.594,8.244-8.244,8.244
		c-4.44,0-8.244-3.594-8.244-8.244C135.715,131.914,139.31,128.108,143.961,128.108z M186.451,128.108
		c4.44,0,8.244,3.594,8.244,8.244c0,4.44-3.594,8.244-8.244,8.244c-4.44,0-8.244-3.594-8.244-8.244
		C178.207,131.914,181.8,128.108,186.451,128.108z M165.1,128.108c4.44,0,8.244,3.594,8.244,8.244c0,4.44-3.594,8.244-8.244,8.244
		c-4.44,0-8.244-3.594-8.244-8.244C156.855,131.914,160.449,128.108,165.1,128.108z"/>
</g>
<path style="fill:#00A085;" d="M200.191,249.449h111.406c8.667,0,15.855,7.187,15.855,15.855v96.607H184.336v-96.607
	C184.336,256.636,191.524,249.449,200.191,249.449z"/>
<path style="fill:#666666;" d="M210.762,218.797v30.652h17.757v-31.286c0-16.277,54.963-19.448,54.963,0v31.286h17.757v-30.652
	C301.238,172.502,210.762,172.502,210.762,218.797z"/>
<path style="fill:#EBECEC;" d="M255.999,294.053c8.033,0,14.798,6.553,14.798,14.798c0,5.919-3.382,10.993-8.456,13.318v31.075
	h-12.473V322.17c-5.073-2.325-8.456-7.399-8.456-13.318c0-8.033,6.553-14.798,14.798-14.798H255.999z"/>
</svg>