<?xml version="1.0" encoding="iso-8859-1"?>
<!-- Uploaded to: SVG Repo, www.svgrepo.com, Generator: SVG Repo Mixer Tools -->
<!DOCTYPE svg PUBLIC "-//W3C//DTD SVG 1.1//EN" "http://www.w3.org/Graphics/SVG/1.1/DTD/svg11.dtd">
<svg fill="currentColor" height="800px" width="800px" version="1.1" id="Capa_1" xmlns="http://www.w3.org/2000/svg" xmlns:xlink="http://www.w3.org/1999/xlink"
	 viewBox="0 0 264 264" xml:space="preserve">
<path d="M246.997,33H17.926C8.225,33,0,40.892,0,50.593v163.071C0,223.385,8.061,231,17.926,231h229.071
	c9.721,0,17.003-7.615,17.003-17.336V50.593C264,40.728,256.718,33,246.997,33z M60.226,43.025c3.554,0,6.444,2.891,6.444,6.444
	s-2.891,6.444-6.444,6.444s-6.444-2.891-6.444-6.444S56.672,43.025,60.226,43.025z M41.726,43.025c3.554,0,6.444,2.891,6.444,6.444
	s-2.891,6.444-6.444,6.444s-6.444-2.891-6.444-6.444S38.172,43.025,41.726,43.025z M23.226,43.025c3.554,0,6.444,2.891,6.444,6.444
	s-2.891,6.444-6.444,6.444s-6.444-2.891-6.444-6.444S19.672,43.025,23.226,43.025z M248,214.5c0,0.276,0.109,0.5-0.167,0.5h-0.5
	h-230.5H16v-0.5V67v-0.5c0-0.276,0.557-0.5,0.833-0.5h231c0.276,0,0.167,0.224,0.167,0.5V214.5z M241.889,56h-70
	c-3.554,0-6.444-2.91-6.444-6.487c0-3.577,2.891-6.487,6.444-6.487l70,0.022c3.554,0,6.444,2.9,6.444,6.466
	C248.333,53.09,245.442,56,241.889,56z"/>
<g>
	<path d="M153.466,187.572c-2.035,0-3.986-0.827-5.402-2.298l-38.658-40.151l-15.088,13.515c-3.085,2.765-7.826,2.503-10.591-0.583
		c-2.764-3.085-2.502-7.827,0.583-10.591l20.476-18.341c3.007-2.691,7.608-2.522,10.406,0.385l37.892,39.355l61.071-72.757
		c2.664-3.172,7.394-3.584,10.566-0.922c3.172,2.663,3.585,7.394,0.922,10.566l-66.433,79.145c-1.367,1.629-3.362,2.601-5.488,2.674
		C153.636,187.571,153.551,187.572,153.466,187.572z"/>
	<g>
		<path d="M58.556,108.428H44.767c-4.143,0-7.5-3.357-7.5-7.5c0-4.142,3.357-7.5,7.5-7.5h13.789c4.143,0,7.5,3.358,7.5,7.5
			C66.056,105.07,62.698,108.428,58.556,108.428z"/>
		<path d="M58.556,161.19H44.767c-4.143,0-7.5-3.357-7.5-7.5c0-4.143,3.357-7.5,7.5-7.5h13.789c4.143,0,7.5,3.357,7.5,7.5
			C66.056,157.833,62.698,161.19,58.556,161.19z"/>
		<path d="M58.556,134.81H44.767c-4.143,0-7.5-3.357-7.5-7.5c0-4.143,3.357-7.5,7.5-7.5h13.789c4.143,0,7.5,3.357,7.5,7.5
			C66.056,131.452,62.698,134.81,58.556,134.81z"/>
		<path d="M58.556,187.572H44.767c-4.143,0-7.5-3.357-7.5-7.5c0-4.143,3.357-7.5,7.5-7.5h13.789c4.143,0,7.5,3.357,7.5,7.5
			C66.056,184.215,62.698,187.572,58.556,187.572z"/>
	</g>
</g>
</svg>
