<!DOCTYPE svg PUBLIC "-//W3C//DTD SVG 1.1//EN" "http://www.w3.org/Graphics/SVG/1.1/DTD/svg11.dtd">
<!-- Uploaded to: SVG Repo, www.svgrepo.com, Transformed by: SVG Repo Mixer Tools -->
<svg height="800px" width="800px" version="1.1" id="Layer_1" xmlns="http://www.w3.org/2000/svg" xmlns:xlink="http://www.w3.org/1999/xlink" viewBox="-122.88 -122.88 757.76 757.76" xml:space="preserve" fill="#000000">
<g id="SVGRepo_bgCarrier" stroke-width="0">
<rect x="-122.88" y="-122.88" width="757.76" height="757.76" rx="378.88" fill="#cef2d8" strokewidth="0"/>
</g>
<g id="SVGRepo_tracerCarrier" stroke-linecap="round" stroke-linejoin="round"/>
<g id="SVGRepo_iconCarrier"> <path style="fill:#F9B54C;" d="M380.542,222.892c-6.782-0.974-13.709-1.489-20.757-1.489s-13.975,0.515-20.757,1.489 c-14.494,2.083-28.301,6.31-41.093,12.353c-20.448,9.66-38.301,23.949-52.184,41.514c-9.778,12.372-17.585,26.371-22.954,41.514 c-4.641,13.085-7.46,27.024-8.141,41.514c-0.108,2.292-0.169,4.597-0.169,6.915c0,16.978,2.936,33.279,8.312,48.437 c2.552,7.193,5.643,14.131,9.247,20.757c3.983,7.322,8.578,14.261,13.713,20.757C272.391,490.342,313.605,512,359.785,512 c80.118,0,145.298-65.181,145.298-145.298C505.083,293.632,450.862,232.995,380.542,222.892z"/> <path style="fill:#E0E0E2;" d="M222.797,415.139c-5.376-15.158-8.312-31.459-8.312-48.437c0-2.318,0.061-4.623,0.169-6.915H110.702 c-11.463,0-20.757-9.294-20.757-20.757s9.294-20.757,20.757-20.757h112.094c5.369-15.143,13.175-29.141,22.954-41.514H110.702 c-11.463,0-20.757-9.294-20.757-20.757s9.294-20.757,20.757-20.757h187.233c12.792-6.043,26.601-10.271,41.093-12.353 c6.782-0.974,13.709-1.489,20.757-1.489c7.048,0,13.975,0.515,20.757,1.489v-63.224c-0.286,11.214-9.446,20.221-20.729,20.221 c-0.011,0-0.019,0-0.028,0h-20.757H221.405c-11.463,0-20.757-9.294-20.757-20.757V41.514V20.757c0-8.395,5.056-15.965,12.814-19.177 c2.672-1.107,5.481-1.608,8.261-1.565C221.617,0.014,221.512,0,221.405,0H27.674C16.21,0,6.917,9.294,6.917,20.757v415.139 c0,11.463,9.294,20.757,20.757,20.757h218.085c-5.135-6.496-9.731-13.437-13.713-20.757 C228.442,429.27,225.349,422.331,222.797,415.139z"/> <path style="fill:#D6D5D8;" d="M374.566,144.571c-0.036-0.037-0.068-0.079-0.105-0.116L236.082,6.079l137.754,137.75 C374.09,144.064,374.323,144.324,374.566,144.571z"/> <g> <path style="fill:#57565C;" d="M89.945,339.03c0,11.463,9.294,20.757,20.757,20.757h103.953c0.681-14.49,3.5-28.429,8.141-41.514 H110.702C99.237,318.273,89.945,327.566,89.945,339.03z"/> <path style="fill:#57565C;" d="M89.945,256.002c0,11.463,9.294,20.757,20.757,20.757H245.75 c13.884-17.564,31.736-31.854,52.184-41.514H110.702C99.237,235.245,89.945,244.539,89.945,256.002z"/> </g> <path style="fill:#C6C5CA;" d="M200.648,20.757v20.757v117.618c0,11.463,9.294,20.757,20.757,20.757h117.623h20.757 c0.008,0,0.017,0,0.028,0c11.283,0,20.443-9.009,20.729-20.221c0.004-0.18,0.028-0.354,0.028-0.536c0-4.966-1.763-9.508-4.672-13.08 c-0.035-0.04-0.066-0.083-0.1-0.123c-0.386-0.469-0.798-0.922-1.23-1.359c-0.244-0.246-0.476-0.506-0.731-0.742L236.082,6.079 c-0.441-0.441-0.908-0.855-1.384-1.252c-0.133-0.111-0.267-0.214-0.403-0.321c-0.369-0.292-0.746-0.572-1.131-0.837 c-0.138-0.094-0.274-0.191-0.414-0.282c-0.505-0.329-1.02-0.643-1.55-0.927c-0.01-0.004-0.018-0.01-0.028-0.015 c-0.545-0.292-1.106-0.551-1.674-0.792c-0.147-0.062-0.298-0.119-0.447-0.177c-0.433-0.172-0.87-0.328-1.313-0.47 c-0.166-0.054-0.331-0.108-0.498-0.158c-0.563-0.166-1.133-0.314-1.712-0.43c-0.022-0.004-0.042-0.011-0.064-0.015 c-0.596-0.119-1.201-0.203-1.81-0.27c-0.173-0.019-0.346-0.032-0.519-0.046c-0.469-0.039-0.941-0.062-1.413-0.071 c-2.78-0.043-5.589,0.458-8.261,1.565C205.705,4.792,200.648,12.361,200.648,20.757z"/> <path style="fill:#FFD15D;" d="M339.624,387.458h20.159v-41.514h-20.159c2.64-45.041,13.462-72.635,20.159-81.143v-43.399 c-7.048,0-13.975,0.515-20.757,1.489c-14.494,2.083-28.301,6.31-41.093,12.353c-20.448,9.66-38.301,23.949-52.184,41.514 c-9.778,12.372-17.585,26.371-22.954,41.514c-4.641,13.085-7.46,27.024-8.141,41.514c-0.108,2.292-0.169,4.597-0.169,6.915 c0,16.978,2.936,33.279,8.312,48.437c2.552,7.193,5.643,14.131,9.247,20.757c3.983,7.322,8.578,14.261,13.713,20.757 C272.39,490.342,313.603,512,359.783,512v-43.399C353.086,460.094,342.264,432.5,339.624,387.458z"/> <g> <path style="fill:#cef2d8;" d="M267.685,414.455c-4.373-8.4-7.652-17.455-9.597-26.996h24.028h15.934 c1.309,25.166,5.041,49.537,11.384,69.954C291.66,447.507,277.096,432.533,267.685,414.455z"/> <path style="fill:#cef2d8;" d="M298.049,345.945h-39.963c6.13-30.075,25.315-55.446,51.347-69.954 C303.091,296.408,299.36,320.779,298.049,345.945z"/> <path style="fill:#cef2d8;" d="M379.944,345.945c-2.64-45.041-13.462-72.635-20.159-81.143v81.143H379.944z"/> <path style="fill:#cef2d8;" d="M410.133,457.412c26.033-14.508,45.218-39.878,51.347-69.954h-39.963 C420.209,412.624,416.477,436.996,410.133,457.412z"/> <path style="fill:#cef2d8;" d="M379.944,387.458h-20.159v81.143C366.482,460.094,377.303,432.5,379.944,387.458z"/> <path style="fill:#cef2d8;" d="M339.624,345.945c2.64-45.041,13.462-72.635,20.159-81.143v81.143H339.624z"/> <path style="fill:#cef2d8;" d="M339.624,387.458h20.159v81.143C353.086,460.094,342.264,432.5,339.624,387.458z"/> <path style="fill:#cef2d8;" d="M410.133,275.991c6.345,20.417,10.075,44.789,11.386,69.954h39.963 C455.351,315.869,436.166,290.499,410.133,275.991z"/> </g> </g>
</svg>