<!DOCTYPE svg PUBLIC "-//W3C//DTD SVG 1.1//EN" "http://www.w3.org/Graphics/SVG/1.1/DTD/svg11.dtd">
<!-- Uploaded to: SVG Repo, www.svgrepo.com, Transformed by: SVG Repo Mixer Tools -->
<svg height="800px" width="800px" version="1.1" id="Layer_1" xmlns="http://www.w3.org/2000/svg" xmlns:xlink="http://www.w3.org/1999/xlink" viewBox="-122.88 -122.88 757.76 757.76" xml:space="preserve" fill="#000000">
<g id="SVGRepo_bgCarrier" stroke-width="0">
<rect x="-122.88" y="-122.88" width="757.76" height="757.76" rx="378.88" fill="#fcf0d8" strokewidth="0"/>
</g>
<g id="SVGRepo_tracerCarrier" stroke-linecap="round" stroke-linejoin="round"/>
<g id="SVGRepo_iconCarrier"> <path style="fill:#E0E0E2;" d="M228.326,428.512c0-4.917,1.755-9.645,4.899-13.373c0.378-0.447,0.764-0.888,1.182-1.304 l104.62-104.622l20.757-20.757l20.757-20.757V159.67c-0.286,11.214-9.446,20.221-20.729,20.221c-0.011,0-0.019,0-0.028,0h-20.757 H221.405c-11.463,0-20.757-9.294-20.757-20.757V41.514V20.757c0-8.394,5.056-15.963,12.814-19.175 c2.682-1.111,5.502-1.611,8.289-1.564C221.634,0.015,221.521,0,221.405,0H27.674C16.21,0,6.917,9.294,6.917,20.757v415.139 c0,11.463,9.294,20.757,20.757,20.757h200.653v-20.757V428.512z M110.701,235.246h166.055c11.463,0,20.757,9.294,20.757,20.757 c0,11.463-9.294,20.757-20.757,20.757H110.701c-11.463,0-20.757-9.294-20.757-20.757C89.944,244.539,99.238,235.246,110.701,235.246 z M110.701,359.787c-11.463,0-20.757-9.294-20.757-20.757s9.294-20.757,20.757-20.757h166.055c11.463,0,20.757,9.294,20.757,20.757 s-9.294,20.757-20.757,20.757H110.701z"/> <path style="fill:#D6D5D8;" d="M374.567,144.573c-0.036-0.037-0.069-0.08-0.105-0.118L236.082,6.08l137.754,137.751 C374.092,144.064,374.322,144.325,374.567,144.573z"/> <g> <path style="fill:#57565C;" d="M297.513,339.03c0-11.463-9.294-20.757-20.757-20.757H110.701c-11.463,0-20.757,9.294-20.757,20.757 s9.294,20.757,20.757,20.757h166.055C288.22,359.787,297.513,350.494,297.513,339.03z"/> <path style="fill:#57565C;" d="M110.701,276.76h166.055c11.463,0,20.757-9.294,20.757-20.757c0-11.463-9.294-20.757-20.757-20.757 H110.701c-11.463,0-20.757,9.294-20.757,20.757C89.944,267.466,99.238,276.76,110.701,276.76z"/> </g> <path style="fill:#C6C5CA;" d="M200.648,20.757v20.757v117.619c0,11.463,9.294,20.757,20.757,20.757h117.622h20.757 c0.008,0,0.017,0,0.028,0c11.283,0,20.443-9.008,20.729-20.221c0.006-0.18,0.028-0.356,0.028-0.536c0-4.966-1.762-9.507-4.67-13.08 c-0.035-0.04-0.068-0.083-0.101-0.125c-0.387-0.469-0.798-0.92-1.23-1.356c-0.245-0.248-0.475-0.508-0.731-0.742L236.081,6.079 c-0.443-0.443-0.909-0.857-1.385-1.255c-0.13-0.108-0.264-0.209-0.397-0.314c-0.371-0.295-0.75-0.577-1.139-0.844 c-0.136-0.091-0.268-0.188-0.407-0.277c-0.511-0.333-1.031-0.652-1.568-0.938c-0.003-0.001-0.006-0.003-0.008-0.006 c-0.547-0.291-1.108-0.551-1.679-0.793c-0.148-0.062-0.298-0.118-0.447-0.177c-0.432-0.17-0.866-0.327-1.306-0.468 c-0.17-0.055-0.339-0.111-0.511-0.161c-0.551-0.162-1.108-0.306-1.673-0.422c-0.035-0.007-0.068-0.018-0.102-0.025 c-0.591-0.118-1.189-0.201-1.789-0.266c-0.185-0.021-0.371-0.033-0.556-0.048c-0.451-0.037-0.905-0.061-1.362-0.068 c-2.788-0.047-5.608,0.452-8.289,1.564C205.704,4.793,200.648,12.363,200.648,20.757z"/> <path style="fill:#FFD15D;" d="M499.004,304.054l-29.779-29.778l-32.954-32.954c-8.105-8.106-21.248-8.106-29.354,0L380.539,267.7 l-20.757,20.757l-20.757,20.757l-104.62,104.622c-0.418,0.417-0.804,0.857-1.182,1.304c-3.144,3.728-4.899,8.456-4.899,13.373v7.384 v20.757v34.591c0,6.541,3.032,12.367,7.76,16.171c3.559,2.863,8.074,4.586,12.997,4.586h62.73c5.506,0,10.785-2.188,14.676-6.079 l172.514-172.513c3.893-3.893,6.08-9.172,6.08-14.678S502.898,307.946,499.004,304.054z"/> <path style="fill:#F9B54C;" d="M436.271,241.322c-8.105-8.106-21.248-8.106-29.354,0L380.539,267.7l-20.757,20.757l-20.757,20.757 l-104.62,104.622c-0.418,0.417-0.804,0.857-1.182,1.304c-3.144,3.728-4.899,8.456-4.899,13.373v7.384v20.757v34.591 c0,6.541,3.032,12.367,7.76,16.171l233.14-233.14L436.271,241.322z"/> </g>
</svg>