<?xml version="1.0" encoding="iso-8859-1"?>
<!-- Uploaded to: SVG Repo, www.svgrepo.com, Generator: SVG Repo Mixer Tools -->
<!DOCTYPE svg PUBLIC "-//W3C//DTD SVG 1.1//EN" "http://www.w3.org/Graphics/SVG/1.1/DTD/svg11.dtd">
<svg fill="currentColor" height="800px" width="800px" version="1.1" id="Capa_1" xmlns="http://www.w3.org/2000/svg" xmlns:xlink="http://www.w3.org/1999/xlink"
	 viewBox="0 0 264 264" xml:space="preserve">
<path d="M246.997,33H17.926C8.225,33,0,40.892,0,50.593v163.071C0,223.385,8.06,231,17.926,231h229.071
	c9.721,0,17.003-7.615,17.003-17.336V50.593C264,40.728,256.718,33,246.997,33z M60.226,43.025c3.554,0,6.444,2.891,6.444,6.444
	s-2.891,6.444-6.444,6.444s-6.444-2.891-6.444-6.444S56.672,43.025,60.226,43.025z M41.726,43.025c3.554,0,6.444,2.891,6.444,6.444
	s-2.891,6.444-6.444,6.444s-6.444-2.891-6.444-6.444S38.172,43.025,41.726,43.025z M23.226,43.025c3.554,0,6.444,2.891,6.444,6.444
	s-2.891,6.444-6.444,6.444s-6.444-2.891-6.444-6.444S19.672,43.025,23.226,43.025z M248,214.5c0,0.276,0.109,0.5-0.167,0.5h-0.5
	h-230.5H16v-0.5V67v-0.5c0-0.276,0.557-0.5,0.833-0.5h231c0.276,0,0.167,0.224,0.167,0.5V214.5z M241.889,56h-70
	c-3.554,0-6.444-2.91-6.444-6.487c0-3.577,2.891-6.487,6.444-6.487l70,0.022c3.554,0,6.444,2.9,6.444,6.466
	C248.333,53.09,245.442,56,241.889,56z"/>
<path d="M188.842,113.227c0.379-2.906-0.976-5.89-3.669-7.455l-48.919-28.596c-1.145-0.665-2.445-1.176-3.77-1.176h-0.121
	c-1.321,0-2.619,0.509-3.762,1.172l-49.342,28.6c-2.344,1.362-3.378,3.822-3.557,6.333c-0.042,0.075,0,56.627,0,56.627
	c-0.006,2.681,1.419,5.16,3.738,6.505l49.037,28.432c1.163,0.675,2.462,1.012,3.762,1.012c0.031,0,0.062-0.006,0.093-0.006
	c0.031,0,0.061,0.006,0.093,0.006c1.3,0,2.599-0.338,3.762-1.012l49.037-28.434c2.319-1.345,3.744-3.824,3.738-6.505
	L188.842,113.227z M124.768,184.178l-34.056-19.745l0.085-39.177l34.015,19.724L124.768,184.178z M132.331,132.001l-34.054-19.747
	l10.73-6.222l34.012,19.77L132.331,132.001z M139.897,184.178l-0.045-39.198l11.245-6.521l0.088,39.174L139.897,184.178z
	 M123.951,97.367l8.468-4.91l34.012,19.771l-8.469,4.91L123.951,97.367z M166.166,168.946l-0.088-39.175l7.79-4.518l0.085,39.177
	L166.166,168.946z"/>
</svg>
