<?xml version="1.0" encoding="iso-8859-1"?>
<!-- Uploaded to: SVG Repo, www.svgrepo.com, Generator: SVG Repo Mixer Tools -->
<svg fill="currentColor" height="800px" width="800px" version="1.1" id="Layer_1" xmlns="http://www.w3.org/2000/svg" xmlns:xlink="http://www.w3.org/1999/xlink"
	 viewBox="0 0 512 512" xml:space="preserve">
<g>
	<g>
		<g>
			<path d="M472.178,34.62H39.822C17.864,34.62,0,52.485,0,74.442c0,17.955,0,345.234,0,363.115
				c0,21.958,17.864,39.822,39.822,39.822h432.356c21.958,0,39.822-17.864,39.822-39.822c0-17.89,0-345.165,0-363.115
				C512,52.485,494.136,34.62,472.178,34.62z M477.867,437.557c0,3.137-2.552,5.689-5.689,5.689H39.822
				c-3.137,0-5.689-2.552-5.689-5.689V153.839h443.733V437.557z M477.867,119.706H34.133V74.442c0-3.137,2.552-5.689,5.689-5.689
				h432.356c3.137,0,5.689,2.552,5.689,5.689V119.706z"/>
			<circle cx="71.805" cy="94.231" r="12.836"/>
			<circle cx="112.959" cy="94.231" r="12.836"/>
			<circle cx="154.112" cy="94.231" r="12.836"/>
			<path d="M141.888,375.42c15.923,15.924,40.067-8.205,24.136-24.136l-53.379-53.38l53.379-53.379
				c15.947-15.947-8.173-40.1-24.136-24.136l-65.446,65.446c-6.665,6.665-6.665,17.471,0,24.136L141.888,375.42z"/>
			<path d="M370.111,375.42l65.447-65.447c6.661-6.659,6.665-17.472,0-24.136l-65.447-65.447
				c-15.944-15.945-40.104,8.169-24.136,24.136l53.38,53.379l-53.38,53.379C329.729,367.53,354.487,391.043,370.111,375.42z"/>
			<path d="M225.787,391.681l97.693-169.208c11.297-19.565-18.291-36.589-29.561-17.067l-97.693,169.208
				C184.856,394.309,214.616,411.032,225.787,391.681z"/>
		</g>
	</g>
</g>
</svg>
