<!DOCTYPE svg PUBLIC "-//W3C//DTD SVG 1.1//EN" "http://www.w3.org/Graphics/SVG/1.1/DTD/svg11.dtd">
<!-- Uploaded to: SVG Repo, www.svgrepo.com, Transformed by: SVG Repo Mixer Tools -->
<svg height="800px" width="800px" version="1.1" id="Layer_1" xmlns="http://www.w3.org/2000/svg" xmlns:xlink="http://www.w3.org/1999/xlink" viewBox="-122.88 -122.88 757.76 757.76" xml:space="preserve" fill="#000000">
<g id="SVGRepo_bgCarrier" stroke-width="0">
<rect x="-122.88" y="-122.88" width="757.76" height="757.76" rx="378.88" fill="#ecf7fd" strokewidth="0"/>
</g>
<g id="SVGRepo_tracerCarrier" stroke-linecap="round" stroke-linejoin="round"/>
<g id="SVGRepo_iconCarrier"> <path style="fill:#FFD15D;" d="M442.167,263.758h-23.273H255.985H93.076H69.803c-1.607,0-3.176,0.163-4.69,0.473 c-5.303,1.085-9.948,3.973-13.269,7.997c-3.32,4.023-5.314,9.18-5.314,14.803v201.697c0,3.213,0.652,6.274,1.829,9.059 c2.945,6.962,9.179,12.192,16.753,13.742c1.514,0.31,3.083,0.473,4.69,0.473h186.182h186.182c12.853,0,23.273-10.42,23.273-23.273 V287.03C465.44,274.178,455.02,263.758,442.167,263.758z"/> <path style="fill:#E0E0E2;" d="M46.531,287.03c0-12.853,10.42-23.273,23.273-23.273h23.273h162.909h162.909h23.273 c12.853,0,23.273,10.42,23.273,23.273V179.018c-0.321,12.573-10.589,22.672-23.242,22.672c-0.012,0-0.022,0-0.031,0h-23.273H287.016 c-12.853,0-23.273-10.42-23.273-23.273V46.545V23.273c0-9.413,5.669-17.898,14.367-21.501c2.993-1.24,6.142-1.801,9.256-1.753 C287.248,0.016,287.133,0,287.016,0H69.803C56.951,0,46.531,10.42,46.531,23.273C46.531,23.273,46.531,287.03,46.531,287.03z"/> <path style="fill:#C6C5CA;" d="M263.743,23.273v23.273v131.873c0,12.853,10.42,23.273,23.273,23.273h131.879h23.273 c0.009,0,0.019,0,0.031,0c12.653,0,22.921-10.1,23.242-22.672c0.005-0.202,0.031-0.397,0.031-0.6c0-4.822-1.486-9.286-3.998-13.002 c-0.003-0.005-0.006-0.009-0.009-0.014c-0.397-0.586-0.824-1.153-1.271-1.699c-0.036-0.045-0.071-0.092-0.109-0.137 c-0.424-0.512-0.875-1.001-1.339-1.474c-0.073-0.073-0.144-0.147-0.217-0.22c-0.205-0.2-0.394-0.419-0.605-0.613L303.472,6.816 c-0.483-0.484-0.991-0.936-1.508-1.37c-0.157-0.13-0.315-0.253-0.475-0.379c-0.375-0.299-0.763-0.59-1.159-0.867 c-0.189-0.132-0.379-0.264-0.571-0.389c-0.413-0.27-0.836-0.524-1.266-0.77c-0.166-0.095-0.33-0.199-0.498-0.289 c-0.562-0.301-1.14-0.577-1.728-0.833c-0.236-0.102-0.476-0.189-0.714-0.284c-0.389-0.155-0.784-0.299-1.184-0.433 c-0.27-0.09-0.541-0.177-0.813-0.256c-0.447-0.13-0.901-0.245-1.361-0.351c-0.202-0.047-0.403-0.102-0.608-0.144 c-0.645-0.129-1.303-0.227-1.967-0.299c-0.205-0.023-0.411-0.036-0.614-0.054c-0.541-0.045-1.086-0.074-1.638-0.082 c-3.114-0.048-6.263,0.515-9.256,1.753C269.414,5.374,263.743,13.86,263.743,23.273z"/> <path style="fill:#57565C;" d="M271.263,348.017c-5.28,0-9.112,3.497-9.112,8.316v20.111h-6.166h-6.853v-20.111 c0-4.741-3.916-8.316-9.112-8.316c-5.278,0-9.109,3.497-9.109,8.316v59.933c0,4.763,4.001,8.496,9.109,8.496 c5.109,0,9.112-3.731,9.112-8.496v-22.393h6.853h6.166v22.393c0,4.763,4.003,8.496,9.112,8.496c5.109,0,9.112-3.731,9.112-8.496 v-59.933C280.375,351.592,276.459,348.017,271.263,348.017z"/> <path style="fill:#F9B54C;" d="M193.678,365.798h-6.467v15.486h6.467c4.082,0,6.294-1.157,6.294-7.26v-1.052 C199.972,366.94,197.76,365.798,193.678,365.798z"/> <g> <path style="fill:#57565C;" d="M193.853,348.017h-16.195c-0.121,0-0.24,0.003-0.36,0.011c-4.735,0.276-8.307,3.848-8.307,8.307 v59.933c0,4.763,4,8.495,9.106,8.495c5.109,0,9.112-3.731,9.112-8.495v-17.557h6.467c15.349,0,24.512-9.328,24.512-24.95v-0.881 C218.19,357.312,209.094,348.017,193.853,348.017z M199.972,374.024c0,6.102-2.212,7.26-6.294,7.26h-6.467v-15.486h6.467 c4.082,0,6.294,1.143,6.294,7.174V374.024z"/> <path style="fill:#57565C;" d="M321.745,348.017h-16.19c-0.119,0-0.24,0.003-0.36,0.011c-4.737,0.275-8.308,3.846-8.308,8.307 v59.933c0,4.763,4,8.495,9.106,8.495c5.109,0,9.112-3.731,9.112-8.495v-17.557h6.467c15.349,0,24.512-9.328,24.512-24.95v-0.881 C346.082,357.312,336.984,348.017,321.745,348.017z M327.862,374.024c0,6.102-2.212,7.26-6.295,7.26h-6.467v-15.486h6.467 c4.082,0,6.295,1.143,6.295,7.174V374.024z"/> </g> <path style="fill:#F9B54C;" d="M249.132,393.874v22.393c0,4.763-4.003,8.495-9.112,8.495c-5.108,0-9.109-3.731-9.109-8.495v-59.933 c0-4.819,3.831-8.316,9.109-8.316c5.196,0,9.112,3.575,9.112,8.316v20.111h6.853V263.758H93.076H69.803 c-12.853,0-23.273,10.42-23.273,23.273v201.697c0,12.853,10.42,23.273,23.273,23.273h186.182V393.874H249.132z M218.19,373.762 c0,15.622-9.163,24.95-24.512,24.95h-6.467v17.557c0,4.763-4.003,8.495-9.112,8.495c-5.106,0-9.106-3.731-9.106-8.495v-59.933 c0-4.459,3.572-8.029,8.307-8.307c0.119-0.006,0.239-0.011,0.36-0.011h16.195c15.239,0,24.337,9.295,24.337,24.861v0.883H218.19z"/> </g>
</svg>