<?xml version="1.0" encoding="iso-8859-1"?>
<!-- Uploaded to: SVG Repo, www.svgrepo.com, Generator: SVG Repo Mixer Tools -->
<svg version="1.1" id="Layer_1" xmlns="http://www.w3.org/2000/svg" xmlns:xlink="http://www.w3.org/1999/xlink" 
	 viewBox="0 0 512 512" xml:space="preserve">
<circle style="fill:#E1E5EA;" cx="256" cy="256" r="256"/>
<rect x="74.872" y="146.304" style="fill:#FFFFFF;" width="362.24" height="257.68"/>
<g>
	<polygon style="fill:#E1E5EA;" points="337.912,377.256 174.088,377.256 147.224,397.68 364.776,397.68 	"/>
	<polygon style="fill:#E1E5EA;" points="153.448,377.256 106.232,377.256 79.368,397.68 126.68,397.68 	"/>
	<polygon style="fill:#E1E5EA;" points="405.768,377.256 358.552,377.256 385.32,397.68 432.632,397.68 	"/>
	<polygon style="fill:#E1E5EA;" points="337.912,173.576 174.088,173.576 147.224,153.152 364.776,153.152 	"/>
	<polygon style="fill:#E1E5EA;" points="153.448,173.576 106.232,173.576 79.368,153.152 126.68,153.152 	"/>
	<polygon style="fill:#E1E5EA;" points="405.768,173.576 358.552,173.576 385.32,153.152 432.632,153.152 	"/>
</g>
<path style="fill:#FFFFFF;" d="M434.248,149.184v251.92H77.752v-251.92H434.248 M440,143.432H72v263.416h368V143.432L440,143.432z"
	/>
<path d="M72,153.152v-45.808c0-6.328,5.176-11.504,11.504-11.504h344.968c6.328,0,11.504,5.176,11.504,11.504v45.808H72L72,153.152z
	"/>
<polygon style="fill:#FFFFFF;" points="410.976,140.312 195.288,140.312 215.92,108.688 410.976,108.688 "/>
<circle style="fill:#DB2B42;" cx="110.744" cy="124.064" r="9.784"/>
<circle style="fill:#8AD5DD;" cx="136.64" cy="124.064" r="9.784"/>
<circle style="fill:#939393;" cx="162.6" cy="124.064" r="9.784"/>
<path d="M226.976,118.56l1.376,5.976c0.296,1.4,0.6,2.832,0.84,4.264h0.056c0.272-1.432,0.704-2.896,1.08-4.24l1.704-6h2.704
	l1.648,5.84c0.4,1.544,0.752,2.976,1.056,4.408h0.056c0.216-1.432,0.512-2.864,0.864-4.408l1.464-5.84h3.264l-4.136,13.16h-3.08
	l-1.56-5.352c-0.4-1.376-0.704-2.624-1-4.216h-0.056c-0.272,1.624-0.616,2.92-1,4.216l-1.672,5.352h-3.112l-3.888-13.16H226.976z"/>
<path d="M247.648,118.56l1.376,5.976c0.296,1.4,0.6,2.832,0.84,4.264h0.056c0.272-1.432,0.704-2.896,1.08-4.24l1.704-6h2.704
	l1.648,5.84c0.4,1.544,0.752,2.976,1.056,4.408h0.056c0.216-1.432,0.512-2.864,0.864-4.408l1.464-5.84h3.264l-4.136,13.16h-3.08
	l-1.568-5.352c-0.4-1.376-0.704-2.624-1-4.216h-0.056c-0.272,1.624-0.616,2.92-1,4.216l-1.672,5.352h-3.112l-3.896-13.16H247.648z"
	/>
<path d="M268.328,118.56l1.376,5.976c0.296,1.4,0.6,2.832,0.84,4.264h0.056c0.272-1.432,0.704-2.896,1.08-4.24l1.704-6h2.704
	l1.648,5.84c0.4,1.544,0.752,2.976,1.056,4.408h0.056c0.216-1.432,0.512-2.864,0.864-4.408l1.464-5.84h3.264l-4.136,13.16h-3.08
	l-1.56-5.352c-0.4-1.376-0.704-2.624-1-4.216h-0.056c-0.272,1.624-0.616,2.92-1,4.216l-1.672,5.352h-3.112l-3.896-13.16H268.328z"/>
<path d="M284.968,129.88c0-1.248,0.864-2.136,2.056-2.136c1.216,0,2.056,0.864,2.056,2.136c0,1.216-0.808,2.136-2.056,2.136
	C285.816,132.016,284.968,131.096,284.968,129.88z"/>
<polygon points="318.304,401 193.696,401 210.944,387.888 301.056,387.888 "/>
<rect x="72" y="397.68" width="368" height="9.176"/>
<polygon points="432.632,397.68 385.32,397.68 364.776,397.68 147.224,397.68 126.68,397.68 79.368,397.68 72,397.68 72,406.856 
	440,406.856 440,397.68 "/>
<polygon points="388.504,133.84 386.448,131.832 393.56,124.528 386.024,117.176 388.032,115.128 397.624,124.472 "/>
<rect x="375.04" y="123.064" width="18.984" height="2.872"/>
<g>
	<rect x="124.584" y="199.144" style="fill:#8AD5DD;" width="122.84" height="78.608"/>
	<rect x="264.56" y="199.144" style="fill:#8AD5DD;" width="122.848" height="78.608"/>
</g>
<g>
	<rect x="124.584" y="343.144" style="fill:#C9C9C9;" width="262.84" height="8"/>
	<rect x="124.584" y="322.48" style="fill:#C9C9C9;" width="262.84" height="8"/>
	<rect x="124.584" y="301.76" style="fill:#C9C9C9;" width="262.84" height="8"/>
</g>
</svg>