<?xml version="1.0" encoding="iso-8859-1"?>
<!-- Uploaded to: SVG Repo, www.svgrepo.com, Generator: SVG Repo Mixer Tools -->
<svg fill="currentColor" version="1.1" id="Layer_1" xmlns="http://www.w3.org/2000/svg" xmlns:xlink="http://www.w3.org/1999/xlink"
	 viewBox="0 0 491.52 491.52" xml:space="preserve">
<g>
	<g>
		<polygon points="334.92,136.12 320.44,150.6 384.88,215.04 320.44,279.48 334.92,293.96 413.84,215.04 		"/>
	</g>
</g>
<g>
	<g>
		<polygon points="171.08,150.6 156.6,136.12 77.68,215.04 156.6,293.96 171.08,279.48 106.64,215.04 		"/>
	</g>
</g>
<g>
	<g>

			<rect x="135.479" y="204.787" transform="matrix(0.3711 -0.9286 0.9286 0.3711 -45.108 363.4517)" width="220.581" height="20.48"/>
	</g>
</g>
<g>
	<g>
		<path d="M471.04,358.4V51.2H20.48v307.2H0v44.06l25.24,37.86h441.04l25.24-37.86V358.4H471.04z M40.96,71.68h409.6V358.4H40.96
			V71.68z M471.04,396.26l-15.72,23.58H36.2l-15.72-23.58v-17.38h450.56V396.26z"/>
	</g>
</g>
<g>
	<g>
		<rect x="194.56" y="389.12" width="20.48" height="20.48"/>
	</g>
</g>
<g>
	<g>
		<rect x="235.52" y="389.12" width="20.48" height="20.48"/>
	</g>
</g>
<g>
	<g>
		<rect x="276.48" y="389.12" width="20.48" height="20.48"/>
	</g>
</g>
</svg>
