<?xml version="1.0" encoding="iso-8859-1"?>
<!-- Uploaded to: SVG Repo, www.svgrepo.com, Generator: SVG Repo Mixer Tools -->
<svg version="1.1" id="Layer_1" xmlns="http://www.w3.org/2000/svg" xmlns:xlink="http://www.w3.org/1999/xlink" 
	 viewBox="0 0 512 512" xml:space="preserve">
<circle style="fill:#324A5E;" cx="256" cy="256" r="256"/>
<path style="fill:#2B3B4E;" d="M511.952,259.77L397.76,146.804L221.522,258.956L89.643,347.224l164.755,164.755
	c0.534,0.003,1.065,0.021,1.602,0.021C396.124,512,509.935,399.415,511.952,259.77z"/>
<path style="fill:#E6F3FF;" d="M386.267,330.555H125.735c-8.866,0-16.055-7.187-16.055-16.055V158.01
	c0-8.866,7.187-16.055,16.055-16.055h260.532c8.866,0,16.055,7.187,16.055,16.055v156.491
	C402.32,323.367,395.133,330.555,386.267,330.555z"/>
<path style="fill:#CFDBE6;" d="M386.267,141.957H256v188.599h130.265c8.866,0,16.055-7.187,16.055-16.055V158.01
	C402.32,149.144,395.133,141.957,386.267,141.957z"/>
<rect x="123.363" y="154.221" style="fill:#31BAFD;" width="265.257" height="164.064"/>
<rect x="256" y="154.221" style="fill:#2B9ED8;" width="132.629" height="164.064"/>
<rect x="89.643" y="315.785" style="fill:#CFDBE6;" width="332.714" height="31.434"/>
<rect x="256" y="315.785" style="fill:#B8C9D9;" width="166.357" height="31.434"/>
</svg>