<?xml version="1.0" encoding="iso-8859-1"?>
<!-- Uploaded to: SVG Repo, www.svgrepo.com, Generator: SVG Repo Mixer Tools -->
<!DOCTYPE svg PUBLIC "-//W3C//DTD SVG 1.1//EN" "http://www.w3.org/Graphics/SVG/1.1/DTD/svg11.dtd">
<svg fill="#f8bd20" version="1.1" id="Capa_1" xmlns="http://www.w3.org/2000/svg" xmlns:xlink="http://www.w3.org/1999/xlink"
	 width="800px" height="800px" viewBox="0 0 490.357 490.357"
	 xml:space="preserve">
<g>
	<g>
		<path d="M405.759,210.258l-25.515-52.016l2.825,57.877c2.149,43.404-17.9,67.446-34.132,79.696
			c6.014-44.63,11.269-139.524-36.899-210.083c-30.115-44.099-76.006-71.084-136.441-80.21L139.083,0l26.361,25.876
			c31.453,30.874,47.45,63.552,47.544,97.153c0.046,19.384-5.249,36.719-11.823,50.76c-1.57-24.516-10.323-52.173-38.447-67.371
			l-18.998-10.258l1.366,21.533c3.105,49.079-17.854,79.031-40.059,110.751c-22.42,32.024-45.593,65.129-41.313,116.848
			c7.304,88.29,61.544,137.007,161.22,144.795c2.307,0.188,4.712,0.27,7.164,0.27c51.076,0,128.027-38.71,168.407-103.518
			C423.975,349.227,443.919,288.027,405.759,210.258z M232.109,466.454c-0.549,0-1.051-0.047-1.576-0.059
			c1.576-0.035,3.001-0.059,4.35-0.07C233.971,466.348,233.008,466.454,232.109,466.454z M380.233,374.205
			c-32.591,52.289-93.335,86.188-136.786,91.455c47.105-14.701,73.788-192.089-22.542-220.762
			c25.409,44.099-13.522,85.342-47.111,105.345c-33.589,20.003-56.249,38.827-42.546,81.845c0.502,1.576,1.256,2.932,1.927,4.367
			c-27.202-20.365-42.113-51.041-45.593-93.125c-3.579-43.111,16.167-71.312,37.057-101.158
			c18.648-26.63,39.334-56.202,43.807-98.251c16.768,28.025,4.974,71.528,4.823,72.065l-12.057,43.165l31.954-31.4
			c1.781-1.757,43.748-43.713,43.737-104.458c-0.012-29.847-10.089-58.689-30.01-86.095c36.555,11.683,65.164,32.433,85.354,61.953
			c57.884,84.659,29.392,215.058,29.1,216.389l-4.636,20.528l20.015-6.562c0.572-0.187,45.307-15.46,63.173-64.049
			C409.519,312.128,395.787,349.227,380.233,374.205z"/>
		<path d="M339.188,72.643c6.037,8.957,9.05,16.751,11.011,27.044c1.951,10.299,7.497,32.381,7.497,32.381l9.295-31.026
			c7.905-28.189-2.113-52.139-29.484-60.674l-43.544-8.513c0,0,16.196,13.51,25.328,20.254
			C323.879,55.483,333.139,63.687,339.188,72.643z"/>
	</g>
</g>
</svg>
