<svg xmlns="http://www.w3.org/2000/svg" width="1em" height="1em" viewBox="0 0 24 24">
	<path fill="currentColor" d="M23.157 4.412c-.676.284-.79.31-1.673.372c-.65.045-.757.057-1.212.209c-.75.246-1.395.75-2.02 1.59c-.296.398-1.249 1.913-1.249 1.988c0 .057-.65.998-.915 1.32c-.574.713-1.08 1.079-2.14 1.59c-.77.36-1.224.524-4.102 1.477c-1.073.353-2.133.738-2.367.864c-.852.449-1.515 1.036-2.203 1.938c-1.003 1.32-.972 1.313-3.042.947a12 12 0 0 0-.675-.063c-.644-.05-1.023.044-1.332.334L0 17.193l.177.088c.094.05.353.234.561.398c.215.17.461.347.55.391c.088.044.17.088.183.101s-.089.17-.228.353c-.435.581-.593.871-.574 1.048c.019.164.032.17.43.17c.517-.006.826-.056 1.261-.208c.65-.233 2.058-.94 2.784-1.4c.776-.5 1.717-.998 1.956-1.042c.082-.02.354-.07.594-.114c.58-.107 1.464-.095 2.587.05c.108.013.373.045.6.064c.227.025.43.057.454.076c.026.012.474.037.998.056c.934.026 1.104.007 1.3-.189c.126-.133.385-.631.498-.985c.209-.643.417-.921.366-.492c-.113.966-.322 1.692-.713 2.411c-.259.499-.663 1.092-.934 1.395c-.322.347-.315.36.088.315c.619-.063 1.471-.397 2.096-.82c.827-.562 1.647-1.691 2.19-3.03c.107-.27.22-.22.183.083c-.013.094-.038.315-.057.498l-.031.328l.353-.202c.833-.48 1.414-1.262 2.127-2.884c.227-.518.877-2.922 1.073-3.976a10 10 0 0 1 .271-1.042c.127-.429.196-.555.48-.858c.183-.19.625-.555.978-.808c.72-.505.953-.75 1.187-1.205c.208-.417.284-1.13.132-1.357c-.132-.202-.284-.196-.763.006" />
</svg>