<svg xmlns="http://www.w3.org/2000/svg" width="1em" height="1em" viewBox="0 0 24 24">
	<path fill="currentColor" d="M17.193 9.555c-1.264-5.58-4.252-7.414-4.573-8.115c-.28-.394-.53-.954-.735-1.44c-.036.495-.055.685-.523 1.184c-.723.566-4.438 3.682-4.74 10.02c-.282 5.912 4.27 9.435 4.888 9.884l.07.05A74 74 0 0 1 11.91 24h.481a29 29 0 0 1 .51-3.07c.417-.296.604-.463.85-.693a11.34 11.34 0 0 0 3.639-8.464c.01-.814-.103-1.662-.197-2.218m-5.336 8.195s0-8.291.275-8.29c.213 0 .49 10.695.49 10.695c-.381-.045-.765-1.76-.765-2.405" />
</svg>